<svg width="24.000000" height="24.000000" viewBox="0 0 24 24" fill="none" xmlns="http://www.w3.org/2000/svg" xmlns:xlink="http://www.w3.org/1999/xlink">
	<desc>
			Created with Pixso.
	</desc>
	<defs/>
	<path id="Vector" d="M17.5627 1.00391L14.7856 1C11.6655 1 9.64893 3.125 9.64893 6.41406L9.64893 8.91016L6.85669 8.91016C6.61523 8.91016 6.41992 9.11133 6.41992 9.35938L6.41992 12.9766C6.41992 13.2246 6.61548 13.4258 6.85669 13.4258L9.64893 13.4258L9.64893 22.5508C9.64893 22.7988 9.84448 23 10.0857 23L13.729 23C13.9702 23 14.1658 22.7988 14.1658 22.5508L14.1658 13.4258L17.4307 13.4258C17.6721 13.4258 17.8674 13.2246 17.8674 12.9766L17.8687 9.35938C17.8687 9.24023 17.8225 9.12695 17.741 9.04297C17.6592 8.95703 17.5476 8.91016 17.4319 8.91016L14.1658 8.91016L14.1658 6.79492C14.1658 5.77734 14.4016 5.26172 15.6914 5.26172L17.5625 5.25977C17.8035 5.25977 17.9988 5.05859 17.9988 4.8125L17.9988 1.45312C17.9988 1.20508 17.8037 1.00586 17.5627 1.00391Z" fill="#787A80" fill-opacity="1.000000" fill-rule="nonzero"/>
</svg>
