<svg width="24.000000" height="24.000000" viewBox="0 0 24 24" fill="none" xmlns="http://www.w3.org/2000/svg" xmlns:xlink="http://www.w3.org/1999/xlink">
	<desc>
			Created with Pixso.
	</desc>
	<defs>
		<clipPath id="clip2492_17701">
			<rect id="behance" width="24.000000" height="24.000000" fill="white" fill-opacity="0"/>
		</clipPath>
	</defs>
	<g clip-path="url(#clip2492_17701)">
		<path id="Vector" d="M12.3652 15.1445C12.3652 13.1719 11.4861 11.7148 9.66968 11.1699C10.9949 10.4961 11.686 9.47656 11.686 7.89062C11.686 4.76172 9.49365 4 6.96411 4L0 4L0 19.7031L7.15918 19.7031C9.84375 19.7031 12.3652 18.334 12.3652 15.1445ZM21.6592 4.82422L15.6702 4.82422L15.6702 6.37109L21.6592 6.37109L21.6592 4.82422ZM3.24658 6.67969L6.29321 6.67969C7.46436 6.67969 8.51855 7.03125 8.51855 8.47461C8.51855 9.80859 7.69824 10.3438 6.53809 10.3438L3.24658 10.3438L3.24658 6.67969ZM18.7993 20C21.3538 20 23.0081 18.7773 23.8042 16.1758L21.2117 16.1758C20.9326 17.1465 19.7825 17.6602 18.8904 17.6602C17.1689 17.6602 16.2649 16.5879 16.2649 14.7656L23.9792 14.7656C24.2231 11.1191 22.3188 8.01172 18.7983 8.01172C15.5388 8.01172 13.3264 10.6172 13.3264 14.0293C13.3264 17.5703 15.4226 20 18.7993 20ZM18.7073 10.373C20.1826 10.373 20.9246 11.293 21.0486 12.8008L16.2688 12.8008C16.366 11.3066 17.2991 10.373 18.7073 10.373ZM3.24561 17.0352L3.24561 12.7109L6.78418 12.7109C8.21338 12.7109 9.11768 13.3457 9.11768 14.9531C9.11768 16.5391 8.03833 17.0352 6.71729 17.0352L3.24561 17.0352Z" fill="#787A80" fill-opacity="1.000000" fill-rule="evenodd"/>
	</g>
</svg>
