<svg width="48.000000" height="48.000000" viewBox="0 0 48 48" fill="none"
  xmlns="http://www.w3.org/2000/svg"
  xmlns:xlink="http://www.w3.org/1999/xlink">
  <desc>
			Created with Pixso.
  </desc>
  <defs>
    <clipPath id="clip136_1267">
      <rect id="ic-calendar" width="48.000000" height="48.000000" fill="white" fill-opacity="0"/>
    </clipPath>
  </defs>
  <g clip-path="url(#clip136_1267)">
    <path id="Vector" d="M43.63 17.71C43.45 17.53 43.21 17.43 42.96 17.43C42.72 17.43 42.48 17.53 42.3 17.71C42.13 17.88 42.03 18.12 42.03 18.37C42.03 18.62 42.13 18.86 42.3 19.03C42.48 19.21 42.72 19.31 42.96 19.31C43.21 19.31 43.45 19.21 43.63 19.03C43.8 18.86 43.9 18.62 43.9 18.37C43.9 18.12 43.8 17.88 43.63 17.71Z" fill="#FF3F3A" fill-opacity="1.000000" fill-rule="nonzero"/>
    <path id="Vector" d="M42.78 6.93L41.7 6.93C41.87 6.76 41.97 6.53 41.97 6.28L41.97 5.06C41.97 3.3 40.54 1.87 38.78 1.87C37.03 1.87 35.6 3.3 35.6 5.06L35.6 6.93L26.9 6.93C27.07 6.76 27.17 6.53 27.17 6.28L27.17 5.06C27.17 3.3 25.74 1.87 23.98 1.87C22.23 1.87 20.8 3.3 20.8 5.06L20.8 6.93L12.1 6.93C12.27 6.76 12.37 6.53 12.37 6.28L12.37 5.06C12.37 3.3 10.94 1.87 9.18 1.87C7.42 1.87 6 3.3 6 5.06L6 6.93L5.21 6.93C2.34 6.93 0 9.27 0 12.15L0 43.31C0 44.86 1.26 46.12 2.81 46.12L19 46.12C19.51 46.12 19.93 45.7 19.93 45.18C19.93 44.66 19.51 44.25 19 44.25L2.81 44.25C2.29 44.25 1.87 43.82 1.87 43.31L1.87 19.31L38.37 19.31C38.89 19.31 39.31 18.89 39.31 18.37C39.31 17.85 38.89 17.43 38.37 17.43L1.87 17.43L1.87 12.15C1.87 10.31 3.37 8.81 5.21 8.81L6 8.81L6 11.07C6 12.83 7.42 14.26 9.18 14.26C10.94 14.26 12.37 12.83 12.37 11.07C12.37 10.56 11.95 10.14 11.43 10.14C10.91 10.14 10.5 10.56 10.5 11.07C10.5 11.8 9.91 12.39 9.18 12.39C8.46 12.39 7.87 11.8 7.87 11.07L7.87 8.81L20.8 8.81L20.8 11.07C20.8 12.83 22.23 14.26 23.98 14.26C25.74 14.26 27.17 12.83 27.17 11.07C27.17 10.56 26.75 10.14 26.23 10.14C25.72 10.14 25.3 10.56 25.3 11.07C25.3 11.8 24.71 12.39 23.98 12.39C23.26 12.39 22.67 11.8 22.67 11.07L22.67 8.81L35.6 8.81L35.6 11.07C35.6 12.83 37.03 14.26 38.78 14.26C40.54 14.26 41.97 12.83 41.97 11.07C41.97 10.56 41.55 10.14 41.03 10.14C40.52 10.14 40.1 10.56 40.1 11.07C40.1 11.8 39.51 12.39 38.78 12.39C38.06 12.39 37.47 11.8 37.47 11.07L37.47 8.81L42.78 8.81C44.62 8.81 46.12 10.31 46.12 12.15L46.12 43.31C46.12 43.82 45.7 44.25 45.18 44.25L29 44.25C28.48 44.25 28.06 44.66 28.06 45.18C28.06 45.7 28.48 46.12 29 46.12L45.18 46.12C46.73 46.12 48 44.86 48 43.31L48 12.15C48 9.27 45.65 6.93 42.78 6.93ZM7.87 6.93L7.87 5.06C7.87 4.33 8.46 3.75 9.18 3.75C9.91 3.75 10.5 4.33 10.5 5.06L10.5 6.28C10.5 6.53 10.6 6.76 10.76 6.93L7.87 6.93ZM22.67 6.93L22.67 5.06C22.67 4.33 23.26 3.75 23.98 3.75C24.71 3.75 25.3 4.33 25.3 5.06L25.3 6.28C25.3 6.53 25.4 6.76 25.56 6.93L22.67 6.93ZM37.47 6.93L37.47 5.06C37.47 4.33 38.06 3.75 38.78 3.75C39.51 3.75 40.1 4.33 40.1 5.06L40.1 6.28C40.1 6.53 40.2 6.76 40.36 6.93L37.47 6.93Z" fill="#FF3F3A" fill-opacity="1.000000" fill-rule="nonzero"/>
    <path id="Vector" d="M9 22.31C6.82 22.31 5.06 24.07 5.06 26.25C5.06 28.42 6.82 30.18 9 30.18C11.17 30.18 12.93 28.42 12.93 26.25C12.93 24.07 11.17 22.31 9 22.31ZM9 28.31C7.86 28.31 6.93 27.38 6.93 26.25C6.93 25.11 7.86 24.18 9 24.18C10.13 24.18 11.06 25.11 11.06 26.25C11.06 27.38 10.13 28.31 9 28.31Z" fill="#FF3F3A" fill-opacity="1.000000" fill-rule="nonzero"/>
    <path id="Vector" d="M39 22.31C36.82 22.31 35.06 24.07 35.06 26.25C35.06 28.42 36.82 30.18 39 30.18C41.17 30.18 42.93 28.42 42.93 26.25C42.93 24.07 41.17 22.31 39 22.31ZM39 28.31C37.86 28.31 36.93 27.38 36.93 26.25C36.93 25.11 37.86 24.18 39 24.18C40.13 24.18 41.06 25.11 41.06 26.25C41.06 27.38 40.13 28.31 39 28.31Z" fill="#FF3F3A" fill-opacity="1.000000" fill-rule="nonzero"/>
    <path id="Vector" d="M29 22.31C26.82 22.31 25.06 24.07 25.06 26.25C25.06 28.42 26.82 30.18 29 30.18C31.17 30.18 32.93 28.42 32.93 26.25C32.93 24.07 31.17 22.31 29 22.31ZM29 28.31C27.86 28.31 26.93 27.38 26.93 26.25C26.93 25.11 27.86 24.18 29 24.18C30.13 24.18 31.06 25.11 31.06 26.25C31.06 27.38 30.13 28.31 29 28.31Z" fill="#FF3F3A" fill-opacity="1.000000" fill-rule="nonzero"/>
    <path id="Vector" d="M18.99 22.31C16.82 22.31 15.06 24.07 15.06 26.25C15.06 28.42 16.82 30.18 18.99 30.18C21.17 30.18 22.93 28.42 22.93 26.25C22.93 24.07 21.17 22.31 18.99 22.31ZM18.99 28.31C17.86 28.31 16.93 27.38 16.93 26.25C16.93 25.11 17.86 24.18 18.99 24.18C20.13 24.18 21.06 25.11 21.06 26.25C21.06 27.38 20.13 28.31 18.99 28.31Z" fill="#FF3F3A" fill-opacity="1.000000" fill-rule="nonzero"/>
    <path id="Vector" d="M9 33.75C6.82 33.75 5.06 35.51 5.06 37.68C5.06 39.85 6.82 41.62 9 41.62C11.17 41.62 12.93 39.85 12.93 37.68C12.93 35.51 11.17 33.75 9 33.75ZM9 39.75C7.86 39.75 6.93 38.82 6.93 37.68C6.93 36.54 7.86 35.62 9 35.62C10.13 35.62 11.06 36.54 11.06 37.68C11.06 38.82 10.13 39.75 9 39.75Z" fill="#FF3F3A" fill-opacity="1.000000" fill-rule="nonzero"/>
    <path id="Vector" d="M29 33.75C26.82 33.75 25.06 35.51 25.06 37.68C25.06 39.85 26.82 41.62 29 41.62C31.17 41.62 32.93 39.85 32.93 37.68C32.93 35.51 31.17 33.75 29 33.75ZM29 39.75C27.86 39.75 26.93 38.82 26.93 37.68C26.93 36.54 27.86 35.62 29 35.62C30.13 35.62 31.06 36.54 31.06 37.68C31.06 38.82 30.13 39.75 29 39.75Z" fill="#FF3F3A" fill-opacity="1.000000" fill-rule="nonzero"/>
    <path id="Vector" d="M39 33.75C36.82 33.75 35.06 35.51 35.06 37.68C35.06 39.85 36.82 41.62 39 41.62C41.17 41.62 42.93 39.85 42.93 37.68C42.93 35.51 41.17 33.75 39 33.75ZM39 39.75C37.86 39.75 36.93 38.82 36.93 37.68C36.93 36.54 37.86 35.62 39 35.62C40.13 35.62 41.06 36.54 41.06 37.68C41.06 38.82 40.13 39.75 39 39.75Z" fill="#FF3F3A" fill-opacity="1.000000" fill-rule="nonzero"/>
    <path id="Vector" d="M18.99 33.75C16.82 33.75 15.06 35.51 15.06 37.68C15.06 39.85 16.82 41.62 18.99 41.62C21.17 41.62 22.93 39.85 22.93 37.68C22.93 35.51 21.17 33.75 18.99 33.75ZM18.99 39.75C17.86 39.75 16.93 38.82 16.93 37.68C16.93 36.54 17.86 35.62 18.99 35.62C20.13 35.62 21.06 36.54 21.06 37.68C21.06 38.82 20.13 39.75 18.99 39.75Z" fill="#FF3F3A" fill-opacity="1.000000" fill-rule="nonzero"/>
    <path id="Vector" d="M24.66 44.52C24.48 44.35 24.24 44.25 24 44.25C23.75 44.25 23.51 44.35 23.33 44.52C23.16 44.69 23.06 44.94 23.06 45.18C23.06 45.43 23.16 45.67 23.33 45.85C23.51 46.02 23.75 46.12 24 46.12C24.24 46.12 24.48 46.02 24.66 45.85C24.83 45.67 24.93 45.43 24.93 45.18C24.93 44.94 24.83 44.69 24.66 44.52Z" fill="#FF3F3A" fill-opacity="1.000000" fill-rule="nonzero"/>
  </g>
</svg>
