<svg width="48.000000" height="48.000000" viewBox="0 0 48 48" fill="none"
  xmlns="http://www.w3.org/2000/svg"
  xmlns:xlink="http://www.w3.org/1999/xlink">
  <desc>
			Created with Pixso.
  </desc>
  <defs>
    <clipPath id="clip136_1201">
      <rect id="ic-chat" width="48.000000" height="48.000000" fill="white" fill-opacity="0"/>
    </clipPath>
  </defs>
  <g clip-path="url(#clip136_1201)">
    <path id="Vector" d="M45.34 26.44C47.08 23.69 47.99 20.52 47.99 17.25C47.99 7.73 40.26 0 30.75 0C27.56 0 24.45 0.87 21.74 2.53C21.3 2.8 21.16 3.37 21.43 3.82C21.7 4.26 22.28 4.4 22.72 4.13C25.13 2.65 27.9 1.87 30.75 1.87C39.22 1.87 46.12 8.77 46.12 17.25C46.12 20.32 45.22 23.29 43.5 25.83C43.28 26.16 43.3 26.6 43.53 26.91L44.56 30.75L40.43 29.64C40.16 29.57 39.88 29.62 39.65 29.78C37.04 31.64 33.96 32.62 30.75 32.62C28.91 32.62 27.12 32.3 25.42 31.67C24.22 27.25 20.74 23.77 16.32 22.57C15.69 20.87 15.37 19.08 15.37 17.25C15.37 14.37 16.17 11.57 17.67 9.15C17.95 8.71 17.81 8.13 17.37 7.86C16.93 7.58 16.35 7.72 16.08 8.16C14.39 10.88 13.5 14.02 13.5 17.25C13.5 18.93 13.74 20.59 14.21 22.18C13.79 22.14 13.37 22.12 12.93 22.12C5.8 22.12 0 27.92 0 35.06C0 37.62 0.74 40.08 2.14 42.19L1.14 45.94C1.05 46.26 1.14 46.61 1.38 46.84C1.62 47.08 1.96 47.17 2.28 47.09L6.12 46.06C8.17 47.33 10.51 48 12.93 48C15.4 48 17.79 47.3 19.86 45.98C20.3 45.71 20.43 45.13 20.15 44.69C19.87 44.25 19.29 44.12 18.86 44.4C17.09 45.53 15.04 46.12 12.93 46.12C10.74 46.12 8.62 45.48 6.8 44.27C6.58 44.12 6.3 44.07 6.04 44.14L3.37 44.86L4.06 42.26C4.14 41.99 4.08 41.7 3.92 41.47C2.58 39.59 1.87 37.38 1.87 35.06C1.87 28.96 6.83 24 12.93 24C19.03 24 24 28.96 24 35.06C24 36.36 23.77 37.64 23.33 38.85C23.15 39.33 23.4 39.87 23.89 40.05C24.38 40.23 24.91 39.98 25.09 39.49C25.61 38.07 25.87 36.58 25.87 35.06C25.87 34.62 25.85 34.2 25.81 33.78C27.4 34.25 29.06 34.5 30.75 34.5C34.2 34.5 37.52 33.48 40.37 31.56L45.64 32.98C45.96 33.06 46.31 32.97 46.55 32.73C46.78 32.5 46.88 32.15 46.79 31.83L45.34 26.44Z" fill="#FF3F3A" fill-opacity="1.000000" fill-rule="nonzero"/>
    <path id="Vector" d="M35.58 19.24L26.03 19.24C25.51 19.24 25.09 19.66 25.09 20.18C25.09 23.33 27.65 25.89 30.8 25.89C33.95 25.89 36.52 23.33 36.52 20.18C36.52 19.66 36.1 19.24 35.58 19.24ZM30.8 24.02C29.01 24.02 27.5 22.78 27.08 21.12L34.52 21.12C34.1 22.78 32.6 24.02 30.8 24.02Z" fill="#FF3F3A" fill-opacity="1.000000" fill-rule="nonzero"/>
    <path id="Vector" d="M38.1 14.04C37.83 13.6 37.25 13.46 36.81 13.73L36.69 13.81C36.25 14.08 36.11 14.66 36.39 15.1C36.56 15.39 36.87 15.54 37.18 15.54C37.35 15.54 37.52 15.5 37.68 15.4L37.8 15.33C38.24 15.06 38.37 14.48 38.1 14.04Z" fill="#FF3F3A" fill-opacity="1.000000" fill-rule="nonzero"/>
    <path id="Vector" d="M25.22 14.04C24.95 13.6 24.37 13.46 23.93 13.73L23.81 13.81C23.37 14.08 23.23 14.66 23.5 15.1C23.68 15.39 23.99 15.54 24.3 15.54C24.47 15.54 24.64 15.5 24.8 15.4L24.92 15.33C25.36 15.06 25.49 14.48 25.22 14.04Z" fill="#FF3F3A" fill-opacity="1.000000" fill-rule="nonzero"/>
    <path id="Vector" d="M8.44 34.39C8.26 34.22 8.02 34.12 7.78 34.12C7.53 34.12 7.29 34.22 7.11 34.39C6.94 34.57 6.84 34.81 6.84 35.06C6.84 35.3 6.94 35.55 7.11 35.72C7.29 35.89 7.53 36 7.78 36C8.02 36 8.26 35.89 8.44 35.72C8.61 35.55 8.71 35.3 8.71 35.06C8.71 34.81 8.61 34.57 8.44 34.39Z" fill="#FF3F3A" fill-opacity="1.000000" fill-rule="nonzero"/>
    <path id="Vector" d="M13.59 34.39C13.42 34.22 13.18 34.12 12.93 34.12C12.68 34.12 12.44 34.22 12.27 34.39C12.09 34.57 11.99 34.81 11.99 35.06C11.99 35.3 12.09 35.55 12.27 35.72C12.44 35.89 12.68 36 12.93 36C13.18 36 13.42 35.89 13.59 35.72C13.77 35.55 13.87 35.3 13.87 35.06C13.87 34.81 13.77 34.57 13.59 34.39Z" fill="#FF3F3A" fill-opacity="1.000000" fill-rule="nonzero"/>
    <path id="Vector" d="M18.75 34.39C18.58 34.22 18.34 34.12 18.09 34.12C17.84 34.12 17.6 34.22 17.43 34.39C17.25 34.57 17.15 34.81 17.15 35.06C17.15 35.3 17.25 35.55 17.43 35.72C17.6 35.89 17.84 36 18.09 36C18.34 36 18.58 35.89 18.75 35.72C18.93 35.55 19.03 35.3 19.03 35.06C19.03 34.81 18.93 34.57 18.75 34.39Z" fill="#FF3F3A" fill-opacity="1.000000" fill-rule="nonzero"/>
    <path id="Vector" d="M22.95 41.91C22.77 41.74 22.53 41.64 22.29 41.64C22.04 41.64 21.8 41.74 21.62 41.91C21.45 42.09 21.35 42.33 21.35 42.58C21.35 42.82 21.45 43.06 21.62 43.24C21.8 43.41 22.04 43.51 22.29 43.51C22.53 43.51 22.77 43.41 22.95 43.24C23.12 43.06 23.22 42.82 23.22 42.58C23.22 42.33 23.12 42.09 22.95 41.91Z" fill="#FF3F3A" fill-opacity="1.000000" fill-rule="nonzero"/>
    <path id="Vector" d="M19.9 5.02C19.73 4.84 19.49 4.74 19.24 4.74C18.99 4.74 18.75 4.84 18.58 5.02C18.4 5.19 18.3 5.43 18.3 5.68C18.3 5.93 18.4 6.17 18.58 6.34C18.75 6.52 18.99 6.62 19.24 6.62C19.49 6.62 19.73 6.52 19.9 6.34C20.08 6.17 20.18 5.93 20.18 5.68C20.18 5.43 20.08 5.19 19.9 5.02Z" fill="#FF3F3A" fill-opacity="1.000000" fill-rule="nonzero"/>
  </g>
</svg>
