<svg width="19.000000" height="19.000000" viewBox="0 0 19 19" fill="none"
  xmlns="http://www.w3.org/2000/svg"
  xmlns:xlink="http://www.w3.org/1999/xlink">
  <desc>
			Created with Pixso.
  </desc>
  <defs/>
  <path id="Vector" d="M1.91 -0.17C0.76 -0.17 -0.17 0.76 -0.17 1.91L-0.17 6.08C-0.17 7.23 0.76 8.16 1.91 8.16L16.08 8.16C17.23 8.16 18.16 7.23 18.16 6.08L18.16 1.91C18.16 0.76 17.23 -0.17 16.08 -0.17L1.91 -0.17ZM1.5 1.91C1.5 1.68 1.68 1.5 1.91 1.5L16.08 1.5C16.31 1.5 16.5 1.68 16.5 1.91L16.5 6.08C16.5 6.31 16.31 6.5 16.08 6.5L1.91 6.5C1.68 6.5 1.5 6.31 1.5 6.08L1.5 1.91ZM1.91 9.83C0.76 9.83 -0.17 10.76 -0.17 11.91L-0.17 16.08C-0.17 17.23 0.76 18.16 1.91 18.16L16.08 18.16C17.23 18.16 18.16 17.23 18.16 16.08L18.16 11.91C18.16 10.76 17.23 9.83 16.08 9.83L1.91 9.83ZM1.5 11.91C1.5 11.68 1.68 11.5 1.91 11.5L16.08 11.5C16.31 11.5 16.5 11.68 16.5 11.91L16.5 16.08C16.5 16.31 16.31 16.5 16.08 16.5L1.91 16.5C1.68 16.5 1.5 16.31 1.5 16.08L1.5 11.91Z" fill="#FF3F3A" fill-opacity="1.000000" fill-rule="evenodd"/>
</svg>
