<svg width="19.000000" height="19.000000" viewBox="0 0 19 19" fill="none"
  xmlns="http://www.w3.org/2000/svg"
  xmlns:xlink="http://www.w3.org/1999/xlink">
  <desc>
			Created with Pixso.
  </desc>
  <defs/>
  <path id="Vector" d="M1.91 -0.17C0.76 -0.17 -0.17 0.76 -0.17 1.91L-0.17 6.08C-0.17 7.23 0.76 8.16 1.91 8.16L6.08 8.16C7.23 8.16 8.16 7.23 8.16 6.08L8.16 1.91C8.16 0.76 7.23 -0.17 6.08 -0.17L1.91 -0.17ZM9.83 1.91C9.83 0.76 10.76 -0.17 11.91 -0.17L16.08 -0.17C17.23 -0.17 18.16 0.76 18.16 1.91L18.16 6.08C18.16 7.23 17.23 8.16 16.08 8.16L11.91 8.16C10.76 8.16 9.83 7.23 9.83 6.08L9.83 1.91ZM1.5 1.91C1.5 1.68 1.68 1.5 1.91 1.5L6.08 1.5C6.31 1.5 6.5 1.68 6.5 1.91L6.5 6.08C6.5 6.31 6.31 6.5 6.08 6.5L1.91 6.5C1.68 6.5 1.5 6.31 1.5 6.08L1.5 1.91ZM11.91 1.5C11.68 1.5 11.5 1.68 11.5 1.91L11.5 6.08C11.5 6.31 11.68 6.5 11.91 6.5L16.08 6.5C16.31 6.5 16.5 6.31 16.5 6.08L16.5 1.91C16.5 1.68 16.31 1.5 16.08 1.5L11.91 1.5ZM1.91 9.83C0.76 9.83 -0.17 10.76 -0.17 11.91L-0.17 16.08C-0.17 17.23 0.76 18.16 1.91 18.16L6.08 18.16C7.23 18.16 8.16 17.23 8.16 16.08L8.16 11.91C8.16 10.76 7.23 9.83 6.08 9.83L1.91 9.83ZM11.91 9.83C10.76 9.83 9.83 10.76 9.83 11.91L9.83 16.08C9.83 17.23 10.76 18.16 11.91 18.16L16.08 18.16C17.23 18.16 18.16 17.23 18.16 16.08L18.16 11.91C18.16 10.76 17.23 9.83 16.08 9.83L11.91 9.83ZM1.5 11.91C1.5 11.68 1.68 11.5 1.91 11.5L6.08 11.5C6.31 11.5 6.5 11.68 6.5 11.91L6.5 16.08C6.5 16.31 6.31 16.5 6.08 16.5L1.91 16.5C1.68 16.5 1.5 16.31 1.5 16.08L1.5 11.91ZM11.5 11.91C11.5 11.68 11.68 11.5 11.91 11.5L16.08 11.5C16.31 11.5 16.5 11.68 16.5 11.91L16.5 16.08C16.5 16.31 16.31 16.5 16.08 16.5L11.91 16.5C11.68 16.5 11.5 16.31 11.5 16.08L11.5 11.91Z" fill="#424551" fill-opacity="1.000000" fill-rule="evenodd"/>
</svg>
