<svg width="15.170898" height="13.328125" viewBox="0 0 15.1709 13.3281" fill="none"
  xmlns="http://www.w3.org/2000/svg"
  xmlns:xlink="http://www.w3.org/1999/xlink">
  <desc>
			Created with Pixso.
  </desc>
  <defs/>
  <path id="Vector (Stroke)" d="M7.58496 11.8027C4.51904 10.0566 2.80908 8.32031 1.98242 6.81445C1.13574 5.27344 1.20947 3.97461 1.6792 3.05469C2.64453 1.16016 5.38965 0.554688 7.06201 2.66992L7.58496 3.33203L8.10791 2.66992C9.78076 0.554688 12.5264 1.16016 13.4912 3.05469C13.9609 3.97461 14.0347 5.27344 13.1885 6.81445C12.3613 8.32031 10.6514 10.0566 7.58496 11.8027ZM7.58545 1.26758C5.23242 -0.966797 1.76172 -0.0429688 0.491211 2.44922C-0.205566 3.81641 -0.215332 5.58398 0.813477 7.45703C1.83301 9.3125 3.86572 11.2734 7.2627 13.1504L7.58496 13.3281L7.90771 13.1504C11.3052 11.2734 13.3379 9.3125 14.3574 7.45703C15.3857 5.58398 15.3765 3.81641 14.6792 2.44922C13.4092 -0.0429688 9.93799 -0.966797 7.58545 1.26758Z" fill="#FF3F3A" fill-opacity="1.000000" fill-rule="evenodd"/>
</svg>
