<svg width="24.000000" height="24.000000" viewBox="0 0 24 24" fill="none" xmlns="http://www.w3.org/2000/svg" xmlns:xlink="http://www.w3.org/1999/xlink">
	<desc>
			Created with Pixso.
	</desc>
	<defs>
		<clipPath id="clip2492_17700">
			<rect id="Linked-In" width="24.000000" height="24.000000" fill="white" fill-opacity="0"/>
		</clipPath>
	</defs>
	<g clip-path="url(#clip2492_17700)">
		<path id="Vector" d="M2 4.40234C2 3.07617 3.07593 2 4.40161 2C5.72656 2 6.80249 3.07617 6.80322 4.40234C6.80322 5.72656 5.72754 6.82617 4.40161 6.82617C3.07593 6.82617 2 5.72656 2 4.40234ZM21.9951 22L22 22L22 14.6641C22 11.0762 21.2275 8.3125 17.0325 8.3125C15.0159 8.3125 13.6626 9.41797 13.1101 10.4668L13.0518 10.4668L13.0518 8.64648L9.07422 8.64648L9.07422 22L13.2158 22L13.2158 15.3867C13.2158 13.6465 13.5459 11.9629 15.7017 11.9629C17.8259 11.9629 17.8574 13.9492 17.8574 15.5L17.8574 22L21.9951 22ZM2.33008 8.64844L6.47656 8.64844L6.47656 22L2.33008 22L2.33008 8.64844Z" fill="#FF3F3A" fill-opacity="1.000000" fill-rule="evenodd"/>
	</g>
</svg>
