<svg width="48.000000" height="48.000000" viewBox="0 0 48 48" fill="none"
  xmlns="http://www.w3.org/2000/svg"
  xmlns:xlink="http://www.w3.org/1999/xlink">
  <desc>
			Created with Pixso.
  </desc>
  <defs>
    <clipPath id="clip136_1244">
      <rect id="ic-structure" width="48.000000" height="48.000000" fill="white" fill-opacity="0"/>
    </clipPath>
  </defs>
  <g clip-path="url(#clip136_1244)">
    <path id="Vector" d="M32.8 23.61C32.62 23.44 32.38 23.34 32.13 23.34C31.89 23.34 31.65 23.44 31.47 23.61C31.3 23.79 31.2 24.03 31.2 24.28C31.2 24.52 31.3 24.76 31.47 24.94C31.65 25.11 31.89 25.21 32.13 25.21C32.38 25.21 32.62 25.11 32.8 24.94C32.97 24.76 33.07 24.52 33.07 24.28C33.07 24.03 32.97 23.79 32.8 23.61Z" fill="#FF3F3A" fill-opacity="1.000000" fill-rule="nonzero"/>
    <path id="Vector" d="M38.98 2.54L8.99 2.54C8.47 2.54 8.05 2.96 8.05 3.47L8.05 18.47C8.05 18.98 8.47 19.4 8.99 19.4L23.05 19.4L23.05 23.34L7.04 23.34C6.52 23.34 6.1 23.76 6.1 24.28L6.1 31.58L0.93 31.58C0.41 31.58 0 32 0 32.52L0 44.52C0 45.03 0.41 45.45 0.93 45.45L12.93 45.45C13.44 45.45 13.86 45.03 13.86 44.52L13.86 32.52C13.86 32 13.44 31.58 12.93 31.58L7.98 31.58L7.98 25.21L23.05 25.21L23.05 31.58L18 31.58C17.48 31.58 17.06 32 17.06 32.52L17.06 44.52C17.06 45.03 17.48 45.45 18 45.45L29.99 45.45C30.51 45.45 30.93 45.03 30.93 44.52L30.93 32.52C30.93 32 30.51 31.58 29.99 31.58L24.92 31.58L24.92 25.21L28.67 25.21C29.19 25.21 29.61 24.79 29.61 24.28C29.61 23.76 29.19 23.34 28.67 23.34L24.92 23.34L24.92 19.4L38.98 19.4C39.49 19.4 39.91 18.98 39.91 18.47L39.91 3.47C39.91 2.96 39.49 2.54 38.98 2.54ZM11.99 33.46L11.99 43.58L1.87 43.58L1.87 33.46L11.99 33.46ZM29.06 33.46L29.06 43.58L18.93 43.58L18.93 33.46L29.06 33.46ZM38.04 17.53L9.93 17.53L9.93 8.16L16.28 8.16C16.79 8.16 17.21 7.74 17.21 7.22C17.21 6.7 16.79 6.29 16.28 6.29L9.93 6.29L9.93 4.41L38.04 4.41L38.04 17.53L38.04 17.53Z" fill="#FF3F3A" fill-opacity="1.000000" fill-rule="nonzero"/>
    <path id="Vector" d="M47.06 31.58L41.87 31.58L41.87 24.28C41.87 23.76 41.45 23.34 40.93 23.34L35.79 23.34C35.27 23.34 34.85 23.76 34.85 24.28C34.85 24.79 35.27 25.21 35.79 25.21L39.99 25.21L39.99 31.58L35.06 31.58C34.55 31.58 34.13 32 34.13 32.52L34.13 44.52C34.13 45.03 34.55 45.45 35.06 45.45L47.06 45.45C47.58 45.45 48 45.03 48 44.52L48 32.52C48 32 47.58 31.58 47.06 31.58ZM46.12 43.58L36 43.58L36 33.46L46.12 33.46L46.12 43.58Z" fill="#FF3F3A" fill-opacity="1.000000" fill-rule="nonzero"/>
    <path id="Vector" d="M20.88 6.56C20.71 6.39 20.46 6.29 20.22 6.29C19.97 6.29 19.73 6.39 19.55 6.56C19.38 6.73 19.28 6.98 19.28 7.22C19.28 7.47 19.38 7.71 19.55 7.88C19.73 8.06 19.97 8.16 20.22 8.16C20.46 8.16 20.7 8.06 20.88 7.88C21.05 7.71 21.15 7.47 21.15 7.22C21.15 6.98 21.05 6.73 20.88 6.56Z" fill="#FF3F3A" fill-opacity="1.000000" fill-rule="nonzero"/>
  </g>
</svg>
