<svg width="525.000000" height="620.000000" viewBox="0 0 525 620" fill="none"
  xmlns="http://www.w3.org/2000/svg"
  xmlns:xlink="http://www.w3.org/1999/xlink">
  <desc>
			Created with Pixso.
  </desc>
  <defs/>
  <rect id="illustration" width="525.000000" height="620.000000" fill="#FFFFFF" fill-opacity="0"/>
  <path id="Vector" d="M522.28 619.21L357.62 619.67C337.43 619.89 315.99 620 293.75 620C239.63 620 190.15 619.29 152.32 618.13L0 618.13C0 575.95 29.61 594.48 37.41 601.93C46.49 610.58 34.8 564.52 53.34 564.52C69.21 564.52 78.29 577.02 78.29 577.02C78.29 577.02 78.72 552.71 93.76 552.36C108.81 552.01 118.36 572.8 130.23 589.9C135.13 596.95 141.03 602.56 146.6 606.83C185.11 605.56 236.85 604.77 293.75 604.77C320.71 604.77 346.5 604.95 370.28 605.28C412.55 605.28 451.26 570.43 462.24 561.69C489.36 540.05 476.51 591.63 476.51 591.63C476.51 591.63 497.42 577.84 512.13 577.94C532.9 578.08 522.28 619.21 522.28 619.21Z" fill="#D0F0E4" fill-opacity="1.000000" fill-rule="nonzero"/>
  <path id="Vector (Stroke)" d="M351.7 539.47L352.52 539.84C373.86 549.39 382.86 569.01 386.53 586.12C388.36 594.69 388.87 602.65 388.92 608.48C388.95 611.39 388.86 613.77 388.77 615.42C388.72 616.25 388.67 616.89 388.63 617.33C388.61 617.55 388.6 617.72 388.58 617.84C388.58 617.89 388.57 617.94 388.57 617.97L388.57 618L388.57 618.01L388.57 618.01C388.57 618.01 388.57 618.01 387.92 617.94C387.27 617.87 387.27 617.87 387.27 617.87L387.27 617.86L387.27 617.86L387.28 617.83C387.28 617.8 387.28 617.76 387.29 617.71C387.3 617.6 387.31 617.43 387.33 617.22C387.37 616.79 387.42 616.16 387.46 615.34C387.56 613.72 387.65 611.37 387.62 608.49C387.57 602.73 387.06 594.85 385.25 586.4C381.67 569.71 373.02 550.86 352.82 541.42C352.78 541.87 352.73 542.47 352.68 543.22C352.55 544.95 352.39 547.42 352.26 550.37C352.01 556.27 351.89 564.09 352.43 571.77C352.79 576.94 353.44 582.03 354.54 586.41C357.58 587.61 360.22 588.95 362.4 590.3C365.78 592.39 368.13 594.57 369.12 596.4C369.62 597.32 369.84 598.28 369.49 599.12C369.13 599.99 368.28 600.48 367.2 600.7L367.19 600.7C364.39 601.26 362.01 600.68 360.01 599.22C358.04 597.79 356.5 595.52 355.29 592.77C354.57 591.15 353.97 589.33 353.45 587.39C347.54 585.13 340.13 583.38 331.64 583.04C331.74 583.19 331.84 583.35 331.95 583.53C332.58 584.5 333.5 585.89 334.68 587.56C337.05 590.9 340.48 595.36 344.7 599.83C353.17 608.81 364.71 617.69 377.27 617.94L377.24 619.25C364.13 618.99 352.27 609.76 343.75 600.73C339.48 596.21 336.02 591.7 333.62 588.32C332.42 586.63 331.49 585.23 330.86 584.24C330.54 583.75 330.3 583.36 330.14 583.09C330.06 582.96 330 582.86 329.95 582.79C329.93 582.76 329.92 582.73 329.91 582.71L329.89 582.69L329.89 582.68C329.89 582.68 329.89 582.68 330.45 582.35L329.89 582.68L329.29 581.66L330.46 581.69C339.2 581.9 346.88 583.58 353.07 585.84C352.07 581.55 351.47 576.72 351.13 571.86C350.59 564.11 350.71 556.24 350.96 550.31C351.09 547.34 351.25 544.86 351.38 543.12C351.44 542.25 351.5 541.56 351.54 541.09C351.56 540.86 351.58 540.68 351.59 540.56C351.6 540.5 351.6 540.45 351.6 540.42L351.61 540.39L351.61 540.37C351.61 540.37 351.61 540.37 352.26 540.44L351.61 540.37L351.7 539.47ZM354.97 588C355.41 589.52 355.91 590.94 356.48 592.24C357.64 594.88 359.06 596.91 360.78 598.16C362.47 599.4 364.49 599.9 366.94 599.41C367.82 599.24 368.17 598.9 368.29 598.62C368.42 598.31 368.39 597.8 367.98 597.03C367.15 595.5 365.03 593.47 361.72 591.42C359.82 590.24 357.56 589.07 354.97 588Z" fill="#FFCF2D" fill-opacity="1.000000" fill-rule="evenodd"/>
  <path id="Vector (Stroke)" d="M409.49 583.13C408.56 583.23 407.39 583.49 405.95 583.96C393.17 588.07 386.18 596.71 382.39 604.34C380.49 608.17 379.39 611.73 378.76 614.34C378.45 615.64 378.25 616.71 378.14 617.44C378.08 617.81 378.04 618.09 378.02 618.28C378.01 618.38 378 618.45 378 618.5C377.99 618.52 377.99 618.54 377.99 618.55L377.99 618.57L377.99 618.57L377.99 618.57C377.99 618.57 377.99 618.57 377.34 618.51C376.69 618.45 376.69 618.45 376.69 618.45L376.69 618.45L376.69 618.44L376.69 618.43C376.7 618.41 376.7 618.39 376.7 618.36C376.71 618.31 376.72 618.23 376.73 618.12C376.75 617.92 376.79 617.62 376.85 617.24C376.97 616.47 377.17 615.37 377.49 614.03C378.14 611.35 379.27 607.69 381.22 603.76C385.13 595.89 392.35 586.95 405.55 582.71L405.55 582.71C407.04 582.23 408.3 581.94 409.35 581.83C410.39 581.72 411.27 581.78 411.96 582.04C412.68 582.32 413.19 582.81 413.45 583.49C413.69 584.14 413.69 584.89 413.54 585.68C413.24 587.24 412.32 589.18 411.05 591.29C409.77 593.41 408.11 595.77 406.27 598.17C402.58 602.98 398.17 608.02 394.68 611.84C392.94 613.76 391.43 615.38 390.35 616.51C389.81 617.08 389.38 617.53 389.08 617.84C388.93 617.99 388.82 618.11 388.74 618.19C388.7 618.23 388.67 618.26 388.65 618.28L388.62 618.31C388.62 618.31 388.62 618.31 388.16 617.85C387.69 617.39 387.69 617.39 387.69 617.39L387.72 617.36C387.74 617.34 387.77 617.31 387.81 617.27C387.88 617.19 388 617.08 388.14 616.93C388.44 616.62 388.87 616.17 389.4 615.61C390.48 614.48 391.99 612.87 393.72 610.96C397.2 607.14 401.58 602.13 405.23 597.37C407.06 594.99 408.69 592.68 409.93 590.61C411.19 588.53 412 586.75 412.26 585.43C412.38 584.77 412.35 584.29 412.23 583.96C412.11 583.65 411.9 583.42 411.5 583.27C411.07 583.1 410.42 583.03 409.49 583.13Z" fill="#FFCF2D" fill-opacity="1.000000" fill-rule="evenodd"/>
  <path id="Vector (Stroke)" d="M129.68 514.94L129.23 515.25C129.68 514.94 129.68 514.94 129.68 514.94L129.68 514.94L129.68 514.94L129.69 514.95C129.69 514.96 129.7 514.97 129.71 514.98C129.73 515.01 129.75 515.05 129.78 515.09C129.84 515.19 129.92 515.34 130.03 515.53C130.25 515.92 130.55 516.52 130.92 517.35C131.65 519.03 132.62 521.67 133.62 525.56C135.56 533.1 137.6 545.34 138.16 564.39C138.63 563.6 139.27 562.54 140.05 561.29C141.85 558.41 144.37 554.47 147.29 550.23C153.11 541.78 160.56 532.08 166.96 527.32L167.88 526.63L167.83 527.78L167.29 527.76C167.83 527.78 167.83 527.78 167.83 527.78L167.83 527.81C167.83 527.83 167.83 527.86 167.82 527.89C167.82 527.97 167.82 528.07 167.81 528.22C167.79 528.5 167.77 528.92 167.74 529.46C167.67 530.53 167.57 532.09 167.42 534.02C167.11 537.88 166.61 543.23 165.83 549.19C164.35 560.39 161.88 573.79 157.79 583.46C157.98 583.34 158.19 583.21 158.42 583.08C159.8 582.26 161.75 581.27 163.99 580.61C168.47 579.27 174.19 579.2 178.79 584.43C181.12 587.08 181.72 590.04 181.32 592.97C180.92 595.87 179.54 598.73 177.91 601.22C176.28 603.73 174.37 605.9 172.87 607.45C172.12 608.23 171.47 608.85 171.01 609.27C170.78 609.49 170.59 609.65 170.47 609.77C170.4 609.82 170.35 609.86 170.32 609.89C170.3 609.91 170.29 609.92 170.28 609.93L170.27 609.94L170.27 609.94C170.27 609.94 170.27 609.94 169.92 609.52C169.71 609.28 169.63 609.18 169.59 609.14L169.57 609.1L169.57 609.1L169.57 609.1L169.58 609.09C169.58 609.09 169.6 609.08 169.61 609.07C169.63 609.05 169.66 609.03 169.69 609C169.71 608.98 169.73 608.96 169.75 608.94C169.87 608.84 170.05 608.68 170.27 608.47C170.72 608.05 171.36 607.45 172.09 606.69C173.56 605.17 175.42 603.05 177 600.62C178.59 598.19 179.88 595.49 180.24 592.82C180.61 590.17 180.07 587.53 177.98 585.16C173.76 580.36 168.55 580.39 164.3 581.65C162.17 582.29 160.3 583.23 158.97 584.02C158.3 584.42 157.77 584.77 157.4 585.02C157.22 585.15 157.08 585.25 156.99 585.32C156.94 585.35 156.9 585.38 156.88 585.4C156.87 585.41 156.86 585.42 156.85 585.42L156.85 585.42L156.85 585.42L156.85 585.43L155.06 586.83L156.02 584.76C160.5 575.17 163.19 560.93 164.75 549.05C165.53 543.11 166.03 537.78 166.33 533.93C166.49 532.01 166.59 530.46 166.65 529.39C166.66 529.22 166.67 529.06 166.68 528.92C160.65 533.77 153.72 542.81 148.18 550.85C145.27 555.07 142.76 559 140.97 561.87C140.08 563.31 139.37 564.48 138.88 565.29C138.64 565.7 138.45 566.02 138.32 566.23C138.26 566.34 138.21 566.42 138.18 566.47L138.14 566.53L138.13 566.55L138.13 566.55C138.13 566.56 138.13 566.56 137.66 566.28L138.13 566.56L137.16 568.21L137.12 566.29C136.65 546.23 134.55 533.52 132.57 525.83C131.58 521.99 130.63 519.41 129.92 517.79C129.61 517.08 129.35 516.56 129.16 516.2C125.96 520.15 123.2 525.87 120.84 532.31C118.36 539.06 116.35 546.56 114.77 553.57C113.19 560.57 112.05 567.08 111.29 571.83C110.92 574.2 110.64 576.14 110.45 577.48C110.36 578.15 110.3 578.68 110.25 579.03C110.23 579.21 110.21 579.34 110.2 579.43C110.19 579.48 110.19 579.51 110.19 579.54L110.18 579.57C110.18 579.57 110.18 579.57 109.64 579.51L110.18 579.57L110.01 581.04L109.19 579.81C102.28 569.37 90.64 561.66 80.67 556.55C75.7 554 71.16 552.11 67.86 550.85C66.22 550.23 64.88 549.76 63.96 549.45C63.77 549.38 63.61 549.33 63.46 549.28C68.79 569.68 80.46 586.16 90.89 597.61C96.18 603.42 101.15 607.92 104.79 610.97C106.61 612.5 108.1 613.66 109.13 614.44C109.65 614.83 110.05 615.12 110.32 615.32C110.46 615.41 110.56 615.49 110.63 615.54C110.66 615.56 110.69 615.58 110.71 615.59L110.73 615.6L110.73 615.61L110.73 615.61C110.73 615.61 110.73 615.61 110.43 616.06C110.12 616.51 110.12 616.51 110.12 616.51L110.11 616.51L110.09 616.49C110.07 616.48 110.04 616.46 110.01 616.43C109.93 616.38 109.83 616.31 109.69 616.2C109.41 616.01 109 615.71 108.48 615.31C107.43 614.52 105.93 613.35 104.09 611.81C100.42 608.74 95.42 604.2 90.09 598.34C79.43 586.65 67.43 569.67 62.16 548.59L61.93 547.66L62.84 547.94L62.69 548.46C62.84 547.94 62.84 547.94 62.84 547.94L62.85 547.94L62.87 547.94C62.88 547.95 62.91 547.96 62.94 547.97C63 547.99 63.1 548.02 63.22 548.06C63.47 548.13 63.83 548.25 64.3 548.41C65.24 548.72 66.59 549.2 68.25 549.83C71.57 551.09 76.15 553.01 81.17 555.58C90.81 560.52 102.15 567.95 109.29 578.02C109.31 577.81 109.35 577.58 109.38 577.33C109.56 575.98 109.84 574.04 110.22 571.65C110.98 566.89 112.13 560.36 113.71 553.32C115.3 546.29 117.32 538.74 119.82 531.93C122.31 525.12 125.3 519.01 128.82 514.89L129.28 514.36L129.68 514.94Z" fill="#FE5244" fill-opacity="1.000000" fill-rule="evenodd"/>
  <path id="Vector (Stroke)" d="M128.71 516.68C128.71 516.68 128.71 516.68 129.25 516.67C129.8 516.67 129.8 516.67 129.8 516.67L129.8 516.92C129.8 517.09 129.8 517.34 129.8 517.66C129.8 518.3 129.81 519.25 129.81 520.46C129.81 522.88 129.81 526.34 129.79 530.54C129.77 538.93 129.69 550.23 129.49 561.89C129.29 573.55 128.96 585.57 128.44 595.39C128.18 600.29 127.87 604.65 127.5 608.15C127.13 611.63 126.7 614.3 126.18 615.78L125.16 615.42C125.63 614.07 126.05 611.52 126.42 608.03C126.79 604.57 127.1 600.23 127.36 595.33C127.88 585.53 128.2 573.53 128.4 561.87C128.6 550.22 128.68 538.92 128.71 530.53C128.72 526.34 128.72 522.87 128.72 520.46C128.72 519.25 128.72 518.3 128.72 517.66C128.72 517.34 128.71 517.09 128.71 516.93L128.71 516.68Z" fill="#FE5244" fill-opacity="1.000000" fill-rule="evenodd"/>
  <path id="Vector (Stroke)" d="M165.56 529.77C165.56 529.77 165.56 529.77 166.07 529.96C166.58 530.16 166.58 530.16 166.58 530.16L166.56 530.21C166.54 530.24 166.53 530.29 166.5 530.36C166.45 530.49 166.38 530.68 166.28 530.92C166.09 531.42 165.8 532.15 165.43 533.09C164.69 534.96 163.62 537.66 162.29 540.96C159.63 547.55 155.93 556.52 151.78 566.08C147.63 575.64 143.02 585.77 138.55 594.68C134.09 603.58 129.74 611.28 126.1 615.94L125.25 615.26C128.81 610.69 133.12 603.08 137.58 594.19C142.04 585.31 146.64 575.19 150.78 565.64C154.93 556.1 158.62 547.13 161.28 540.54C162.61 537.25 163.68 534.56 164.42 532.68C164.79 531.75 165.08 531.02 165.27 530.52C165.37 530.27 165.44 530.09 165.49 529.96C165.51 529.9 165.53 529.85 165.55 529.81L165.56 529.77Z" fill="#FE5244" fill-opacity="1.000000" fill-rule="evenodd"/>
  <path id="Vector (Stroke)" d="M148.86 591.2C147.91 592.41 147.57 593.42 147.8 594.19C147.94 594.63 148.11 594.76 148.2 594.8C148.31 594.84 148.51 594.85 148.85 594.7C149.55 594.37 150.46 593.53 151.41 592.36C152.36 591.22 153.29 589.83 154.05 588.51C154.62 587.52 155.08 586.59 155.37 585.84C154.5 586.4 153.62 586.99 152.77 587.62C151.2 588.78 149.8 590.02 148.86 591.2ZM156.21 585.32C158.24 584.09 160.08 583.16 161 582.82L160.62 581.79C159.08 582.37 155.33 584.37 152.13 586.74C150.53 587.93 149.03 589.23 148.01 590.52C147.02 591.79 146.36 593.19 146.76 594.51L146.77 594.52C146.95 595.12 147.28 595.6 147.79 595.81C148.3 596.02 148.83 595.91 149.31 595.69C150.24 595.26 151.28 594.24 152.25 593.06C153.24 591.86 154.21 590.42 154.99 589.06C155.77 587.71 156.39 586.39 156.65 585.44L156.21 585.32Z" fill="#FE5244" fill-opacity="1.000000" fill-rule="evenodd"/>
  <path id="Vector (Stroke)" d="M110.69 591.11C110.93 591.59 111.17 591.72 111.38 591.73L111.38 591.73C112.07 591.75 112.52 591.64 112.81 591.46C113.08 591.3 113.26 591.05 113.36 590.71C113.57 589.97 113.39 588.83 112.92 587.45C112.24 585.49 111.09 583.3 110.15 581.58C110.14 581.76 110.12 581.94 110.11 582.13C109.95 584.64 109.91 587.12 110.14 588.98C110.26 589.9 110.44 590.63 110.69 591.11ZM109.21 579.76L109.18 579.78C109.19 579.79 109.2 579.81 109.21 579.82C109.14 580.56 109.08 581.31 109.03 582.06C108.86 584.59 108.81 587.15 109.06 589.11C109.19 590.09 109.39 590.96 109.72 591.61C110.05 592.26 110.57 592.79 111.34 592.82C112.15 592.85 112.83 592.72 113.36 592.4C113.91 592.08 114.24 591.59 114.4 591.01C114.71 589.92 114.42 588.49 113.94 587.09C113.18 584.88 111.82 582.38 110.86 580.59C110.66 580.23 110.47 579.9 110.32 579.6C110.47 577.99 110.65 576.48 110.81 575.24C110.94 574.3 111.05 573.52 111.13 572.97C111.17 572.7 111.21 572.49 111.23 572.34C111.24 572.27 111.25 572.21 111.26 572.17L111.26 572.13L111.27 572.12C111.27 572.12 111.27 572.12 110.73 572.03C110.19 571.94 110.19 571.94 110.19 571.94L110.19 571.95L110.18 572C110.18 572.04 110.17 572.09 110.16 572.17C110.13 572.32 110.1 572.53 110.06 572.81C109.98 573.36 109.86 574.15 109.74 575.1C109.56 576.42 109.37 578.04 109.21 579.76Z" fill="#FE5244" fill-opacity="1.000000" fill-rule="evenodd"/>
  <path id="Vector" d="M284.34 544.07C269.57 551.34 270.96 565.32 270.83 574.69C270.67 584.69 251.74 589.91 251.74 589.91C256.77 573.93 253.19 557.47 253.19 557.47L284.34 544.07Z" fill="#A0505A" fill-opacity="1.000000" fill-rule="nonzero"/>
  <path id="Vector" d="M300 580.86L296.63 582.7L289.57 566.45C289.2 565.6 288.38 565.1 287.53 565.1C287.25 565.1 286.94 565.17 286.66 565.27C285.94 565.58 285.42 566.26 285.34 567.04L282.23 590.59L241.37 612.98C240.16 610.05 247.74 602.7 251.76 589.91C251.76 589.91 270.72 584.69 270.85 574.7C270.98 565.32 269.61 551.33 284.36 544.07L287.46 542.73C304.41 550.58 300 580.86 300 580.86Z" fill="#FFCF2D" fill-opacity="1.000000" fill-rule="nonzero"/>
  <path id="Vector" d="M287.44 427.39L287.44 542.73L253.65 557.49L228.32 441.68C239.66 442.12 258.56 439.72 287.44 427.39Z" fill="#FFFFFF" fill-opacity="1.000000" fill-rule="nonzero"/>
  <path id="Vector (Stroke)" d="M287.99 426.56L287.99 543.09L253.26 558.26L227.64 441.11L228.34 441.14C239.58 441.57 258.4 439.19 287.23 426.88L287.99 426.56ZM229 442.26L254.04 556.73L286.9 542.38L286.9 428.21C258.97 440.04 240.41 442.57 229 442.26Z" fill="#9A3B82" fill-opacity="1.000000" fill-rule="evenodd"/>
  <path id="Vector (Stroke)" d="M268.72 550.66L262.05 437.56L263.14 437.5L269.81 550.59L268.72 550.66Z" fill="#9A3B82" fill-opacity="1.000000" fill-rule="evenodd"/>
  <path id="Vector" d="M287.44 427.39L287.44 457.58L229.93 449.2L228.32 441.68C239.66 442.12 258.56 439.72 287.44 427.39Z" fill="#9A3B82" fill-opacity="1.000000" fill-rule="nonzero"/>
  <path id="Vector" d="M457.77 349.12L435.92 353.75C435.18 353.91 434.44 353.67 433.92 353.12C433.55 352.7 433.36 352.2 433.36 351.68C433.36 351.11 433.57 350.54 434.03 350.12L446.19 338.65L443.5 336.22C443.5 336.22 415.26 341.79 413.66 359.52L415.81 361.89C426.91 372.86 438.87 367.2 447.24 364.36C455.23 361.65 464.76 374.13 466.65 376.71C466.67 376.71 466.72 376.71 466.74 376.71C479.34 376.29 488.26 380.8 490.46 378.77L457.77 349.12Z" fill="#FFCF2D" fill-opacity="1.000000" fill-rule="nonzero"/>
  <path id="Vector" d="M415.83 361.89C426.93 372.86 438.89 367.2 447.26 364.36C456.16 361.34 466.78 376.71 466.78 376.71C451.01 377.21 437.57 385.63 437.57 385.63L415.83 361.89Z" fill="#A0505A" fill-opacity="1.000000" fill-rule="nonzero"/>
  <path id="Vector" d="M280.91 428.37C280.91 428.37 286.4 465.73 328.56 465.03C370.72 464.33 437.11 385.41 437.11 385.41L413.77 359.66L280.91 428.37Z" fill="#FFFFFF" fill-opacity="1.000000" fill-rule="nonzero"/>
  <path id="Vector (Stroke)" d="M413.89 358.98L437.84 385.4L437.53 385.77L437.11 385.41C437.53 385.77 437.53 385.77 437.53 385.77L437.52 385.78L437.48 385.82C437.45 385.86 437.4 385.92 437.33 385.99C437.21 386.14 437.02 386.36 436.77 386.66C436.27 387.24 435.54 388.09 434.58 389.17C432.68 391.33 429.92 394.42 426.48 398.13C419.59 405.54 409.96 415.44 399.01 425.37C388.06 435.29 375.78 445.24 363.59 452.77C351.41 460.28 339.25 465.4 328.57 465.58C307.3 465.93 295.22 456.67 288.48 447.28C285.12 442.6 283.1 437.9 281.91 434.37C281.32 432.61 280.93 431.13 280.7 430.1C280.58 429.58 280.5 429.17 280.44 428.89C280.42 428.75 280.4 428.64 280.39 428.57C280.38 428.53 280.38 428.5 280.37 428.48L280.37 428.46L280.37 428.45L280.37 428.45C280.37 428.45 280.37 428.45 280.91 428.37L280.37 428.45L280.31 428.06L413.89 358.98ZM281.51 428.67C281.51 428.68 281.51 428.68 281.51 428.69C281.56 428.96 281.64 429.35 281.75 429.85C281.98 430.86 282.36 432.3 282.94 434.02C284.1 437.48 286.08 442.07 289.36 446.65C295.91 455.77 307.66 464.84 328.55 464.49C338.94 464.32 350.89 459.31 363.02 451.83C375.14 444.36 387.36 434.45 398.28 424.55C409.2 414.66 418.81 404.78 425.68 397.38C429.12 393.68 431.88 390.6 433.77 388.44C434.72 387.36 435.45 386.52 435.95 385.94C436.13 385.73 436.27 385.56 436.39 385.42L413.64 360.33L281.51 428.67Z" fill="#9A3B82" fill-opacity="1.000000" fill-rule="evenodd"/>
  <path id="Vector (Stroke)" d="M357.48 430.73C348.99 434.85 340.71 437.43 333.17 437.55C323.09 437.72 316.31 435.47 311.87 431.85C307.42 428.24 305.38 423.32 304.67 418.3L305.75 418.15C306.43 422.97 308.37 427.61 312.55 431C316.73 434.4 323.23 436.62 333.16 436.46L333.16 436.46C340.47 436.34 348.59 433.83 357.01 429.74C365.43 425.65 374.13 420 382.6 413.63C399.56 400.9 415.58 385.33 426.67 373.77L427.45 374.53C416.34 386.1 400.27 401.72 383.25 414.51C374.74 420.9 365.99 426.6 357.48 430.73Z" fill="#9A3B82" fill-opacity="1.000000" fill-rule="evenodd"/>
  <path id="Vector" d="M464.91 283.44C461.07 281.98 451.93 287.01 445.04 295.75C437.63 305.13 434.64 315.1 437.89 317.7L333.58 261.86C328.45 259.13 322.54 263.81 324 269.45L355.58 389.87C248.61 459.74 214.31 438.8 214.31 438.8L214.31 43.09C214.31 43.11 214.31 43.11 214.34 43.13C215.25 45.47 225.04 43.83 236.23 39.43C246.52 35.41 254.39 30.47 254.89 27.89L254.91 27.87L254.91 152.55C254.91 160.38 259.1 167.57 265.88 171.4L464.91 283.44Z" fill="#FE5244" fill-opacity="1.000000" fill-rule="nonzero"/>
  <path id="Vector" d="M464.91 283.44C461.07 281.98 451.93 287.01 445.04 295.75C437.63 305.13 434.64 315.1 437.89 317.7L333.58 261.86C328.45 259.13 322.54 263.81 324 269.45L355.58 390.35C328.38 408.13 305.88 419.54 287.44 427.41C258.56 439.72 239.66 442.14 228.32 441.71C218.44 441.34 214.31 438.8 214.31 438.8L214.31 43.09C214.31 43.11 214.31 43.11 214.34 43.13C215.25 45.47 225.04 43.83 236.23 39.43C246.52 35.41 254.39 30.47 254.89 27.89L254.91 27.87L254.91 152.55C254.91 160.38 259.1 167.57 265.88 171.4L464.91 283.44Z" fill="#FE5244" fill-opacity="1.000000" fill-rule="nonzero"/>
  <path id="Vector (Stroke)" d="M314.71 251.85C314.89 251.53 315.28 251.41 315.6 251.58L438.2 318.53C438.52 318.7 438.64 319.1 438.47 319.42C438.29 319.73 437.9 319.85 437.58 319.68L314.98 252.74C314.66 252.56 314.54 252.17 314.71 251.85Z" fill="#FFFFFF" fill-opacity="1.000000" fill-rule="evenodd"/>
  <path id="Vector" d="M268.79 173.02L255.04 253.45L325.21 204.81L268.79 173.02Z" fill="#FFCF2D" fill-opacity="1.000000" fill-rule="nonzero"/>
  <path id="Vector (Stroke)" d="M268.9 172.37C269.25 172.43 269.49 172.77 269.43 173.13L255.94 252.03L324.84 204.27C325.14 204.06 325.55 204.13 325.75 204.43C325.95 204.73 325.88 205.14 325.58 205.35L254.13 254.87L268.14 172.91C268.21 172.55 268.54 172.31 268.9 172.37Z" fill="#FFFFFF" fill-opacity="1.000000" fill-rule="evenodd"/>
  <path id="Vector" d="M268.22 17.77L177.63 36.46C174.28 37.16 170.83 34.16 169.94 29.77C169.05 25.38 171.05 21.27 174.39 20.57L264.99 1.87L268.22 17.77Z" fill="#FFFFFF" fill-opacity="1.000000" fill-rule="nonzero"/>
  <path id="Vector (Stroke)" d="M265.41 1.23L268.86 18.19L177.74 37C177.74 37 177.74 37 177.74 37L265.41 1.23ZM177.74 37C175.87 37.39 174 36.74 172.51 35.44C171.02 34.14 169.88 32.19 169.41 29.88C168.49 25.33 170.53 20.82 174.28 20.03L174.28 20.03L265.41 1.23L177.74 37ZM264.56 2.52L174.5 21.1C174.5 21.1 174.5 21.1 174.5 21.1C171.57 21.72 169.61 25.42 170.47 29.66C170.9 31.75 171.93 33.49 173.22 34.61C174.51 35.74 176.05 36.23 177.52 35.93L177.52 35.93L267.58 17.34L264.56 2.52Z" fill="#3FB1B5" fill-opacity="1.000000" fill-rule="evenodd"/>
  <path id="Vector" d="M268.19 17.78C271.54 17.09 273.53 12.97 272.64 8.58C271.74 4.2 268.3 1.2 264.95 1.89C261.6 2.58 259.61 6.7 260.51 11.09C261.4 15.48 264.84 18.47 268.19 17.78Z" fill="#FFFFFF" fill-opacity="1.000000" fill-rule="nonzero"/>
  <path id="Vector (Stroke)" d="M261.63 5.34C260.88 6.89 260.62 8.89 261.04 10.98C261.46 13.07 262.49 14.8 263.78 15.93C265.07 17.05 266.6 17.55 268.08 17.25C269.56 16.94 270.77 15.88 271.51 14.33C272.26 12.79 272.53 10.78 272.1 8.7C271.68 6.61 270.65 4.87 269.36 3.75C268.07 2.62 266.54 2.12 265.06 2.43C263.59 2.73 262.38 3.8 261.63 5.34ZM260.65 4.86C261.51 3.08 262.97 1.74 264.84 1.36C266.72 0.97 268.58 1.62 270.07 2.92C271.56 4.22 272.7 6.17 273.17 8.48C273.64 10.78 273.35 13.03 272.49 14.81C271.63 16.59 270.17 17.93 268.3 18.32C266.42 18.71 264.56 18.05 263.07 16.75C261.58 15.46 260.44 13.5 259.98 11.2C259.51 8.9 259.79 6.65 260.65 4.86Z" fill="#3FB1B5" fill-opacity="1.000000" fill-rule="evenodd"/>
  <path id="Vector" d="M216.53 25.73C216.53 25.73 187.23 58.87 190.42 66.17C194.59 70.35 197.98 72.19 197.48 73.74C196.94 75.42 189.92 85.59 189.92 85.59L189.23 78.05L182.52 80.27C182.52 80.27 189.6 69.87 190.05 66.68C187.14 64.45 181.21 59.81 181.41 56.58C181.63 53.14 192.01 40.94 199.55 32.53L188.19 36.31L185.95 25.75L206.39 21.97L216.53 25.73Z" fill="#FE5244" fill-opacity="1.000000" fill-rule="nonzero"/>
  <path id="Vector" d="M212.55 27.17C215.96 27.17 218.72 24.39 218.72 20.96C218.72 17.53 215.96 14.75 212.55 14.75C209.15 14.75 206.39 17.53 206.39 20.96C206.39 24.39 209.15 27.17 212.55 27.17Z" fill="#FFFFFF" fill-opacity="1.000000" fill-rule="nonzero"/>
  <path id="Vector (Stroke)" d="M212.56 15.3C209.45 15.3 206.93 17.83 206.93 20.96C206.93 24.09 209.45 26.62 212.56 26.62C215.66 26.62 218.18 24.09 218.18 20.96C218.18 17.83 215.66 15.3 212.56 15.3ZM205.84 20.96C205.84 17.23 208.85 14.21 212.56 14.21C216.26 14.21 219.27 17.23 219.27 20.96C219.27 24.69 216.26 27.72 212.56 27.72C208.85 27.72 205.84 24.69 205.84 20.96Z" fill="#FE5244" fill-opacity="1.000000" fill-rule="evenodd"/>
  <path id="Vector" d="M254.89 27.89C254.39 30.47 246.53 35.41 236.23 39.43C225.04 43.81 215.25 45.47 214.34 43.13C214.34 43.11 214.34 43.11 214.31 43.08C213.53 40.72 221.83 35.32 232.95 30.97C244.14 26.6 253.93 24.94 254.84 27.28C254.91 27.45 254.93 27.65 254.89 27.89Z" fill="#9A3B82" fill-opacity="1.000000" fill-rule="nonzero"/>
  <path id="Vector" d="M247.35 9.53L246.15 26.89L245.59 35.2C242.87 36.64 239.68 38.08 236.23 39.44C230.36 41.73 224.89 43.26 220.87 43.9L220.87 28.02L237.36 24.61C237.36 24.61 238.27 18.69 240.01 13.73C241.72 8.74 247.35 9.53 247.35 9.53Z" fill="#A0505A" fill-opacity="1.000000" fill-rule="nonzero"/>
  <path id="Vector (Stroke)" d="M237.92 23.47C238.15 23.52 238.29 23.76 238.24 24C238.19 24.16 238.1 24.29 238.01 24.39C237.92 24.49 237.81 24.58 237.69 24.67C237.45 24.86 237.13 25.06 236.78 25.27C236.68 25.34 236.58 25.4 236.47 25.47C235.81 25.87 235.04 26.34 234.28 26.91C232.48 28.24 230.84 30.01 230.84 32.42C230.84 32.66 230.65 32.85 230.41 32.85C230.17 32.85 229.97 32.66 229.97 32.42C229.97 29.58 231.92 27.58 233.76 26.2C234.56 25.61 235.37 25.12 236.02 24.72C236.13 24.65 236.23 24.59 236.33 24.53C236.68 24.31 236.96 24.13 237.16 23.98C237.26 23.9 237.33 23.84 237.37 23.8C237.39 23.78 237.39 23.77 237.4 23.76C237.47 23.54 237.69 23.41 237.92 23.47Z" fill="#73325A" fill-opacity="1.000000" fill-rule="evenodd"/>
  <path id="Vector" d="M246.15 26.89L245.59 35.19C242.87 36.64 239.68 38.08 236.23 39.43C230.36 41.73 224.89 43.26 220.87 43.9L220.87 36.72C224.09 34.82 228.28 32.81 232.95 30.97C237.81 29.05 242.42 27.65 246.15 26.89Z" fill="#73325A" fill-opacity="1.000000" fill-rule="nonzero"/>
  <path id="Vector" d="M235.36 18.21L216.96 22.45C215.99 22.67 215.07 21.88 215.07 20.79L215.07 9.55C215.07 8.04 215.99 6.73 217.31 6.29L235.49 0.32C236.64 -0.05 237.79 0.87 237.79 2.16L237.79 14.97C237.77 16.52 236.77 17.88 235.36 18.21Z" fill="#A0505A" fill-opacity="1.000000" fill-rule="nonzero"/>
  <path id="Vector (Stroke)" d="M222.35 5.07C222.42 5.3 222.29 5.55 222.06 5.62C220.88 5.98 220.07 7.07 220.07 8.33L220.07 19.1C220.07 19.87 220.77 20.43 221.5 20.27C221.73 20.22 221.97 20.37 222.02 20.61C222.07 20.84 221.92 21.08 221.68 21.13C220.41 21.4 219.2 20.43 219.2 19.1L219.2 8.33C219.2 6.69 220.26 5.25 221.81 4.78C222.04 4.71 222.29 4.84 222.35 5.07Z" fill="#73325A" fill-opacity="1.000000" fill-rule="evenodd"/>
  <path id="Vector (Stroke)" d="M227.65 3.45C227.72 3.69 227.59 3.93 227.36 4C226.19 4.36 225.37 5.49 225.37 6.79L225.37 17.9C225.37 18.71 226.08 19.27 226.8 19.11C227.03 19.06 227.26 19.21 227.31 19.45C227.37 19.68 227.22 19.92 226.98 19.97C225.7 20.25 224.5 19.24 224.5 17.9L224.5 6.79C224.5 5.13 225.55 3.64 227.11 3.16C227.34 3.09 227.58 3.22 227.65 3.45Z" fill="#73325A" fill-opacity="1.000000" fill-rule="evenodd"/>
  <path id="Vector (Stroke)" d="M233.58 1.63C233.65 1.86 233.53 2.11 233.3 2.18C232.13 2.56 231.3 3.73 231.3 5.09L231.3 16.59C231.3 17.43 232.02 18 232.73 17.84C232.96 17.79 233.19 17.94 233.24 18.18C233.3 18.41 233.15 18.65 232.91 18.7C231.62 18.98 230.43 17.94 230.43 16.59L230.43 5.09C230.43 3.39 231.47 1.85 233.04 1.35C233.26 1.28 233.51 1.4 233.58 1.63Z" fill="#73325A" fill-opacity="1.000000" fill-rule="evenodd"/>
  <path id="Vector" d="M456.83 305.18C449.43 314.57 441.13 320.28 437.87 317.68C434.62 315.08 437.61 305.13 445.02 295.73C451.93 286.99 461.05 281.96 464.89 283.42L465.65 283.86C468.93 286.48 464.24 295.8 456.83 305.18Z" fill="#9A3B82" fill-opacity="1.000000" fill-rule="nonzero"/>
  <path id="Vector" d="M490.35 320.98L485.42 323.6C483.46 324.66 481.03 323.91 479.99 321.94L474.8 312.24L466.93 309.53C467.8 309.85 471.19 311.6 470.13 317.96L451.67 311.03L445.32 308.65L439.31 304.78C440.72 301.9 442.65 298.79 445.06 295.75C447.08 293.19 449.28 290.96 451.47 289.13L457.75 293.54L464.18 294.24L474.62 295.36C476.3 295.53 477.9 296.1 479.31 297L487.65 302.97C488.87 303.84 489.67 305.15 489.87 306.64L491.56 318.58C491.72 319.56 491.22 320.52 490.35 320.98Z" fill="#A0505A" fill-opacity="1.000000" fill-rule="nonzero"/>
  <path id="Vector (Stroke)" d="M477.85 301.29C477.99 301.09 478.26 301.05 478.46 301.19L485.69 306.37C485.69 306.37 485.69 306.37 485.69 306.37C486.83 307.18 487.59 308.45 487.8 309.85C487.8 309.85 487.8 309.85 487.8 309.85L489.28 319.5L489.28 319.5C489.41 320.53 488.91 321.54 487.98 322.02C487.77 322.13 487.51 322.05 487.4 321.84C487.29 321.62 487.37 321.36 487.59 321.25C488.18 320.94 488.5 320.3 488.42 319.62L486.94 309.98C486.77 308.81 486.13 307.76 485.19 307.08L477.96 301.9C477.76 301.76 477.71 301.49 477.85 301.29Z" fill="#73325A" fill-opacity="1.000000" fill-rule="evenodd"/>
  <path id="Vector (Stroke)" d="M473.38 303.02C473.52 302.82 473.79 302.78 473.98 302.92L481.21 308.1C481.21 308.1 481.22 308.1 481.22 308.1C482.36 308.91 483.11 310.18 483.33 311.58L484.8 321.23L484.8 321.23C484.94 322.26 484.44 323.27 483.51 323.75C483.29 323.86 483.03 323.78 482.92 323.56C482.81 323.35 482.9 323.09 483.11 322.98C483.7 322.67 484.03 322.02 483.94 321.35L482.47 311.71C482.29 310.53 481.66 309.48 480.71 308.81L480.71 308.81L473.48 303.63C473.28 303.49 473.24 303.22 473.38 303.02Z" fill="#73325A" fill-opacity="1.000000" fill-rule="evenodd"/>
  <path id="Vector (Stroke)" d="M461.27 307.57C461.34 307.34 461.59 307.22 461.82 307.3L467.07 309.09C467.3 309.17 467.42 309.41 467.34 309.64C467.27 309.87 467.02 309.99 466.79 309.92L461.54 308.12C461.31 308.05 461.19 307.8 461.27 307.57Z" fill="#73325A" fill-opacity="1.000000" fill-rule="evenodd"/>
  <path id="Vector" d="M464.18 294.24C462.42 297.59 459.85 301.39 456.86 305.2C455.14 307.36 453.4 309.33 451.67 311.03L445.32 308.65L439.31 304.78C440.72 301.9 442.65 298.79 445.06 295.75C447.08 293.19 449.28 290.96 451.47 289.13L457.75 293.54L464.18 294.24Z" fill="#73325A" fill-opacity="1.000000" fill-rule="nonzero"/>
  <path id="Vector" d="M274.52 114.64L320.98 135.39L337.55 184.19L303.88 159.96L288.18 140.66L274.52 114.64Z" fill="#FE5244" fill-opacity="1.000000" fill-rule="nonzero"/>
  <path id="Vector" d="M288.18 140.66C288.18 140.66 303.39 143.28 309.51 160.34L312.75 157.06C312.75 157.06 306.86 140.46 291.31 136.2L288.18 140.66Z" fill="#9A3B82" fill-opacity="1.000000" fill-rule="nonzero"/>
  <path id="Vector" d="M378.79 161.84C373.58 158.87 368.76 157.23 367.22 157.82C367.33 157.56 367.39 157.25 367.37 156.95C367.28 155.99 366.5 155.26 365.57 155.26C365.52 155.26 365.48 155.26 365.41 155.26C364.42 155.35 363.68 156.23 363.74 157.23C363.74 157.3 363.76 157.36 363.76 157.41L358.25 160.97C357.01 161.78 355.49 161.82 354.19 161.1C352.88 160.38 352.12 159.07 352.12 157.58L352.12 149.6C352.12 146.12 350.41 142.91 347.52 140.99C344.63 139.06 341 138.76 337.83 140.11L327.32 144.84L323.32 133.05L276.62 112.22C276.34 112.09 276 112.22 275.86 112.52C275.73 112.81 275.86 113.16 276.17 113.29L322.39 133.92L338.87 182.48C338.96 182.72 339.18 182.88 339.42 182.88C339.48 182.88 339.55 182.85 339.61 182.85C339.92 182.75 340.07 182.42 339.98 182.11L327.71 145.95L338.31 141.18C341.13 139.96 344.35 140.24 346.89 141.95C349.45 143.65 350.97 146.5 350.97 149.6L350.97 157.58C350.97 159.5 351.97 161.21 353.64 162.13C354.42 162.57 355.27 162.78 356.12 162.78C357.07 162.78 358.03 162.5 358.88 161.95L364.35 158.43C364.68 158.74 365.11 158.92 365.57 158.92C365.61 158.92 365.68 158.92 365.72 158.92C366.11 158.89 366.46 158.74 366.72 158.5C366.72 160.05 370.67 163.53 376.1 166.63C377.27 167.31 378.45 167.92 379.55 168.45C380.23 167.88 380.79 167.2 381.25 166.39C381.7 165.6 381.99 164.75 382.12 163.88C381.07 163.22 379.97 162.52 378.79 161.84ZM365.61 158C365.11 158.04 364.7 157.67 364.65 157.19C364.61 156.71 364.98 156.27 365.46 156.23C365.94 156.18 366.37 156.55 366.41 157.03C366.46 157.52 366.09 157.95 365.61 158Z" fill="#FFCF2D" fill-opacity="1.000000" fill-rule="nonzero"/>
  <path id="Vector" d="M285.16 169.41L277.13 214.4L304.51 193.15L304.51 165.1L285.16 169.41Z" fill="#A0505A" fill-opacity="1.000000" fill-rule="nonzero"/>
  <path id="Vector" d="M285.16 169.41L284.16 175.05L296.28 199.53L304.51 193.15L304.51 165.1L285.16 169.41Z" fill="#73325A" fill-opacity="1.000000" fill-rule="nonzero"/>
  <path id="Vector" d="M288.64 141.12C288.64 141.12 274.93 137.68 270.65 145.69C266.37 153.69 278.88 155.9 279.41 153.1C279.64 151.87 256.88 151.89 260.7 169.23C264.68 187.29 282.6 181.08 282.6 181.08L284.68 169.41L288.64 141.12Z" fill="#FFFFFF" fill-opacity="1.000000" fill-rule="nonzero"/>
  <path id="Vector (Stroke)" d="M288.74 140.69C288.74 140.69 288.74 140.69 288.64 141.12L288.74 140.69L289.12 140.79L285.11 169.48L282.98 181.41L282.74 181.5L282.6 181.08C282.74 181.5 282.74 181.5 282.74 181.5L282.74 181.5L282.74 181.5L282.72 181.5C282.71 181.51 282.7 181.51 282.68 181.52C282.65 181.53 282.59 181.54 282.52 181.57C282.39 181.61 282.19 181.67 281.93 181.74C281.42 181.87 280.7 182.05 279.81 182.2C278.04 182.51 275.63 182.72 273.08 182.36C270.53 182 267.84 181.06 265.52 179.03C263.2 177.01 261.29 173.92 260.28 169.33C259.3 164.9 260.02 161.52 261.69 158.98C263.35 156.46 265.91 154.83 268.56 153.8C269.52 153.42 270.5 153.12 271.46 152.89C270.73 152.34 270.13 151.64 269.75 150.79C269.1 149.35 269.15 147.57 270.27 145.48C272.53 141.26 277.24 140.11 281.23 139.96C283.25 139.89 285.12 140.07 286.49 140.27C287.18 140.37 287.74 140.48 288.13 140.56C288.32 140.6 288.47 140.63 288.58 140.66C288.63 140.67 288.67 140.68 288.7 140.68C288.71 140.69 288.72 140.69 288.73 140.69L288.74 140.69L288.74 140.69L288.74 140.69ZM272.48 153.56C271.31 153.8 270.07 154.14 268.87 154.61C266.33 155.6 263.94 157.15 262.41 159.47C260.89 161.77 260.2 164.9 261.13 169.14C262.11 173.58 263.93 176.49 266.09 178.37C268.25 180.26 270.78 181.15 273.2 181.5C275.63 181.84 277.95 181.63 279.66 181.34C280.52 181.19 281.22 181.02 281.71 180.89C281.92 180.83 282.09 180.78 282.22 180.75L284.25 169.34L288.15 141.46C288.09 141.44 288.03 141.43 287.95 141.41C287.58 141.34 287.03 141.24 286.37 141.14C285.03 140.94 283.21 140.77 281.26 140.84C277.34 140.98 273.06 142.11 271.04 145.89C270.01 147.8 270.03 149.3 270.54 150.43C270.95 151.35 271.71 152.09 272.63 152.64C273.86 152.41 275.02 152.28 276.03 152.23C277.06 152.18 277.95 152.21 278.57 152.3C278.88 152.34 279.16 152.4 279.36 152.48C279.46 152.52 279.57 152.58 279.67 152.67C279.77 152.77 279.88 152.95 279.83 153.18C279.73 153.71 279.35 154.07 278.9 154.3C278.44 154.53 277.86 154.65 277.24 154.68C275.99 154.75 274.44 154.47 273.05 153.84C272.86 153.75 272.67 153.66 272.48 153.56ZM274.03 153.3C274.76 153.19 275.44 153.13 276.07 153.1C277.07 153.05 277.9 153.09 278.45 153.16C278.63 153.19 278.77 153.21 278.88 153.24C278.8 153.34 278.69 153.43 278.51 153.52C278.2 153.67 277.75 153.78 277.19 153.81C276.26 153.86 275.12 153.69 274.03 153.3Z" fill="#9A3B82" fill-opacity="1.000000" fill-rule="evenodd"/>
  <path id="Vector" d="M304.29 167C304.29 167 283.84 193.85 301.82 205.26C316.24 214.4 319.96 201.52 316.09 199.75C311.9 197.83 302.28 234.12 331.9 234.01C361.59 233.9 352.51 196.58 337.55 184.21C330.4 178.31 306.56 161.8 306.56 161.8L304.29 167Z" fill="#FFFFFF" fill-opacity="1.000000" fill-rule="nonzero"/>
  <path id="Vector (Stroke)" d="M306.8 161.44L306.55 161.8C306.8 161.44 306.8 161.44 306.8 161.44L306.87 161.49C306.91 161.52 306.98 161.57 307.07 161.63C307.25 161.75 307.51 161.93 307.84 162.16C308.51 162.62 309.47 163.29 310.64 164.11C312.99 165.75 316.19 168 319.62 170.43C326.47 175.3 334.24 180.91 337.82 183.87C345.41 190.14 351.47 202.69 351.9 213.69C352.12 219.2 350.93 224.39 347.75 228.21C344.55 232.03 339.42 234.42 331.9 234.45C324.4 234.48 319.33 232.2 316.03 228.74C312.74 225.29 311.27 220.71 310.88 216.24C310.66 213.72 310.78 211.22 311.11 208.94C308.63 209 305.46 208.09 301.59 205.63L301.59 205.63C296.98 202.71 294.82 198.78 294.19 194.53C293.56 190.31 294.46 185.81 295.9 181.71C297.35 177.6 299.36 173.86 301.01 171.15C301.83 169.79 302.57 168.69 303.1 167.93C303.36 167.55 303.57 167.25 303.72 167.05C303.79 166.95 303.85 166.87 303.89 166.82C303.9 166.8 303.91 166.79 303.92 166.78L306.37 161.14L306.8 161.44ZM312 208.88C311.66 211.14 311.53 213.64 311.75 216.16C312.13 220.51 313.55 224.87 316.66 228.13C319.76 231.39 324.59 233.6 331.9 233.58C339.23 233.55 344.09 231.23 347.08 227.64C350.08 224.05 351.25 219.11 351.04 213.73C350.61 202.95 344.65 190.65 337.27 184.55C333.71 181.61 325.98 176.02 319.12 171.15C315.7 168.72 312.49 166.47 310.14 164.83C308.97 164.01 308.01 163.34 307.35 162.88C307.1 162.71 306.9 162.57 306.74 162.46L304.67 167.23L304.64 167.27L304.41 167.09C304.64 167.27 304.64 167.27 304.64 167.27L304.64 167.27L304.64 167.27L304.63 167.29C304.62 167.3 304.6 167.32 304.58 167.34C304.55 167.39 304.49 167.47 304.42 167.57C304.28 167.76 304.07 168.05 303.81 168.43C303.29 169.18 302.56 170.27 301.75 171.6C300.12 174.28 298.14 177.97 296.72 182C295.3 186.03 294.45 190.38 295.05 194.41C295.64 198.41 297.67 202.11 302.05 204.89C305.93 207.35 308.96 208.17 311.25 208.06C311.5 206.64 311.83 205.33 312.21 204.17C312.74 202.59 313.36 201.28 314 200.41C314.32 199.99 314.67 199.64 315.04 199.44C315.43 199.23 315.85 199.17 316.27 199.35C317.46 199.9 317.99 201.25 317.95 202.66C317.92 204.08 317.32 205.68 316.12 206.91C315.13 207.92 313.76 208.66 312 208.88ZM312.15 207.97C312.39 206.69 312.69 205.5 313.04 204.45C313.54 202.91 314.13 201.7 314.7 200.94C314.98 200.56 315.24 200.33 315.46 200.21C315.66 200.1 315.8 200.1 315.91 200.15L315.91 200.15C316.65 200.49 317.11 201.41 317.08 202.64C317.06 203.84 316.55 205.22 315.5 206.29C314.72 207.09 313.62 207.73 312.15 207.97Z" fill="#9A3B82" fill-opacity="1.000000" fill-rule="evenodd"/>
  <path id="Vector" d="M303.69 160.27L305.23 161.25C306.73 162.21 307.16 164.2 306.23 165.71L305.93 166.17C304.97 167.68 302.99 168.14 301.49 167.18L299.84 166.13C298.02 167.44 287.05 174.81 280.27 167.48C273.69 160.38 288.9 139.59 288.9 139.59C301.8 143.65 306.84 155.2 306.84 155.2L303.69 160.27Z" fill="#A0505A" fill-opacity="1.000000" fill-rule="nonzero"/>
  <path id="Vector (Stroke)" d="M284.26 144.16C284.34 143.93 284.59 143.82 284.81 143.9L284.66 144.31C284.81 143.9 284.81 143.9 284.81 143.9L284.81 143.9L284.82 143.9L284.82 143.9L284.83 143.91C284.84 143.91 284.85 143.91 284.86 143.92C284.89 143.93 284.94 143.95 284.99 143.97C285.09 144.02 285.24 144.09 285.41 144.18C285.76 144.36 286.23 144.64 286.68 145.03C287.59 145.8 288.51 147.03 288.31 148.77C288.13 150.35 287.26 152.32 286.53 153.96C286.51 154.02 286.48 154.08 286.46 154.13C286.08 154.99 285.75 155.75 285.56 156.34C285.46 156.64 285.41 156.87 285.4 157.04C285.39 157.15 285.4 157.19 285.4 157.21C285.73 157.56 286.11 157.77 286.41 157.89C286.57 157.95 286.7 157.99 286.79 158.02C286.84 158.03 286.87 158.03 286.89 158.04C286.91 158.04 286.91 158.04 286.92 158.04L286.92 158.04L286.92 158.04L286.92 158.04C286.92 158.04 286.92 158.04 286.92 158.04L286.92 158.04C286.92 158.04 286.92 158.04 286.92 158.04L286.92 158.04C287.16 158.08 287.32 158.3 287.29 158.54C287.25 158.78 287.03 158.94 286.79 158.91L286.86 158.48C286.79 158.91 286.79 158.91 286.79 158.91L286.79 158.91L286.79 158.91L286.79 158.91L286.78 158.91C286.78 158.91 286.78 158.91 286.77 158.91C286.76 158.9 286.75 158.9 286.73 158.9C286.69 158.89 286.64 158.88 286.58 158.86C286.45 158.83 286.28 158.78 286.09 158.7C285.7 158.54 285.19 158.27 284.76 157.79C284.54 157.55 284.51 157.23 284.53 156.97C284.55 156.7 284.63 156.39 284.73 156.07C284.94 155.42 285.29 154.62 285.66 153.78C285.68 153.75 285.69 153.71 285.7 153.68C286.46 151.98 287.28 150.11 287.45 148.68C287.6 147.34 286.91 146.36 286.12 145.7C285.73 145.36 285.32 145.12 285.01 144.95C284.86 144.87 284.73 144.81 284.64 144.77C284.6 144.75 284.56 144.74 284.54 144.73C284.53 144.73 284.52 144.72 284.52 144.72L284.51 144.72L284.51 144.72C284.51 144.72 284.51 144.72 284.51 144.72L284.51 144.72C284.51 144.72 284.51 144.72 284.51 144.72L284.51 144.72L284.26 144.16ZM284.26 144.16C284.17 144.38 284.29 144.64 284.51 144.72L284.26 144.16Z" fill="#73325A" fill-opacity="1.000000" fill-rule="evenodd"/>
  <path id="Vector (Stroke)" d="M283.79 160.34C283.58 160.72 283.58 160.72 283.58 160.72L283.58 160.72L283.58 160.72L283.58 160.72L283.59 160.72C283.6 160.73 283.61 160.73 283.62 160.74C283.64 160.75 283.68 160.77 283.72 160.79C283.81 160.83 283.93 160.89 284.09 160.96C284.41 161.1 284.88 161.27 285.45 161.43C286.61 161.74 288.24 161.98 290.11 161.68C290.35 161.65 290.51 161.42 290.48 161.18C290.44 160.95 290.22 160.78 289.98 160.82C288.25 161.09 286.75 160.87 285.68 160.59C285.14 160.44 284.72 160.28 284.43 160.16C284.29 160.1 284.18 160.04 284.1 160C284.07 159.99 284.04 159.97 284.02 159.96C284.01 159.96 284.01 159.96 284.01 159.95L284 159.95C284 159.95 284 159.95 284 159.95L284 159.95C283.79 159.84 283.53 159.91 283.41 160.12C283.29 160.33 283.37 160.6 283.58 160.72L283.79 160.34Z" fill="#73325A" fill-opacity="1.000000" fill-rule="evenodd"/>
  <path id="Vector" d="M295.15 155.96C295.46 155.15 295.35 154.35 294.91 154.18C294.48 154.02 293.87 154.54 293.57 155.35C293.26 156.17 293.36 156.96 293.8 157.13C294.24 157.29 294.84 156.77 295.15 155.96Z" fill="#73325A" fill-opacity="1.000000" fill-rule="nonzero"/>
  <path id="Vector" d="M285.12 151.33C285.38 150.65 285.29 149.99 284.92 149.85C284.55 149.7 284.04 150.14 283.78 150.81C283.53 151.49 283.62 152.16 283.99 152.3C284.36 152.44 284.87 152 285.12 151.33Z" fill="#73325A" fill-opacity="1.000000" fill-rule="nonzero"/>
  <path id="Vector (Stroke)" d="M305.15 163.77C304.4 163.28 303.4 163.5 302.92 164.27C302.79 164.47 302.53 164.53 302.32 164.4C302.12 164.27 302.06 164 302.19 163.8C302.93 162.63 304.46 162.28 305.61 163.03C305.82 163.16 305.88 163.43 305.75 163.63C305.62 163.84 305.35 163.89 305.15 163.77Z" fill="#73325A" fill-opacity="1.000000" fill-rule="evenodd"/>
  <path id="Vector (Stroke)" d="M294.12 150.08C294.19 149.84 294.43 149.71 294.66 149.77L294.54 150.19C294.66 149.77 294.66 149.77 294.66 149.77L294.66 149.77L294.66 149.77L294.66 149.77L294.67 149.77C294.68 149.77 294.69 149.78 294.7 149.78C294.72 149.79 294.76 149.8 294.8 149.81C294.89 149.84 295 149.89 295.15 149.95C295.44 150.08 295.84 150.28 296.29 150.59C297.17 151.2 298.24 152.24 298.96 153.91C299.06 154.13 298.95 154.39 298.73 154.48C298.51 154.58 298.26 154.48 298.16 154.26C297.52 152.76 296.57 151.85 295.79 151.31C295.4 151.04 295.05 150.86 294.81 150.75C294.68 150.7 294.58 150.66 294.52 150.64C294.49 150.63 294.46 150.62 294.45 150.62C294.44 150.61 294.43 150.61 294.43 150.61L294.43 150.61C294.2 150.55 294.06 150.31 294.12 150.08Z" fill="#73325A" fill-opacity="1.000000" fill-rule="evenodd"/>
  <path id="HAIR 1" d="M298.5 144.88C298.5 144.88 295.61 154.52 303.88 161.1C308.75 164.97 309.03 160.31 309.03 160.31C309.03 160.31 308.4 150.85 298.5 144.88Z" fill="#FFFFFF" fill-opacity="1.000000" fill-rule="nonzero"/>
  <path id="HAIR 1 (Stroke)" d="M298.24 144.22L298.72 144.5C303.76 147.54 306.45 151.48 307.87 154.66C308.59 156.24 308.98 157.64 309.2 158.65C309.31 159.15 309.38 159.56 309.41 159.84C309.43 159.98 309.45 160.09 309.45 160.16C309.46 160.2 309.46 160.23 309.46 160.25C309.46 160.26 309.46 160.27 309.46 160.27L309.46 160.28L309.46 160.28L309.46 160.28C309.46 160.28 309.46 160.28 309.03 160.31C309.46 160.34 309.46 160.34 309.46 160.34L309.46 160.34L309.46 160.35C309.46 160.35 309.46 160.36 309.46 160.36C309.46 160.37 309.46 160.39 309.46 160.41C309.45 160.45 309.45 160.5 309.44 160.57C309.42 160.7 309.39 160.89 309.33 161.1C309.22 161.5 309 162.05 308.59 162.47C308.15 162.91 307.52 163.17 306.68 163.04C305.86 162.92 304.86 162.43 303.61 161.44C299.36 158.06 297.98 153.89 297.65 150.57C297.49 148.91 297.6 147.46 297.74 146.43C297.82 145.91 297.9 145.5 297.97 145.21C298 145.07 298.03 144.95 298.05 144.88C298.06 144.84 298.06 144.81 298.07 144.79C298.07 144.78 298.08 144.77 298.08 144.76L298.08 144.76L298.08 144.75L298.08 144.75C298.08 144.75 298.08 144.75 298.5 144.88L298.08 144.75L298.24 144.22ZM298.78 145.57C298.72 145.82 298.66 146.15 298.6 146.55C298.47 147.53 298.37 148.91 298.52 150.48C298.82 153.62 300.13 157.56 304.15 160.76C305.34 161.7 306.2 162.09 306.8 162.18C307.38 162.27 307.73 162.09 307.97 161.85C308.24 161.59 308.4 161.21 308.49 160.87C308.54 160.7 308.56 160.55 308.58 160.44C308.59 160.39 308.59 160.35 308.59 160.32C308.59 160.32 308.59 160.32 308.59 160.31C308.59 160.3 308.59 160.28 308.59 160.25C308.58 160.18 308.57 160.09 308.55 159.95C308.52 159.69 308.46 159.31 308.35 158.84C308.14 157.88 307.76 156.54 307.08 155.02C305.76 152.08 303.32 148.45 298.78 145.57ZM309.03 160.31L309.46 160.34L309.47 160.31L309.46 160.28L309.03 160.31Z" fill="#9A3B82" fill-opacity="1.000000" fill-rule="evenodd"/>
</svg>
