<svg width="48.000000" height="48.000000" viewBox="0 0 48 48" fill="none" xmlns="http://www.w3.org/2000/svg" xmlns:xlink="http://www.w3.org/1999/xlink">
	<desc>
			Created with Pixso.
	</desc>
	<defs>
		<clipPath id="clip136_1248">
			<rect id="ic-target" width="48.000000" height="48.000000" fill="white" fill-opacity="0"/>
		</clipPath>
	</defs>
	<g clip-path="url(#clip136_1248)">
		<path id="Vector" d="M33.29 37C32.97 36.66 32.39 36.57 31.95 36.98C31.95 36.99 31.95 36.99 31.95 36.99C31.52 37.41 31.6 38 31.92 38.33C32.09 38.5 32.33 38.61 32.59 38.61C32.82 38.61 33.05 38.53 33.26 38.33C33.68 37.92 33.61 37.33 33.29 37Z" fill="#FF3F3A" fill-opacity="1.000000" fill-rule="nonzero"/>
		<path id="Vector" d="M41.78 18.95C41.6 18.46 41.06 18.21 40.58 18.39C40.09 18.57 39.84 19.11 40.02 19.6C40.83 21.78 41.24 24.08 41.24 26.43C41.24 37.29 32.41 46.12 21.56 46.12C17.53 46.12 13.66 44.91 10.36 42.63C9.94 42.33 9.35 42.44 9.06 42.86C8.76 43.29 8.87 43.87 9.29 44.17C12.91 46.67 17.15 47.99 21.56 47.99C27.32 47.99 32.73 45.75 36.8 41.68C40.87 37.61 43.12 32.19 43.12 26.43C43.12 23.86 42.67 21.34 41.78 18.95Z" fill="#FF3F3A" fill-opacity="1.000000" fill-rule="nonzero"/>
		<path id="Vector" d="M28.82 6.13C26.49 5.3 24.05 4.88 21.56 4.88C15.8 4.88 10.39 7.12 6.31 11.19C2.24 15.26 0 20.68 0 26.44C0 30.9 1.35 35.19 3.91 38.83C4.1 39.08 4.39 39.22 4.68 39.22C4.87 39.22 5.06 39.17 5.22 39.05C5.64 38.75 5.74 38.17 5.45 37.75C3.11 34.42 1.87 30.51 1.87 26.44C1.87 15.58 10.7 6.75 21.56 6.75C23.83 6.75 26.06 7.14 28.19 7.89C28.67 8.07 29.21 7.81 29.39 7.33C29.56 6.84 29.31 6.3 28.82 6.13Z" fill="#FF3F3A" fill-opacity="1.000000" fill-rule="nonzero"/>
		<path id="Vector" d="M47.92 7.77C47.77 7.42 47.43 7.19 47.05 7.19L42.13 7.19L42.66 6.66C43.02 6.29 43.02 5.7 42.66 5.33C42.29 4.97 41.7 4.97 41.33 5.33L40.8 5.87L40.8 0.93C40.8 0.55 40.57 0.21 40.22 0.07C39.87 -0.08 39.46 0 39.2 0.27L30.93 8.53C30.76 8.71 30.66 8.95 30.66 9.2L30.66 12.45C27.95 10.68 24.84 9.75 21.56 9.75C12.36 9.75 4.87 17.24 4.87 26.44C4.87 35.64 12.36 43.12 21.56 43.12C24.61 43.12 27.6 42.29 30.2 40.71C30.64 40.44 30.78 39.87 30.51 39.42C30.24 38.98 29.67 38.84 29.22 39.11C26.92 40.51 24.27 41.25 21.56 41.25C13.39 41.25 6.75 34.6 6.75 26.44C6.75 18.27 13.39 11.62 21.56 11.62C24.89 11.62 28.04 12.71 30.66 14.75L30.66 16.01L28.95 17.72C26.95 16.02 24.37 15 21.56 15C15.25 15 10.12 20.13 10.12 26.44C10.12 32.74 15.25 37.87 21.56 37.87C27.86 37.87 32.99 32.74 32.99 26.44C32.99 23.62 31.97 21.04 30.27 19.04L31.99 17.33L33.24 17.33C35.26 19.92 36.37 23.14 36.37 26.44C36.37 29.2 35.6 31.89 34.15 34.23C33.88 34.67 34.02 35.25 34.46 35.52C34.61 35.62 34.78 35.66 34.95 35.66C35.26 35.66 35.57 35.5 35.75 35.22C37.38 32.59 38.24 29.55 38.24 26.44C38.24 23.2 37.29 20.02 35.54 17.33L38.79 17.33C39.04 17.33 39.28 17.23 39.45 17.05L47.72 8.79C47.98 8.52 48.06 8.12 47.92 7.77ZM31.12 26.44C31.12 31.71 26.83 36 21.56 36C16.29 36 12 31.71 12 26.44C12 21.16 16.29 16.87 21.56 16.87C23.86 16.87 25.97 17.69 27.62 19.05L25.48 21.18C24.39 20.36 23.03 19.87 21.56 19.87C17.94 19.87 15 22.82 15 26.44C15 30.05 17.94 33 21.56 33C25.18 33 28.12 30.05 28.12 26.44C28.12 24.96 27.63 23.6 26.81 22.51L28.95 20.37C30.3 22.02 31.12 24.14 31.12 26.44ZM20.89 27.1C21.08 27.28 21.32 27.37 21.56 27.37C21.8 27.37 22.04 27.28 22.22 27.1L25.47 23.85C25.96 24.59 26.24 25.48 26.24 26.44C26.24 29.02 24.14 31.12 21.56 31.12C18.97 31.12 16.87 29.02 16.87 26.44C16.87 23.85 18.97 21.75 21.56 21.75C22.51 21.75 23.4 22.04 24.14 22.53L20.89 25.77C20.53 26.14 20.53 26.73 20.89 27.1ZM32.53 14.13L32.53 9.58L38.92 3.2L38.92 7.75L32.53 14.13ZM38.4 15.45L33.87 15.45L40.25 9.07L44.79 9.07L38.4 15.45Z" fill="#FF3F3A" fill-opacity="1.000000" fill-rule="nonzero"/>
		<path id="Vector" d="M7.62 40.33C7.45 40.16 7.2 40.06 6.96 40.06C6.71 40.06 6.47 40.16 6.29 40.33C6.12 40.51 6.02 40.75 6.02 41C6.02 41.24 6.12 41.49 6.29 41.66C6.47 41.83 6.71 41.94 6.96 41.94C7.2 41.94 7.45 41.83 7.62 41.66C7.79 41.49 7.89 41.24 7.89 41C7.89 40.75 7.79 40.51 7.62 40.33Z" fill="#FF3F3A" fill-opacity="1.000000" fill-rule="nonzero"/>
	</g>
</svg>
