<svg width="24.000000" height="24.000000" viewBox="0 0 24 24" fill="none" xmlns="http://www.w3.org/2000/svg" xmlns:xlink="http://www.w3.org/1999/xlink">
	<desc>
			Created with Pixso.
	</desc>
	<defs/>
	<path id="Vector" d="M22.5 5.77148C21.7271 6.09961 20.8977 6.32227 20.0264 6.42188C20.916 5.91211 21.5972 5.10352 21.9199 4.14062C21.0854 4.61328 20.1641 4.95703 19.1826 5.14258C18.3965 4.33984 17.2786 3.83984 16.0383 3.83984C13.6592 3.83984 11.7302 5.6875 11.7302 7.96289C11.7302 8.28711 11.7683 8.60156 11.8418 8.9043C8.26196 8.73047 5.08765 7.08984 2.96313 4.59375C2.5918 5.20117 2.38037 5.91016 2.38037 6.66602C2.38037 8.09766 3.1416 9.36133 4.29639 10.0996C3.59033 10.0762 2.92627 9.89062 2.34497 9.58203L2.34497 9.63281C2.34497 11.6309 3.83057 13.2988 5.80029 13.6777C5.43945 13.7715 5.05884 13.8223 4.66504 13.8223C4.38696 13.8223 4.11792 13.7969 3.85425 13.7461C4.40259 15.3867 5.99316 16.5781 7.87744 16.6113C6.40381 17.7168 4.54565 18.373 2.52759 18.373C2.17969 18.373 1.83716 18.3535 1.5 18.3164C3.40674 19.4902 5.67041 20.1738 8.10327 20.1738C16.0281 20.1738 20.3599 13.8887 20.3599 8.4375L20.3452 7.9043C21.1917 7.32617 21.9238 6.59961 22.5 5.77148Z" fill="#787A80" fill-opacity="1.000000" fill-rule="nonzero"/>
</svg>
