<svg width="507.000000" height="454.000000" viewBox="0 0 507 454" fill="none" xmlns="http://www.w3.org/2000/svg" xmlns:xlink="http://www.w3.org/1999/xlink">
	<desc>
			Created with Pixso.
	</desc>
	<defs/>
	<rect id="illustration" width="507.000000" height="454.000000" fill="#FFFFFF" fill-opacity="0"/>
	<path id="Vector" d="M406.42 453.52L0 453.52L166.08 60.15L240.33 60.15L406.42 453.52Z" fill="#D0F0E4" fill-opacity="1.000000" fill-rule="nonzero"/>
	<path id="Vector (Stroke)" d="M203.21 22.85L210.59 30.21L209.91 30.89L203.21 24.2L196.5 30.89L195.83 30.21L203.21 22.85Z" fill="#FFCF2D" fill-opacity="1.000000" fill-rule="evenodd"/>
	<path id="Vector (Stroke)" d="M203.68 0L203.68 23.52L202.73 23.52L202.73 0L203.68 0Z" fill="#FFCF2D" fill-opacity="1.000000" fill-rule="evenodd"/>
	<path id="Vector" d="M203.21 72.41C209.47 72.41 214.54 67.35 214.54 61.1C214.54 54.86 209.47 49.79 203.21 49.79C196.94 49.79 191.87 54.86 191.87 61.1C191.87 67.35 196.94 72.41 203.21 72.41Z" fill="#FFCF2D" fill-opacity="1.000000" fill-rule="nonzero"/>
	<path id="Vector (Stroke)" d="M203.21 50.27C197.21 50.27 192.35 55.12 192.35 61.1C192.35 67.08 197.21 71.93 203.21 71.93C209.2 71.93 214.06 67.08 214.06 61.1C214.06 55.12 209.2 50.27 203.21 50.27ZM191.39 61.1C191.39 54.59 196.68 49.31 203.21 49.31C209.73 49.31 215.02 54.59 215.02 61.1C215.02 67.61 209.73 72.89 203.21 72.89C196.68 72.89 191.39 67.61 191.39 61.1Z" fill="#FFFFFF" fill-opacity="1.000000" fill-rule="evenodd"/>
	<path id="Vector (Stroke)" d="M203.22 30.5C185.7 30.5 170.75 41.16 167.55 55.74L166.69 59.67L239.74 59.67L238.88 55.73C238.88 55.73 238.88 55.73 238.88 55.73C237.28 48.43 232.76 42.13 226.42 37.65L226.42 37.65C220.1 33.16 211.97 30.5 203.22 30.5ZM166.62 55.54C169.93 40.42 185.35 29.55 203.22 29.55C212.17 29.55 220.49 32.27 226.97 36.87C233.48 41.47 238.16 47.97 239.81 55.52L239.81 55.52L240.93 60.62L165.5 60.62L166.62 55.54Z" fill="#9A3B82" fill-opacity="1.000000" fill-rule="evenodd"/>
	<path id="Vector" d="M338.26 313.84L330.72 313.84L330.72 361.31L338.26 361.31L338.26 313.84Z" fill="#66B0F0" fill-opacity="1.000000" fill-rule="nonzero"/>
	<path id="Vector" d="M475.14 361.31L432.23 361.31C430.68 361.31 429.48 359.98 429.67 358.45L435.64 308.16C435.8 306.87 436.91 305.89 438.2 305.89L481.11 305.89C482.66 305.89 483.86 307.23 483.66 308.76L477.69 359.05C477.53 360.34 476.43 361.31 475.14 361.31Z" fill="#9A3B82" fill-opacity="1.000000" fill-rule="nonzero"/>
	<path id="Vector" d="M451.76 361.32L417.87 361.32C415.79 361.32 414.18 359.5 414.42 357.44L418.77 320.82C418.97 319.09 420.46 317.76 422.21 317.76L456.92 317.76L451.76 361.32Z" fill="#FFFFFF" fill-opacity="1.000000" fill-rule="nonzero"/>
	<path id="Vector (Stroke)" d="M419.24 320.88C419.24 320.88 419.24 320.88 419.24 320.88L414.9 357.5C414.9 357.5 414.9 357.5 414.9 357.5C414.69 359.27 416.08 360.84 417.87 360.84L451.33 360.84L456.38 318.24L422.21 318.24C420.7 318.24 419.42 319.38 419.24 320.88ZM418.29 320.76C418.53 318.79 420.21 317.28 422.21 317.28L457.45 317.28L452.18 361.79L417.87 361.79C415.51 361.79 413.67 359.73 413.95 357.39L413.95 357.39L418.29 320.76Z" fill="#FFCF2D" fill-opacity="1.000000" fill-rule="evenodd"/>
	<path id="Vector" d="M455.56 361.32L423.22 361.32C421.14 361.32 419.53 359.5 419.77 357.44L424.11 320.82C424.32 319.09 425.81 317.76 427.56 317.76L460.32 317.76C461.36 317.76 462.17 318.67 462.04 319.71L457.28 359.77C457.19 360.66 456.44 361.32 455.56 361.32Z" fill="#FFFFFF" fill-opacity="1.000000" fill-rule="nonzero"/>
	<path id="Vector (Stroke)" d="M424.59 320.88C424.59 320.88 424.59 320.88 424.59 320.88L420.25 357.5C420.25 357.5 420.25 357.5 420.25 357.5C420.04 359.27 421.43 360.84 423.22 360.84L455.56 360.84C456.2 360.84 456.74 360.36 456.81 359.72L456.81 359.72L461.57 319.65L461.57 319.65C461.66 318.9 461.07 318.24 460.32 318.24L427.56 318.24C426.05 318.24 424.77 319.38 424.59 320.88ZM423.64 320.76C423.87 318.79 425.56 317.28 427.56 317.28L460.32 317.28C461.64 317.28 462.68 318.44 462.52 319.76C462.52 319.76 462.52 319.76 462.52 319.76L457.76 359.82C457.76 359.82 457.76 359.82 457.76 359.82C457.64 360.96 456.68 361.79 455.56 361.79L423.22 361.79C420.86 361.79 419.02 359.73 419.29 357.39L419.29 357.39L423.64 320.76Z" fill="#FFCF2D" fill-opacity="1.000000" fill-rule="evenodd"/>
	<path id="Vector (Stroke)" d="M338.26 320.5L352.3 320.5L352.3 361.79L338.26 361.79L338.26 320.5ZM339.22 321.46L339.22 360.84L351.34 360.84L351.34 321.46L339.22 321.46Z" fill="#9A3B82" fill-opacity="1.000000" fill-rule="evenodd"/>
	<path id="Vector (Stroke)" d="M346.79 320.5L366.16 320.5L366.16 361.79L346.79 361.79L346.79 320.5ZM347.75 321.46L347.75 360.84L365.2 360.84L365.2 321.46L347.75 321.46Z" fill="#9A3B82" fill-opacity="1.000000" fill-rule="evenodd"/>
	<path id="Vector (Stroke)" d="M363.22 316.07L369.35 316.07L388.71 361.79L382.58 361.79L363.22 316.07ZM364.66 317.03L383.21 360.84L387.27 360.84L368.72 317.03L364.66 317.03Z" fill="#9A3B82" fill-opacity="1.000000" fill-rule="evenodd"/>
	<path id="Vector (Stroke)" d="M371.17 322.88L381.7 322.88L398.43 361.79L387.9 361.79L371.17 322.88ZM372.62 323.83L388.53 360.84L396.97 360.84L381.06 323.83L372.62 323.83Z" fill="#9A3B82" fill-opacity="1.000000" fill-rule="evenodd"/>
	<path id="Vector (Stroke)" d="M316.58 320.5L330.72 320.5L330.72 361.79L316.58 361.79L316.58 320.5ZM317.53 321.46L317.53 360.84L329.77 360.84L329.77 321.46L317.53 321.46Z" fill="#9A3B82" fill-opacity="1.000000" fill-rule="evenodd"/>
	<path id="Vector (Stroke)" d="M316.58 289.58L378.89 289.58L378.89 298.41L316.58 298.41L316.58 289.58ZM317.53 290.54L317.53 297.45L377.93 297.45L377.93 290.54L317.53 290.54Z" fill="#9A3B82" fill-opacity="1.000000" fill-rule="evenodd"/>
	<path id="Vector" d="M394.78 284.04L317.05 284.04L317.05 290.38L394.78 290.38L394.78 284.04Z" fill="#FE5244" fill-opacity="1.000000" fill-rule="nonzero"/>
	<path id="Vector" d="M369.51 274.89L317.05 274.89L317.05 283.88L369.51 283.88L369.51 274.89Z" fill="#FFCF2D" fill-opacity="1.000000" fill-rule="nonzero"/>
	<path id="Vector (Stroke)" d="M316.58 267.55L378.89 267.55L378.89 275.21L316.58 275.21L316.58 267.55ZM317.53 268.51L317.53 274.26L377.93 274.26L377.93 268.51L317.53 268.51Z" fill="#9A3B82" fill-opacity="1.000000" fill-rule="evenodd"/>
	<path id="Vector" d="M484.27 250.35L484.22 250.62L476.97 297.93L409.71 297.93L416.96 250.62L417.05 249.95C418.2 247.62 425.23 245.82 433.74 245.82C443.05 245.82 450.59 247.97 450.59 250.62C450.59 247.97 458.13 245.82 467.44 245.82C476.43 245.84 483.76 247.83 484.27 250.35Z" fill="#FFFFFF" fill-opacity="1.000000" fill-rule="nonzero"/>
	<path id="Vector (Stroke)" d="M417.52 250.1L417.43 250.69L410.27 297.45L476.56 297.45L483.75 250.54L483.78 250.36C483.66 249.95 483.25 249.48 482.44 248.99C481.59 248.48 480.4 248.01 478.91 247.61C475.94 246.81 471.9 246.31 467.44 246.3C462.81 246.3 458.65 246.84 455.65 247.69C454.15 248.12 452.97 248.61 452.18 249.15C451.37 249.69 451.07 250.2 451.07 250.62L450.11 250.62C450.11 250.2 449.81 249.69 449 249.15C448.21 248.61 447.03 248.12 445.53 247.69C442.53 246.84 438.37 246.3 433.74 246.3C429.52 246.3 425.67 246.75 422.75 247.48C421.29 247.84 420.08 248.27 419.17 248.75C418.29 249.2 417.76 249.67 417.52 250.1ZM450.59 249.31C450.32 248.96 449.96 248.64 449.54 248.36C448.62 247.74 447.34 247.21 445.79 246.77C442.69 245.89 438.43 245.35 433.74 245.35C429.46 245.35 425.53 245.8 422.52 246.55C421.02 246.93 419.73 247.38 418.73 247.9C417.75 248.41 416.98 249.02 416.63 249.74L416.59 249.81L416.48 250.55L409.15 298.41L477.38 298.41L484.7 250.69L484.76 250.34L484.74 250.25C484.57 249.42 483.87 248.73 482.94 248.17C481.98 247.6 480.69 247.1 479.16 246.68C476.09 245.86 471.97 245.35 467.44 245.35L467.44 245.35C462.75 245.35 458.49 245.89 455.39 246.77C453.84 247.21 452.56 247.74 451.65 248.36C451.22 248.64 450.86 248.96 450.59 249.31Z" fill="#FFCF2D" fill-opacity="1.000000" fill-rule="evenodd"/>
	<path id="Vector (Stroke)" d="M451.08 250.7L443.89 298.02L442.95 297.87L450.13 250.56L451.08 250.7Z" fill="#FFCF2D" fill-opacity="1.000000" fill-rule="evenodd"/>
	<path id="Vector" d="M443.42 297.95C443.42 295.3 435.88 293.15 426.57 293.15C417.26 293.15 409.72 295.3 409.72 297.95L443.42 297.95Z" fill="#FFCF2D" fill-opacity="1.000000" fill-rule="nonzero"/>
	<path id="Vector" d="M477.12 297.95C477.12 295.3 469.58 293.15 460.27 293.15C450.96 293.15 443.42 295.3 443.42 297.95L477.12 297.95Z" fill="#FFCF2D" fill-opacity="1.000000" fill-rule="nonzero"/>
	<path id="Vector (Stroke)" d="M482.17 247.79C482.43 247.83 482.61 248.08 482.57 248.34L475.29 293.98L474.74 293.77C471.8 292.64 466.14 291.83 460.36 292.03C455.74 292.2 451.59 292.88 448.63 293.84C447.15 294.32 445.99 294.86 445.21 295.42C444.42 295.99 444.14 296.51 444.15 296.93C444.16 297.19 443.96 297.41 443.69 297.42C443.43 297.43 443.21 297.22 443.2 296.96C443.16 296.06 443.78 295.28 444.65 294.65C445.54 294 446.81 293.42 448.34 292.93C451.41 291.94 455.64 291.25 460.33 291.08C465.85 290.88 471.32 291.6 474.53 292.68L481.62 248.18C481.67 247.93 481.91 247.75 482.17 247.79Z" fill="#FFCF2D" fill-opacity="1.000000" fill-rule="evenodd"/>
	<path id="Vector" d="M478.91 234.56L418.51 234.56L418.51 221.15C418.51 219.83 419.58 218.76 420.91 218.76L476.53 218.76C477.85 218.76 478.92 219.83 478.92 221.15L478.92 234.56L478.91 234.56Z" fill="#FFFFFF" fill-opacity="1.000000" fill-rule="nonzero"/>
	<path id="Vector (Stroke)" d="M420.9 219.24C419.84 219.24 418.99 220.09 418.99 221.15L418.99 234.08L478.44 234.08L478.44 221.15C478.44 220.09 477.59 219.24 476.53 219.24L420.9 219.24ZM418.03 221.15C418.03 219.56 419.31 218.28 420.9 218.28L476.53 218.28C478.12 218.28 479.4 219.56 479.4 221.15L479.4 235.04L418.03 235.04L418.03 221.15Z" fill="#9A3B82" fill-opacity="1.000000" fill-rule="evenodd"/>
	<path id="Vector" d="M483.73 218.12L431.68 218.12C430.87 218.12 430.23 217.47 430.23 216.67L430.23 211.34C430.23 210.52 430.89 209.89 431.68 209.89L483.73 209.89C484.54 209.89 485.18 210.54 485.18 211.34L485.18 216.67C485.18 217.47 484.53 218.12 483.73 218.12Z" fill="#FFCF2D" fill-opacity="1.000000" fill-rule="nonzero"/>
	<path id="Vector" d="M485.76 204.88L424.02 204.88L424.02 209.89L485.76 209.89L485.76 204.88Z" fill="#FE5244" fill-opacity="1.000000" fill-rule="nonzero"/>
	<path id="Vector" d="M484.64 204.88L437.51 204.88C436.89 204.88 436.39 204.37 436.39 203.77L436.39 199.74C436.39 199.12 436.91 198.62 437.51 198.62L484.64 198.62C485.26 198.62 485.76 199.13 485.76 199.74L485.76 203.77C485.76 204.37 485.26 204.88 484.64 204.88Z" fill="#FFFFFF" fill-opacity="1.000000" fill-rule="nonzero"/>
	<path id="Vector (Stroke)" d="M437.51 199.1C437.17 199.1 436.87 199.39 436.87 199.74L436.87 203.77C436.87 204.11 437.16 204.41 437.51 204.41L484.64 204.41C484.99 204.41 485.28 204.11 485.28 203.77L485.28 199.74C485.28 199.39 484.99 199.1 484.64 199.1L437.51 199.1ZM435.92 199.74C435.92 198.85 436.65 198.15 437.51 198.15L484.64 198.15C485.53 198.15 486.24 198.87 486.24 199.74L486.24 203.77C486.24 204.63 485.53 205.36 484.64 205.36L437.51 205.36C436.62 205.36 435.92 204.63 435.92 203.77L435.92 199.74Z" fill="#9A3B82" fill-opacity="1.000000" fill-rule="evenodd"/>
	<path id="Vector (Stroke)" d="M336.39 184.88L355.48 184.88L355.48 235.04L336.39 235.04L336.39 184.88ZM337.35 185.83L337.35 234.08L354.52 234.08L354.52 185.83L337.35 185.83Z" fill="#9A3B82" fill-opacity="1.000000" fill-rule="evenodd"/>
	<path id="Vector" d="M336.87 185.35L329.56 185.35L329.56 234.56L336.87 234.56L336.87 185.35Z" fill="#FFFFFF" fill-opacity="1.000000" fill-rule="nonzero"/>
	<path id="Vector (Stroke)" d="M329.08 184.88L337.35 184.88L337.35 235.04L329.08 235.04L329.08 184.88ZM330.04 185.83L330.04 234.08L336.39 234.08L336.39 185.83L330.04 185.83Z" fill="#9A3B82" fill-opacity="1.000000" fill-rule="evenodd"/>
	<path id="Vector" d="M329.56 185.35L317.26 185.35L317.26 234.56L329.56 234.56L329.56 185.35Z" fill="#FFFFFF" fill-opacity="1.000000" fill-rule="nonzero"/>
	<path id="Vector (Stroke)" d="M316.78 184.88L330.04 184.88L330.04 235.04L316.78 235.04L316.78 184.88ZM317.74 185.83L317.74 234.08L329.08 234.08L329.08 185.83L317.74 185.83Z" fill="#9A3B82" fill-opacity="1.000000" fill-rule="evenodd"/>
	<path id="Vector (Stroke)" d="M356.92 193.77L373.76 193.77L373.76 235.05L356.92 235.05L356.92 193.77ZM357.87 194.72L357.87 234.1L372.81 234.1L372.81 194.72L357.87 194.72Z" fill="#9A3B82" fill-opacity="1.000000" fill-rule="evenodd"/>
	<path id="Vector" d="M358.54 234.56L352.28 234.56C351.68 234.56 351.17 234.07 351.17 233.44L351.17 195.33C351.17 194.72 351.66 194.21 352.28 194.21L358.54 194.21C359.15 194.21 359.66 194.7 359.66 195.33L359.66 233.44C359.65 234.07 359.15 234.56 358.54 234.56Z" fill="#FFFFFF" fill-opacity="1.000000" fill-rule="nonzero"/>
	<path id="Vector (Stroke)" d="M352.28 194.69C351.93 194.69 351.65 194.98 351.65 195.33L351.65 233.45C351.65 233.8 351.94 234.08 352.28 234.08L358.54 234.08C358.88 234.08 359.17 233.81 359.18 233.44L359.18 195.33C359.18 194.97 358.89 194.69 358.54 194.69L352.28 194.69ZM350.69 195.33C350.69 194.46 351.39 193.73 352.28 193.73L358.54 193.73C359.41 193.73 360.14 194.44 360.14 195.33L360.14 233.45L360.14 233.46C360.12 234.33 359.42 235.04 358.54 235.04L352.28 235.04C351.42 235.04 350.69 234.34 350.69 233.45L350.69 195.33Z" fill="#9A3B82" fill-opacity="1.000000" fill-rule="evenodd"/>
	<path id="Vector" d="M373.28 194.24L373.28 216.35L364.68 194.24L373.28 194.24Z" fill="#9A3B82" fill-opacity="1.000000" fill-rule="nonzero"/>
	<path id="Vector" d="M410.08 234.56L384.65 234.56C384.09 234.56 383.58 234.21 383.39 233.7L366.88 191.3C366.53 190.4 367.18 189.45 368.14 189.45L393.56 189.45C394.12 189.45 394.63 189.8 394.83 190.31L411.34 232.71C411.69 233.61 411.04 234.56 410.08 234.56Z" fill="#FFFFFF" fill-opacity="1.000000" fill-rule="nonzero"/>
	<path id="Vector (Stroke)" d="M368.14 189.93C367.52 189.93 367.1 190.54 367.33 191.12L367.33 191.12L383.84 233.53L383.84 233.53C383.96 233.85 384.29 234.08 384.65 234.08L410.08 234.08C410.7 234.08 411.12 233.47 410.89 232.89L394.38 190.48L394.38 190.48C394.26 190.16 393.93 189.93 393.57 189.93L368.14 189.93ZM366.43 191.47C365.96 190.27 366.85 188.97 368.14 188.97L393.57 188.97C394.32 188.97 395.01 189.44 395.27 190.14C395.27 190.14 395.27 190.14 395.28 190.14L411.79 232.54C411.79 232.54 411.79 232.54 411.79 232.54C412.26 233.74 411.37 235.04 410.08 235.04L384.65 235.04C383.9 235.04 383.21 234.57 382.95 233.87C382.94 233.87 382.94 233.87 382.94 233.87L366.43 191.47C366.43 191.47 366.43 191.47 366.43 191.47Z" fill="#FFCF2D" fill-opacity="1.000000" fill-rule="evenodd"/>
	<path id="Vector" d="M414.23 234.56L388.81 234.56C388.25 234.56 387.74 234.21 387.54 233.7L371.03 191.3C370.68 190.4 371.33 189.45 372.29 189.45L397.72 189.45C398.27 189.45 398.79 189.8 398.98 190.31L415.49 232.71C415.84 233.61 415.19 234.56 414.23 234.56Z" fill="#FFFFFF" fill-opacity="1.000000" fill-rule="nonzero"/>
	<path id="Vector (Stroke)" d="M372.29 189.93C371.67 189.93 371.25 190.54 371.48 191.12L371.48 191.12L387.99 233.53L387.99 233.53C388.11 233.85 388.44 234.08 388.81 234.08L414.23 234.08C414.85 234.08 415.27 233.47 415.04 232.89L398.53 190.48L398.53 190.48C398.41 190.16 398.08 189.93 397.72 189.93L372.29 189.93ZM370.59 191.47C370.11 190.27 371 188.97 372.29 188.97L397.72 188.97C398.47 188.97 399.16 189.44 399.43 190.14C399.43 190.14 399.43 190.14 399.43 190.14L415.94 232.54C415.94 232.54 415.94 232.54 415.94 232.54C416.41 233.74 415.52 235.04 414.23 235.04L388.81 235.04C388.05 235.04 387.36 234.57 387.1 233.87C387.1 233.87 387.1 233.87 387.1 233.87L370.59 191.47C370.59 191.47 370.59 191.47 370.59 191.47Z" fill="#FFCF2D" fill-opacity="1.000000" fill-rule="evenodd"/>
	<path id="Vector (Stroke)" d="M444.12 107.33L459.47 160.75L459.01 160.88C456.59 161.56 454.02 161.94 451.39 161.94C436 161.94 423.54 149.5 423.54 134.16C423.54 121.5 432.04 110.8 443.65 107.46L444.12 107.33ZM443.46 108.52C432.48 111.89 424.5 122.1 424.5 134.16C424.5 148.98 436.53 160.98 451.39 160.98C453.76 160.98 456.08 160.67 458.28 160.09L443.46 108.52Z" fill="#FFCF2D" fill-opacity="1.000000" fill-rule="evenodd"/>
	<path id="Vector (Stroke)" d="M450.91 171.19L450.91 161.46L451.87 161.46L451.87 171.19L450.91 171.19Z" fill="#FFCF2D" fill-opacity="1.000000" fill-rule="evenodd"/>
	<path id="Vector" d="M451.39 157.28C464.19 157.28 474.58 146.93 474.58 134.16C474.58 121.38 464.19 111.02 451.39 111.02C438.58 111.02 428.2 121.38 428.2 134.16C428.2 146.93 438.58 157.28 451.39 157.28Z" fill="#FFFFFF" fill-opacity="1.000000" fill-rule="nonzero"/>
	<path id="Vector (Stroke)" d="M451.39 111.5C438.85 111.5 428.68 121.65 428.68 134.16C428.68 146.67 438.85 156.81 451.39 156.81C463.93 156.81 474.1 146.67 474.1 134.16C474.1 121.65 463.93 111.5 451.39 111.5ZM427.72 134.16C427.72 121.12 438.32 110.55 451.39 110.55C464.46 110.55 475.06 121.12 475.06 134.16C475.06 147.19 464.46 157.77 451.39 157.77C438.32 157.77 427.72 147.19 427.72 134.16Z" fill="#3FB1B5" fill-opacity="1.000000" fill-rule="evenodd"/>
	<path id="Vector" d="M461.08 171.13L441.77 171.13L451.36 166.33L461.08 171.13Z" fill="#FFFFFF" fill-opacity="1.000000" fill-rule="nonzero"/>
	<path id="Vector (Stroke)" d="M451.35 165.8L463.13 171.61L439.75 171.61L451.35 165.8ZM451.36 166.87L443.8 170.65L459.03 170.65L451.36 166.87Z" fill="#FFCF2D" fill-opacity="1.000000" fill-rule="evenodd"/>
	<path id="Vector (Stroke)" d="M316.58 170.71L486.23 170.71L486.23 453.99L476.54 453.99L476.54 432.97C476.54 428.66 473.04 425.16 468.72 425.16L334 425.16C329.68 425.16 326.17 428.66 326.17 432.97L326.17 453.99L316.58 453.99L316.58 170.71ZM317.53 171.67L317.53 453.04L325.22 453.04L325.22 432.97C325.22 428.13 329.15 424.2 334 424.2L468.72 424.2C473.56 424.2 477.5 428.13 477.5 432.97L477.5 453.04L485.28 453.04L485.28 171.67L317.53 171.67Z" fill="#9A3B82" fill-opacity="1.000000" fill-rule="evenodd"/>
	<path id="Vector (Stroke)" d="M328.86 369.12C327.27 369.12 326 370.4 326 371.97L326 413.53C326 415.11 327.28 416.38 328.86 416.38L473.64 416.38C475.21 416.38 476.49 415.11 476.49 413.53L476.49 371.97C476.49 370.39 475.21 369.12 473.64 369.12L328.86 369.12ZM325.04 371.97C325.04 369.88 326.74 368.16 328.86 368.16L473.64 368.16C475.74 368.16 477.45 369.86 477.45 371.97L477.45 413.53C477.45 415.64 475.74 417.34 473.64 417.34L328.86 417.34C326.76 417.34 325.04 415.64 325.04 413.53L325.04 371.97Z" fill="#3FB1B5" fill-opacity="1.000000" fill-rule="evenodd"/>
	<path id="Vector" d="M408.88 132.42L408.88 171.19L395.27 171.19L408.88 132.42Z" fill="#9A3B82" fill-opacity="1.000000" fill-rule="nonzero"/>
	<path id="Vector" d="M408.88 132.42L408.78 132.71L395.35 171.19L332.91 171.19L346.34 132.71L346.77 131.48C348.79 128.6 354.36 126.49 361 126.38C361.11 126.38 361.21 126.38 361.32 126.38C361.43 126.38 361.53 126.38 361.64 126.38C369.4 126.38 376.32 129.07 377.58 132.61C378.82 129.07 385.44 126.38 393.2 126.38C400.8 126.38 407.46 128.98 408.88 132.42Z" fill="#FFFFFF" fill-opacity="1.000000" fill-rule="nonzero"/>
	<path id="Vector (Stroke)" d="M361 125.9L361.64 125.9C365.57 125.9 369.3 126.59 372.22 127.72C374.65 128.67 376.59 129.97 377.58 131.52C378.53 129.97 380.41 128.67 382.77 127.73C385.61 126.59 389.27 125.9 393.2 125.9C397.05 125.9 400.67 126.56 403.53 127.66C406.36 128.76 408.54 130.33 409.32 132.24L409.39 132.4L409.24 132.86L395.69 171.67L332.24 171.67L345.89 132.55L346.34 131.26L346.38 131.21C347.47 129.65 349.47 128.36 351.99 127.44C354.52 126.52 357.63 125.96 361 125.9L361 125.9ZM361.01 126.86C357.73 126.92 354.73 127.46 352.32 128.34C349.92 129.21 348.14 130.39 347.2 131.7L346.8 132.86L333.59 170.71L395.01 170.71L408.33 132.55L408.33 132.55L408.37 132.44C407.67 130.97 405.84 129.58 403.18 128.56C400.45 127.5 396.95 126.86 393.2 126.86C389.37 126.86 385.84 127.52 383.12 128.61C380.39 129.71 378.58 131.2 378.03 132.77L377.58 134.04L377.13 132.77C376.57 131.21 374.7 129.72 371.87 128.61C369.08 127.52 365.47 126.86 361.64 126.86L361.01 126.86Z" fill="#FFCF2D" fill-opacity="1.000000" fill-rule="evenodd"/>
	<path id="Vector (Stroke)" d="M377.72 132.16C377.97 132.25 378.1 132.52 378.01 132.77L364.46 170.56C364.37 170.81 364.09 170.93 363.84 170.85C363.59 170.76 363.46 170.48 363.55 170.23L377.11 132.45C377.2 132.2 377.47 132.07 377.72 132.16Z" fill="#FFCF2D" fill-opacity="1.000000" fill-rule="evenodd"/>
	<path id="Vector" d="M363.97 170.71L332.91 170.71C334.06 167.13 340.51 164.37 348.28 164.37C356.07 164.37 362.82 167.13 363.97 170.71Z" fill="#FFCF2D" fill-opacity="1.000000" fill-rule="nonzero"/>
	<path id="Vector" d="M395.27 170.71L364.21 170.71C365.36 167.13 371.81 164.37 379.58 164.37C387.37 164.37 394.12 167.13 395.27 170.71Z" fill="#FFCF2D" fill-opacity="1.000000" fill-rule="nonzero"/>
	<path id="Vector (Stroke)" d="M393.12 379.17C392.12 379.17 391.33 379.97 391.33 380.95C391.33 381.22 391.11 381.43 390.85 381.43C390.58 381.43 390.37 381.22 390.37 380.95C390.37 379.45 391.59 378.21 393.12 378.21L410.06 378.21C411.57 378.21 412.81 379.43 412.81 380.95C412.81 381.22 412.59 381.43 412.33 381.43C412.06 381.43 411.85 381.22 411.85 380.95C411.85 379.96 411.04 379.17 410.06 379.17L393.12 379.17Z" fill="#9A3B82" fill-opacity="1.000000" fill-rule="evenodd"/>
	<path id="Vector (Stroke)" d="M316.58 297.95C316.58 297.68 316.79 297.47 317.06 297.47L485.76 297.47C486.02 297.47 486.23 297.68 486.23 297.95C486.23 298.21 486.02 298.42 485.76 298.42L317.06 298.42C316.79 298.42 316.58 298.21 316.58 297.95Z" fill="#9A3B82" fill-opacity="1.000000" fill-rule="evenodd"/>
	<path id="Vector (Stroke)" d="M316.58 234.56C316.58 234.3 316.79 234.08 317.06 234.08L485.76 234.08C486.02 234.08 486.23 234.3 486.23 234.56C486.23 234.83 486.02 235.04 485.76 235.04L317.06 235.04C316.79 235.04 316.58 234.83 316.58 234.56Z" fill="#9A3B82" fill-opacity="1.000000" fill-rule="evenodd"/>
	<path id="Vector (Stroke)" d="M316.58 361.32C316.58 361.05 316.79 360.84 317.06 360.84L485.76 360.84C486.02 360.84 486.23 361.05 486.23 361.32C486.23 361.58 486.02 361.79 485.76 361.79L317.06 361.79C316.79 361.79 316.58 361.58 316.58 361.32Z" fill="#9A3B82" fill-opacity="1.000000" fill-rule="evenodd"/>
	<path id="Vector (Stroke)" d="M337.97 111.55C338.22 111.63 338.35 111.91 338.27 112.16L317.73 170.71L485.42 170.71L506.06 111.84C506.15 111.59 506.42 111.46 506.67 111.55C506.92 111.63 507.06 111.91 506.97 112.16L486.21 171.35C486.14 171.54 485.96 171.67 485.76 171.67L317.06 171.67C316.9 171.67 316.75 171.6 316.66 171.47C316.57 171.34 316.55 171.18 316.6 171.03L337.36 111.84C337.45 111.59 337.72 111.46 337.97 111.55Z" fill="#9A3B82" fill-opacity="1.000000" fill-rule="evenodd"/>
	<path id="Vector" d="M145.83 432.94L145.83 450.27C145.83 452.07 147.28 453.52 149.09 453.52L192.52 453.52C192.52 453.52 192.78 445.47 186.17 443.23C174.94 439.42 169.7 432.94 169.7 432.94L145.83 432.94Z" fill="#FFFFFF" fill-opacity="1.000000" fill-rule="nonzero"/>
	<path id="Vector (Stroke)" d="M145.83 432.46L169.93 432.46L170.08 432.64L170.08 432.64L170.08 432.64C170.08 432.64 170.08 432.65 170.09 432.65C170.1 432.66 170.11 432.68 170.13 432.7C170.17 432.75 170.23 432.82 170.31 432.9C170.47 433.08 170.71 433.35 171.04 433.67C171.69 434.33 172.68 435.24 174.02 436.28C176.7 438.35 180.77 440.89 186.32 442.77L186.32 442.77C189.82 443.96 191.49 446.69 192.28 449.06C192.68 450.25 192.86 451.36 192.94 452.18C192.98 452.59 193 452.92 193 453.16C193.01 453.27 193.01 453.36 193.01 453.43C193.01 453.46 193 453.49 193 453.5C193 453.51 193 453.52 193 453.52L193 453.53L193 453.53C193 453.53 193 453.53 192.53 453.52L193 453.53L192.99 454L149.09 454C147.02 454 145.35 452.33 145.35 450.27L145.35 432.94L145.83 432.94L145.83 432.46ZM146.31 433.41L146.31 450.27C146.31 451.8 147.55 453.04 149.09 453.04L192.04 453.04C192.03 452.84 192.02 452.58 191.98 452.27C191.91 451.51 191.74 450.47 191.37 449.36C190.64 447.16 189.13 444.74 186.02 443.68C180.34 441.76 176.18 439.16 173.43 437.03C172.06 435.97 171.04 435.03 170.36 434.35C170.02 434.01 169.77 433.73 169.59 433.54C169.55 433.49 169.52 433.45 169.48 433.41L146.31 433.41Z" fill="#FE5244" fill-opacity="1.000000" fill-rule="evenodd"/>
	<path id="Vector (Stroke)" d="M175.04 434.7C175.48 434.76 175.95 434.92 176.3 435.27C176.65 435.62 176.84 436.01 176.89 436.44C176.93 436.86 176.82 437.27 176.63 437.64C176.27 438.39 175.55 439.1 174.76 439.72C173.18 440.96 171.08 442 170.12 442.27L169.86 441.35C170.68 441.12 172.66 440.15 174.17 438.97C174.92 438.38 175.5 437.77 175.77 437.22C175.91 436.95 175.95 436.73 175.93 436.53C175.91 436.35 175.83 436.16 175.63 435.95C175.47 435.79 175.23 435.69 174.91 435.65C174.6 435.61 174.24 435.64 173.89 435.7C173.55 435.76 173.22 435.85 172.99 435.92C172.87 435.96 172.78 435.99 172.71 436.02C172.68 436.03 172.66 436.04 172.64 436.05C172.63 436.05 172.63 436.05 172.62 436.05L172.62 436.05C172.62 436.05 172.62 436.05 172.44 435.61C172.25 435.17 172.25 435.17 172.25 435.17L172.25 435.17L172.26 435.17L172.26 435.17C172.27 435.17 172.28 435.16 172.29 435.16C172.31 435.15 172.34 435.14 172.38 435.12C172.45 435.1 172.56 435.06 172.69 435.01C172.96 434.93 173.32 434.82 173.73 434.75C174.13 434.68 174.59 434.65 175.04 434.7Z" fill="#FE5244" fill-opacity="1.000000" fill-rule="evenodd"/>
	<path id="Vector (Stroke)" d="M182.33 437.47C181.17 436.53 179.77 437.02 178.84 437.56C178.35 437.85 177.92 438.18 177.63 438.43C177.48 438.56 177.36 438.67 177.27 438.75C177.23 438.79 177.2 438.82 177.17 438.84C177.16 438.85 177.15 438.86 177.15 438.87L177.14 438.88L177.14 438.88L177.14 438.88C177.14 438.88 177.14 438.88 177.48 439.21C177.83 439.54 177.83 439.54 177.83 439.54L177.83 439.54L177.83 439.54C177.84 439.53 177.84 439.53 177.85 439.52C177.87 439.5 177.9 439.47 177.93 439.44C178.01 439.37 178.11 439.27 178.25 439.16C178.52 438.92 178.89 438.63 179.32 438.39C180.2 437.88 181.08 437.68 181.73 438.21L181.73 438.21C181.96 438.4 182.06 438.58 182.09 438.74C182.13 438.92 182.11 439.13 182 439.4C181.78 439.94 181.25 440.57 180.54 441.2C179.84 441.82 179.01 442.4 178.24 442.86C177.46 443.32 176.79 443.63 176.41 443.74L176.67 444.66C177.17 444.52 177.93 444.15 178.73 443.68C179.54 443.2 180.42 442.58 181.17 441.92C181.92 441.26 182.58 440.51 182.89 439.76C183.04 439.38 183.12 438.96 183.03 438.55C182.95 438.13 182.71 437.77 182.33 437.47Z" fill="#FE5244" fill-opacity="1.000000" fill-rule="evenodd"/>
	<path id="Vector" d="M171.05 434.34L145.83 442.16L145.83 432.94L169.72 432.94C169.72 432.94 170.15 433.48 171.05 434.34Z" fill="#FE5244" fill-opacity="1.000000" fill-rule="nonzero"/>
	<path id="Vector" d="M200.29 432.94L200.29 450.27C200.29 452.07 201.74 453.52 203.54 453.52L246.98 453.52C246.98 453.52 247.24 445.47 240.62 443.23C229.4 439.42 224.16 432.94 224.16 432.94L200.29 432.94Z" fill="#FFFFFF" fill-opacity="1.000000" fill-rule="nonzero"/>
	<path id="Vector (Stroke)" d="M200.29 432.46L224.39 432.46L224.53 432.64L224.53 432.64L224.54 432.64C224.54 432.64 224.54 432.65 224.54 432.65C224.55 432.66 224.57 432.68 224.59 432.7C224.63 432.75 224.68 432.82 224.76 432.9C224.92 433.08 225.17 433.35 225.49 433.67C226.15 434.33 227.14 435.24 228.48 436.28C231.15 438.35 235.22 440.89 240.78 442.77L240.78 442.77C244.28 443.96 245.95 446.69 246.74 449.06C247.13 450.25 247.31 451.36 247.39 452.18C247.43 452.59 247.45 452.92 247.46 453.16C247.46 453.27 247.46 453.36 247.46 453.43C247.46 453.46 247.46 453.49 247.46 453.5C247.46 453.51 247.46 453.52 247.46 453.52L247.46 453.53L247.46 453.53C247.46 453.53 247.46 453.53 246.98 453.52L247.46 453.53L247.44 454L203.54 454C201.47 454 199.81 452.33 199.81 450.27L199.81 432.94L200.29 432.94L200.29 432.46ZM200.76 433.41L200.76 450.27C200.76 451.8 202 453.04 203.54 453.04L246.49 453.04C246.49 452.84 246.47 452.58 246.44 452.27C246.36 451.51 246.19 450.47 245.83 449.36C245.09 447.16 243.58 444.74 240.47 443.68C234.8 441.76 230.64 439.16 227.89 437.03C226.51 435.97 225.49 435.03 224.81 434.35C224.47 434.01 224.22 433.73 224.05 433.54C224.01 433.49 223.97 433.45 223.94 433.41L200.76 433.41Z" fill="#FE5244" fill-opacity="1.000000" fill-rule="evenodd"/>
	<path id="Vector (Stroke)" d="M229.49 434.7C229.94 434.76 230.4 434.92 230.76 435.27C231.1 435.62 231.3 436.01 231.34 436.44C231.38 436.86 231.28 437.27 231.09 437.64C230.72 438.39 230.01 439.1 229.22 439.72C227.63 440.96 225.54 442 224.58 442.27L224.32 441.35C225.13 441.12 227.12 440.15 228.62 438.97C229.38 438.38 229.96 437.77 230.23 437.22C230.36 436.95 230.41 436.73 230.39 436.53C230.37 436.35 230.29 436.16 230.08 435.95C229.92 435.79 229.68 435.69 229.37 435.65C229.06 435.61 228.7 435.64 228.35 435.7C228 435.76 227.68 435.85 227.44 435.92C227.33 435.96 227.23 435.99 227.17 436.02C227.14 436.03 227.11 436.04 227.1 436.05C227.09 436.05 227.08 436.05 227.08 436.05L227.08 436.05C227.08 436.05 227.08 436.05 226.89 435.61C226.71 435.17 226.71 435.17 226.71 435.17L226.71 435.17L226.71 435.17L226.72 435.17C226.72 435.17 226.73 435.16 226.74 435.16C226.76 435.15 226.79 435.14 226.83 435.12C226.91 435.1 227.02 435.06 227.15 435.01C227.41 434.93 227.78 434.82 228.18 434.75C228.59 434.68 229.05 434.65 229.49 434.7Z" fill="#FE5244" fill-opacity="1.000000" fill-rule="evenodd"/>
	<path id="Vector (Stroke)" d="M236.79 437.47C235.62 436.53 234.22 437.02 233.29 437.56C232.8 437.85 232.38 438.18 232.08 438.43C231.93 438.56 231.81 438.67 231.73 438.75C231.69 438.79 231.65 438.82 231.63 438.84C231.62 438.85 231.61 438.86 231.6 438.87L231.6 438.88L231.59 438.88L231.59 438.88C231.59 438.88 231.59 438.88 231.94 439.21C232.28 439.54 232.28 439.54 232.28 439.54L232.28 439.54L232.29 439.54C232.29 439.53 232.3 439.53 232.31 439.52C232.33 439.5 232.35 439.47 232.39 439.44C232.46 439.37 232.57 439.27 232.7 439.16C232.97 438.92 233.35 438.63 233.77 438.39C234.66 437.88 235.53 437.68 236.19 438.21L236.19 438.21C236.42 438.4 236.51 438.58 236.55 438.74C236.58 438.92 236.56 439.13 236.45 439.4C236.23 439.94 235.7 440.57 234.99 441.2C234.29 441.82 233.46 442.4 232.7 442.86C231.92 443.32 231.25 443.63 230.87 443.74L231.12 444.66C231.63 444.52 232.39 444.15 233.19 443.68C233.99 443.2 234.88 442.58 235.63 441.92C236.37 441.26 237.04 440.51 237.34 439.76C237.5 439.38 237.57 438.96 237.49 438.55C237.4 438.13 237.16 437.77 236.79 437.47Z" fill="#FE5244" fill-opacity="1.000000" fill-rule="evenodd"/>
	<path id="Vector" d="M225.5 434.34L200.29 442.16L200.29 432.94L224.18 432.94C224.18 432.94 224.61 433.48 225.5 434.34Z" fill="#FE5244" fill-opacity="1.000000" fill-rule="nonzero"/>
	<path id="Vector" d="M157.57 260.42L141.84 424.68L174.74 424.68L191.27 345.08L198.02 362.05L198.02 424.68L232.28 424.68L232.28 354.45L214.01 260.42L157.57 260.42Z" fill="#3FB1B5" fill-opacity="1.000000" fill-rule="nonzero"/>
	<path id="Vector (Stroke)" d="M158.93 424.63L174.23 299.82L175.18 299.93L159.88 424.74L158.93 424.63Z" fill="#9A3B82" fill-opacity="1.000000" fill-rule="evenodd"/>
	<path id="Vector (Stroke)" d="M193.55 268.27L215.03 354.39L215.03 424.68L214.07 424.68L214.07 354.51L192.62 268.5L193.55 268.27Z" fill="#9A3B82" fill-opacity="1.000000" fill-rule="evenodd"/>
	<path id="Vector (Stroke)" d="M177.49 302.49C177.49 302.49 177.49 302.49 177.49 302.49L198 361.89L197.09 362.2L176.58 302.8C175.95 300.96 174.2 299.71 172.23 299.71L172.23 298.76C174.61 298.76 176.72 300.26 177.49 302.49Z" fill="#FFFFFF" fill-opacity="1.000000" fill-rule="evenodd"/>
	<path id="Vector" d="M154.97 287.58L157.57 260.42L214.01 260.42L215.62 268.76L154.97 287.58Z" fill="#9A3B82" fill-opacity="1.000000" fill-rule="nonzero"/>
	<path id="Vector" d="M232.34 432.94L197.89 432.94C196.6 432.94 195.55 431.89 195.55 430.6L195.55 427.03C195.55 425.74 196.6 424.68 197.89 424.68L232.34 424.68C233.63 424.68 234.69 425.74 234.69 427.03L234.69 430.6C234.67 431.89 233.63 432.94 232.34 432.94Z" fill="#9A3B82" fill-opacity="1.000000" fill-rule="nonzero"/>
	<path id="Vector" d="M175.33 432.94L140.88 432.94C139.59 432.94 138.53 431.89 138.53 430.6L138.53 427.03C138.53 425.74 139.59 424.68 140.88 424.68L175.33 424.68C176.62 424.68 177.68 425.74 177.68 427.03L177.68 430.6C177.66 431.89 176.62 432.94 175.33 432.94Z" fill="#9A3B82" fill-opacity="1.000000" fill-rule="nonzero"/>
	<path id="Vector" d="M267.26 265.23L278.06 305.51L224.24 319.87L213.43 279.55C213.09 278.29 212.28 277.3 211.24 276.7C210.2 276.09 208.93 275.88 207.66 276.22C205.16 276.89 203.66 279.47 204.33 281.97L215.14 322.29L213.96 322.61L203.16 282.32C202.3 279.12 204.15 275.84 207.31 274.88C207.38 274.86 207.44 274.85 207.5 274.83L259.76 260.89C263.03 260.03 266.38 261.98 267.26 265.23Z" fill="#66B0F0" fill-opacity="1.000000" fill-rule="nonzero"/>
	<path id="Vector" d="M214.63 279.28L225.42 319.56L224.24 319.88L213.43 279.56C213.09 278.31 212.28 277.32 211.24 276.71C210.2 276.11 208.93 275.9 207.66 276.24C205.16 276.9 203.66 279.48 204.33 281.99L215.14 322.3L213.96 322.62L203.16 282.34C202.3 279.13 204.15 275.85 207.31 274.9C210.52 274.15 213.76 276.07 214.63 279.28Z" fill="#9A3B82" fill-opacity="1.000000" fill-rule="nonzero"/>
	<path id="Vector" d="M213.43 279.55L223.57 317.4L214.47 319.82L204.33 281.97C203.66 279.47 205.14 276.89 207.66 276.22C208.93 275.88 210.2 276.09 211.24 276.7C212.28 277.3 213.09 278.29 213.43 279.55Z" fill="#FFFFFF" fill-opacity="1.000000" fill-rule="nonzero"/>
	<path id="Vector" d="M267.42 286.57L242.94 294.98L223.62 260.42L148.72 260.42C135.99 260.42 126.48 248.74 129.08 236.31L136.87 198.98C139.32 187.28 149.65 178.9 161.61 178.9L212.82 178.9C225.23 178.9 235.8 187.89 237.77 200.11L245.48 236.46L267.42 286.57Z" fill="#FFCF2D" fill-opacity="1.000000" fill-rule="nonzero"/>
	<path id="Vector (Stroke)" d="M137.34 199.07L129.55 236.41L129.55 236.41C127.01 248.54 136.3 259.94 148.72 259.94L223.9 259.94L243.16 294.4L266.78 286.29L245.02 236.6L237.3 200.19L237.29 200.18C235.37 188.19 225 179.38 212.82 179.38L161.61 179.38C149.88 179.38 139.74 187.6 137.34 199.07ZM136.4 198.88C138.89 186.96 149.42 178.43 161.61 178.43L212.82 178.43C225.46 178.43 236.23 187.57 238.24 200.02L245.94 236.31L268.07 286.85L242.72 295.57L223.34 260.89L148.72 260.89C135.69 260.89 125.95 248.94 128.61 236.22L136.4 198.88Z" fill="#FFFFFF" fill-opacity="1.000000" fill-rule="evenodd"/>
	<path id="Vector" d="M144.73 260.02C135.91 258.25 129.37 250.76 128.7 241.94C129.37 241.48 130.12 241.08 130.92 240.79C136.71 238.66 143.34 242.16 145.75 248.61C147.24 252.66 146.73 256.9 144.73 260.02Z" fill="#FFFFFF" fill-opacity="1.000000" fill-rule="nonzero"/>
	<path id="NECK" d="M200.49 156.51L200.49 178.92L175.69 178.92L181.41 164.01L200.49 156.51Z" fill="#E57281" fill-opacity="1.000000" fill-rule="nonzero"/>
	<path id="HAIR" d="M206.2 147.08C206.18 147.08 206.15 147.09 206.13 147.09L198.77 149.04C196.13 149.74 194.11 151.68 193.24 154.13L190.42 154.13C188.63 154.13 187.18 155.58 187.18 157.37L187.18 157.42C187.18 159.1 188.47 160.49 190.13 160.63C190.11 160.65 190.11 160.65 190.11 160.65C190.11 160.65 188.8 166.86 181.16 164.77C181.16 164.77 181.46 148.43 181.78 143.35C182.05 139.16 204.33 131.23 206.39 134.6C208.21 137.6 206.1 139 204.31 139.62C207.47 138.95 213.45 138.06 214.05 140.72C214.75 143.81 208.45 146.49 206.2 147.08Z" fill="#9A3B82" fill-opacity="1.000000" fill-rule="nonzero"/>
	<path id="Vector" d="M207.63 158.53L206.85 158.53L207.07 162.35C207.23 165.09 205.03 167.42 202.28 167.42L198.83 167.42C195.51 167.42 192.81 164.73 192.81 161.41L192.81 160.67L190.43 160.67C188.64 160.67 187.19 159.22 187.19 157.43L187.19 157.38C187.19 155.6 188.64 154.15 190.43 154.15L193.26 154.15C194.12 151.7 196.15 149.74 198.79 149.05L206.15 147.11L208.67 157.19C208.93 157.83 208.32 158.53 207.63 158.53Z" fill="#E57281" fill-opacity="1.000000" fill-rule="nonzero"/>
	<path id="Vector (Stroke)" d="M193.6 161.32C193.82 161.34 193.98 161.53 193.96 161.75C193.81 163.35 194.53 164.73 195.7 165.73C196.88 166.73 198.5 167.32 200.06 167.32C200.29 167.32 200.46 167.5 200.46 167.72C200.46 167.94 200.29 168.12 200.06 168.12C198.31 168.12 196.51 167.46 195.18 166.34C193.85 165.21 192.99 163.59 193.17 161.68C193.19 161.46 193.38 161.3 193.6 161.32Z" fill="#9A3B82" fill-opacity="1.000000" fill-rule="evenodd"/>
	<path id="Vector (Stroke)" d="M189.62 155.73C189.62 155.5 189.8 155.33 190.02 155.33C191.49 155.33 192.67 156.51 192.67 157.97C192.67 158.19 192.49 158.37 192.27 158.37C192.05 158.37 191.87 158.19 191.87 157.97C191.87 156.95 191.04 156.12 190.02 156.12C189.8 156.12 189.62 155.95 189.62 155.73Z" fill="#9A3B82" fill-opacity="1.000000" fill-rule="evenodd"/>
	<path id="Vector" d="M204.92 155.69C205.24 155.69 205.51 155.14 205.51 154.47C205.51 153.79 205.24 153.24 204.92 153.24C204.59 153.24 204.33 153.79 204.33 154.47C204.33 155.14 204.59 155.69 204.92 155.69Z" fill="#9A3B82" fill-opacity="1.000000" fill-rule="nonzero"/>
	<path id="Vector (Stroke)" d="M202.36 151.89L202.12 151.57C201.95 151.7 201.91 151.95 202.05 152.13C202.18 152.3 202.43 152.34 202.61 152.2L202.61 152.2C202.61 152.2 202.62 152.2 202.62 152.19C202.63 152.18 202.65 152.17 202.68 152.15C202.73 152.11 202.82 152.06 202.92 151.99C203.14 151.86 203.46 151.68 203.86 151.5C204.67 151.14 205.8 150.79 207.14 150.79C207.36 150.79 207.54 150.61 207.54 150.39C207.54 150.17 207.36 149.99 207.14 149.99C205.66 149.99 204.41 150.38 203.53 150.77C203.09 150.97 202.75 151.17 202.5 151.31C202.38 151.39 202.29 151.45 202.23 151.5C202.19 151.52 202.17 151.54 202.15 151.55C202.14 151.55 202.14 151.56 202.13 151.56L202.12 151.57L202.12 151.57L202.12 151.57L202.12 151.57C202.12 151.57 202.12 151.57 202.36 151.89Z" fill="#9A3B82" fill-opacity="1.000000" fill-rule="evenodd"/>
	<path id="Vector" d="M194.76 270.63C194.76 270.63 214.32 271.47 221.21 255.81L217.57 249.17L206.69 253.35L194.76 270.63Z" fill="#FFFFFF" fill-opacity="1.000000" fill-rule="nonzero"/>
	<path id="Vector (Stroke)" d="M217.79 248.58L221.74 255.79L221.65 256.01C218.13 264.01 211.37 267.78 205.54 269.55C202.63 270.44 199.93 270.82 197.97 270.99C196.98 271.07 196.18 271.1 195.62 271.11C195.34 271.12 195.12 271.11 194.97 271.11C194.9 271.11 194.84 271.11 194.8 271.11C194.78 271.11 194.77 271.11 194.76 271.11L194.75 271.11L194.74 271.11C194.74 271.11 194.74 271.11 194.76 270.63L194.74 271.11L193.88 271.07L206.38 252.95L217.79 248.58ZM195.67 270.16C196.2 270.15 196.96 270.12 197.88 270.04C199.8 269.88 202.43 269.5 205.26 268.64C210.88 266.93 217.28 263.35 220.67 255.84L217.35 249.77L207 253.74L195.67 270.16Z" fill="#FE5244" fill-opacity="1.000000" fill-rule="evenodd"/>
	<path id="Vector" d="M210.43 174.81C209.49 174.89 208.62 175.3 207.98 175.94C207.28 176.64 206.83 177.61 206.83 178.7L206.83 257.18C206.83 264.67 200.75 270.74 193.25 270.74L163.08 270.74C154.97 270.74 148.71 263.71 149.57 255.73L149.57 255.72L160.43 181.21C160.97 177.53 164.12 174.81 167.85 174.81L210.43 174.81Z" fill="#FE5244" fill-opacity="1.000000" fill-rule="nonzero"/>
	<path id="Vector (Stroke)" d="M160.9 181.28C160.9 181.28 160.9 181.28 160.9 181.28L150.05 255.75L150.05 255.76L150.04 255.79C149.21 263.49 155.25 270.26 163.08 270.26L193.24 270.26C200.49 270.26 206.36 264.41 206.36 257.18L206.36 178.7C206.36 177.48 206.86 176.39 207.65 175.6C207.76 175.49 207.87 175.39 208 175.29L167.85 175.29C164.36 175.29 161.41 177.84 160.9 181.28ZM210.43 174.81L210.43 174.33L167.85 174.33C163.88 174.33 160.53 177.23 159.95 181.15L149.09 255.68L149.09 255.71C148.21 263.96 154.69 271.22 163.08 271.22L193.24 271.22C201.02 271.22 207.31 264.93 207.31 257.18L207.31 178.7C207.31 177.75 207.7 176.9 208.32 176.28C208.88 175.72 209.64 175.36 210.47 175.29L210.43 174.81Z" fill="#FE5244" fill-opacity="1.000000" fill-rule="evenodd"/>
	<path id="Vector" d="M207.39 174.81C206.45 174.89 205.59 175.3 204.95 175.94C204.36 176.53 203.96 177.29 203.85 178.16C203.83 178.33 203.82 178.51 203.82 178.68L203.18 184.69L195.51 257.17C195.51 264.65 189.43 270.72 181.92 270.72L163.09 270.72C154.98 270.72 148.72 263.7 149.58 255.72L149.58 255.7L154.49 222.03L160.44 181.2C160.49 180.85 160.57 180.5 160.67 180.15C161.59 177.01 164.5 174.79 167.85 174.79L207.39 174.79L207.39 174.81Z" fill="#FFFFFF" fill-opacity="1.000000" fill-rule="nonzero"/>
	<path id="Vector (Stroke)" d="M161.12 180.28C161.03 180.61 160.96 180.94 160.91 181.26L160.91 181.27L154.96 222.1L150.06 255.74L150.06 255.74L150.06 255.77C149.23 263.47 155.27 270.25 163.09 270.25L181.92 270.25C189.16 270.25 195.03 264.39 195.03 257.17L195.03 257.14L202.7 184.64L202.7 184.64L203.33 178.65C203.34 178.47 203.35 178.28 203.37 178.12L203.37 178.1L203.37 178.09C203.5 177.12 203.95 176.26 204.61 175.6C204.73 175.49 204.85 175.37 204.98 175.27L167.85 175.27C164.71 175.27 161.99 177.34 161.12 180.28ZM160.2 180.01C161.19 176.67 164.28 174.32 167.85 174.32L207.87 174.32L207.87 175.25L207.43 175.29C206.6 175.35 205.85 175.72 205.29 176.28C204.77 176.8 204.42 177.46 204.32 178.21C204.31 178.38 204.29 178.53 204.29 178.68L204.29 178.71L203.65 184.74L203.65 184.74L195.99 257.19C195.97 264.93 189.68 271.2 181.92 271.2L163.09 271.2C154.7 271.2 148.23 263.94 149.1 255.69L149.1 255.67L154.01 221.96L159.97 181.13C159.97 181.13 159.97 181.13 159.97 181.13C160.02 180.75 160.1 180.38 160.2 180.02L160.2 180.02L160.2 180.01Z" fill="#FE5244" fill-opacity="1.000000" fill-rule="evenodd"/>
	<path id="Vector" d="M200.67 190.44L197.81 211.83C196.87 216.21 193.45 218.55 188.5 219.35L154.65 224.26L159.58 190.42L200.67 190.42L200.67 190.44Z" fill="#FFCF2D" fill-opacity="1.000000" fill-rule="nonzero"/>
	<path id="Vector" d="M206.18 174.81L205.33 174.81C203.8 174.79 202.46 175.88 202.16 177.39L197.17 209.46C196.23 213.84 192.35 216.98 187.86 216.98L156.71 216.98C152.94 216.98 150.13 213.5 150.94 209.82L156.95 182.62C157.95 178.06 162.01 174.81 166.69 174.81L206.18 174.81Z" fill="#FE5244" fill-opacity="1.000000" fill-rule="nonzero"/>
	<path id="Vector (Stroke)" d="M205.34 174.33L206.18 174.33L206.18 175.29L205.27 175.29C204 175.3 202.89 176.21 202.63 177.48L197.64 209.55L197.64 209.56C196.65 214.16 192.58 217.46 187.86 217.46L156.71 217.46C152.63 217.46 149.59 213.7 150.47 209.72L156.48 182.52C157.53 177.74 161.78 174.33 166.69 174.33L205.27 174.33C205.29 174.33 205.31 174.33 205.34 174.33ZM202.83 175.29L166.69 175.29C162.23 175.29 158.37 178.38 157.41 182.72L151.41 209.93C150.66 213.31 153.24 216.5 156.71 216.5L187.86 216.5C192.12 216.5 195.8 213.53 196.7 209.37L201.68 177.31L201.69 177.3C201.85 176.5 202.26 175.81 202.83 175.29Z" fill="#FE5244" fill-opacity="1.000000" fill-rule="evenodd"/>
	<path id="Vector" d="M180.5 225.9L188.44 177.49C188.6 176.52 189.44 175.78 190.43 175.78C191.68 175.78 192.64 176.9 192.43 178.14L184.49 226.55C184.33 227.52 183.49 228.26 182.5 228.26C181.25 228.26 180.29 227.14 180.5 225.9Z" fill="#FFFFFF" fill-opacity="1.000000" fill-rule="nonzero"/>
	<path id="Vector (Stroke)" d="M188.91 177.56C188.91 177.56 188.91 177.56 188.91 177.56L180.97 225.97L180.97 225.98C180.82 226.93 181.55 227.78 182.5 227.78C183.25 227.78 183.9 227.22 184.02 226.47L191.96 178.06L191.96 178.06C192.12 177.11 191.39 176.26 190.43 176.26C189.68 176.26 189.03 176.82 188.91 177.56ZM187.97 177.41C188.16 176.21 189.21 175.3 190.43 175.3C191.98 175.3 193.16 176.68 192.9 178.22C192.9 178.22 192.9 178.22 192.9 178.22L184.97 226.63C184.77 227.83 183.73 228.73 182.5 228.73C180.96 228.73 179.77 227.35 180.03 225.82C180.03 225.82 180.03 225.82 180.03 225.82L187.97 177.41L187.97 177.41Z" fill="#FE5244" fill-opacity="1.000000" fill-rule="evenodd"/>
	<path id="Vector" d="M162.76 225.9L170.7 177.49C170.85 176.52 171.7 175.78 172.69 175.78C173.94 175.78 174.89 176.9 174.69 178.14L166.75 226.55C166.59 227.52 165.74 228.26 164.75 228.26C163.51 228.26 162.55 227.14 162.76 225.9Z" fill="#FFFFFF" fill-opacity="1.000000" fill-rule="nonzero"/>
	<path id="Vector (Stroke)" d="M171.17 177.56C171.17 177.56 171.17 177.56 171.17 177.56L163.23 225.97L163.23 225.98C163.07 226.93 163.8 227.78 164.76 227.78C165.51 227.78 166.16 227.22 166.28 226.47L174.22 178.06L174.22 178.06C174.37 177.11 173.64 176.26 172.69 176.26C171.94 176.26 171.29 176.82 171.17 177.56ZM170.22 177.41C170.42 176.21 171.46 175.3 172.69 175.3C174.23 175.3 175.42 176.68 175.16 178.22C175.16 178.22 175.16 178.22 175.16 178.22L167.22 226.63C167.03 227.83 165.98 228.73 164.76 228.73C163.21 228.73 162.03 227.35 162.29 225.82C162.29 225.82 162.29 225.82 162.29 225.82L170.22 177.41L170.22 177.41Z" fill="#FE5244" fill-opacity="1.000000" fill-rule="evenodd"/>
	<path id="Vector" d="M214.66 178.93L206.85 178.97L206.85 178.7C206.85 177.61 207.28 176.64 208 175.94C208.64 175.3 209.49 174.89 210.44 174.81L211.08 174.81C213.05 174.97 214.6 176.63 214.66 178.93Z" fill="#FFFFFF" fill-opacity="1.000000" fill-rule="nonzero"/>
	<path id="Vector (Stroke)" d="M210.42 174.33L211.1 174.33L211.12 174.34C213.36 174.52 215.07 176.4 215.14 178.92L215.15 179.41L206.37 179.45L206.37 178.7C206.37 177.49 206.86 176.39 207.66 175.6C208.38 174.89 209.33 174.43 210.4 174.34L210.42 174.33ZM210.46 175.29C209.63 175.36 208.9 175.72 208.34 176.28L208.34 176.28L208.34 176.28C207.75 176.85 207.39 177.62 207.34 178.49L214.14 178.46C213.9 176.64 212.61 175.42 211.06 175.29L210.46 175.29Z" fill="#FE5244" fill-opacity="1.000000" fill-rule="evenodd"/>
	<path id="Vector" d="M264.5 287.58L271.08 304.51C272.13 307.24 270.6 310.26 267.79 311.04L253.34 314.99C252.46 315.23 251.53 315.02 250.84 314.43L249.38 313.16L252.38 312.36C253.7 312.01 254.6 310.79 254.53 309.42L254.2 306.04C254.13 304.53 252.9 303.32 251.39 303.27L251.55 303.27C249.71 303.2 247.92 302.07 247.2 300.38L244.9 294.28L264.5 287.58Z" fill="#E57281" fill-opacity="1.000000" fill-rule="nonzero"/>
	<path id="Vector (Stroke)" d="M244.38 294.5C244.62 294.39 244.91 294.51 245.01 294.75L247.47 300.53C248.12 302.05 249.58 303.07 251.23 303.12C252.99 303.18 254.43 304.59 254.5 306.35C254.5 306.35 254.5 306.35 254.5 306.35L254.68 310.05C254.75 311.67 253.68 312.92 252.17 313.32C252.16 313.32 252.16 313.32 252.16 313.32L249.8 313.96C249.55 314.02 249.28 313.87 249.22 313.62C249.15 313.36 249.3 313.1 249.55 313.03L251.92 312.4L251.92 312.4C253.06 312.1 253.77 311.21 253.72 310.09L253.54 306.4L253.54 306.39C253.49 305.13 252.46 304.12 251.2 304.08L251.19 304.08C249.17 304.01 247.38 302.76 246.59 300.91L244.13 295.12C244.02 294.88 244.14 294.6 244.38 294.5Z" fill="#FFFFFF" fill-opacity="1.000000" fill-rule="evenodd"/>
	<path id="Vector (Stroke)" d="M259.92 304.51C260.19 304.5 260.41 304.7 260.43 304.96L260.65 309.68C260.74 311.66 259.44 313.42 257.53 313.92C257.27 313.99 257.01 313.84 256.94 313.58C256.88 313.33 257.03 313.07 257.29 313C258.76 312.61 259.76 311.25 259.69 309.72C259.69 309.72 259.69 309.72 259.69 309.72L259.47 305.01C259.46 304.75 259.66 304.52 259.92 304.51Z" fill="#FFFFFF" fill-opacity="1.000000" fill-rule="evenodd"/>
	<path id="Vector (Stroke)" d="M266.04 302.93C266.3 302.92 266.53 303.12 266.54 303.39L266.76 308.1C266.85 310.08 265.56 311.84 263.65 312.35C263.39 312.42 263.13 312.26 263.06 312.01C262.99 311.75 263.15 311.49 263.4 311.42C264.88 311.03 265.88 309.68 265.81 308.15C265.81 308.15 265.81 308.15 265.81 308.15L265.58 303.43C265.57 303.17 265.78 302.95 266.04 302.93Z" fill="#FFFFFF" fill-opacity="1.000000" fill-rule="evenodd"/>
	<path id="Vector (Stroke)" d="M212.21 237.23L208.34 217.07L209.28 216.89L213.15 237.05C213.79 240.44 214.99 243.73 216.67 246.74L216.67 246.74L243.15 294.4L267.25 286.12L267.56 287.02L242.7 295.57L215.84 247.2C215.84 247.2 215.84 247.2 215.84 247.2C214.1 244.1 212.87 240.72 212.21 237.23Z" fill="#FFFFFF" fill-opacity="1.000000" fill-rule="evenodd"/>
	<path id="Vector" d="M224.99 262.71L216.26 246.97C214.79 244.31 213.68 241.48 212.98 238.53C213.81 238.26 214.67 238.07 215.58 237.99C222.48 237.38 228.6 243.17 229.25 250.89C229.64 255.58 227.93 259.89 224.99 262.71Z" fill="#FFFFFF" fill-opacity="1.000000" fill-rule="nonzero"/>
</svg>
