<svg width="16.000000" height="16.000000" viewBox="0 0 16 16" fill="none" xmlns="http://www.w3.org/2000/svg" xmlns:xlink="http://www.w3.org/1999/xlink">
	<desc>
			Created with Pixso.
	</desc>
	<defs>
		<clipPath id="clip2400_6486">
			<rect id="mic" width="16.000000" height="16.000000" fill="white" fill-opacity="0"/>
		</clipPath>
	</defs>
	<g clip-path="url(#clip2400_6486)">
		<path id="Vector" d="M4.13 4.26C4.13 2.13 5.86 0.4 8 0.4C10.13 0.4 11.86 2.13 11.86 4.26L11.86 7.46C11.86 9.6 10.13 11.33 8 11.33C5.86 11.33 4.13 9.6 4.13 7.46L4.13 4.26ZM8 1.73C6.6 1.73 5.46 2.86 5.46 4.26L5.46 7.46C5.46 8.86 6.6 10 8 10C9.39 10 10.53 8.86 10.53 7.46L10.53 4.26C10.53 2.86 9.39 1.73 8 1.73ZM2.66 5.73C3.03 5.73 3.33 6.03 3.33 6.4L3.33 7.46C3.33 10.04 5.42 12.13 8 12.13C10.57 12.13 12.66 10.04 12.66 7.46L12.66 6.4C12.66 6.03 12.96 5.73 13.33 5.73C13.7 5.73 14 6.03 14 6.4L14 7.46C14 10.55 11.66 13.09 8.66 13.43L8.66 14.26L10.13 14.26C10.5 14.26 10.79 14.56 10.79 14.93C10.79 15.3 10.5 15.6 10.13 15.6L5.86 15.6C5.49 15.6 5.2 15.3 5.2 14.93C5.2 14.56 5.49 14.26 5.86 14.26L7.33 14.26L7.33 13.43C4.33 13.09 2 10.55 2 7.46L2 6.4C2 6.03 2.29 5.73 2.66 5.73Z" fill="#9A9CA5" fill-opacity="1.000000" fill-rule="evenodd"/>
	</g>
</svg>
