<svg width="16.000000" height="16.000000" viewBox="0 0 16 16" fill="none" xmlns="http://www.w3.org/2000/svg" xmlns:xlink="http://www.w3.org/1999/xlink">
	<desc>
			Created with Pixso.
	</desc>
	<defs>
		<clipPath id="clip2400_6482">
			<rect id="Play" width="16.000000" height="16.000000" fill="white" fill-opacity="0"/>
		</clipPath>
	</defs>
	<g clip-path="url(#clip2400_6482)">
		<path id="Vector" d="M8 0.66C3.94 0.66 0.66 3.95 0.66 8C0.66 12.05 3.94 15.33 8 15.33C12.04 15.33 15.33 12.05 15.33 8C15.33 3.95 12.04 0.66 8 0.66ZM2 8C2 4.68 4.68 2 8 2C11.31 2 14 4.68 14 8C14 11.31 11.31 14 8 14C4.68 14 2 11.31 2 8ZM10.71 9.05C11.41 8.52 11.41 7.47 10.71 6.94L7.65 4.6C6.78 3.93 5.51 4.56 5.51 5.66L5.51 10.33C5.51 11.43 6.78 12.06 7.65 11.39L10.71 9.05ZM6.84 5.66L9.9 8L6.84 10.33L6.84 5.66Z" fill="#9A9CA5" fill-opacity="1.000000" fill-rule="evenodd"/>
	</g>
</svg>
