<svg width="495.000000" height="554.000000" viewBox="0 0 495 554" fill="none"
  xmlns="http://www.w3.org/2000/svg"
  xmlns:xlink="http://www.w3.org/1999/xlink">
  <desc>
			Created with Pixso.
  </desc>
  <defs/>
  <rect id="illustration" width="495.000000" height="554.000000" transform="matrix(-1 0 0 1 495 0)" fill="#FFFFFF" fill-opacity="0"/>
  <path id="Vector" d="M157.959 429.041L161.202 437.912L176.19 478.816C181.813 482.799 188.913 485.357 196.877 485.357C197.817 485.357 198.95 485.127 199.909 485.07C208.238 484.492 216.221 480.836 221.748 476.18L217.277 426.848L216.95 423.27C192.79 432.658 164.618 431.082 157.959 429.041Z" fill="#E57281" fill-opacity="1.000000" fill-rule="nonzero"/>
  <path id="Vector" d="M157.959 429.041L164.311 446.357C183.693 448.994 212.095 433.102 217.257 426.848L216.931 423.27C192.79 432.658 164.618 431.082 157.959 429.041Z" fill="#9A3B82" fill-opacity="1.000000" fill-rule="nonzero"/>
  <path id="Vector" d="M175.883 478.758L180.469 526.916C181.295 539.615 191.005 549.332 202.519 549.332C203.037 549.332 203.555 549.312 204.093 549.273C216.298 548.35 225.49 536.826 224.626 523.549L221.844 480.99L221.556 476.43C219.1 478.738 216.24 480.721 213.074 482.26C209.102 484.184 204.668 485.434 199.928 485.799C198.969 485.877 198.029 485.916 197.088 485.916C194.363 485.916 191.696 485.607 189.163 485.029C189.086 485.012 188.99 484.992 188.913 484.973C184.173 483.857 179.836 481.797 176.229 479.008C176.094 478.932 175.979 478.854 175.883 478.758Z" fill="#FFFFFF" fill-opacity="1.000000" fill-rule="nonzero"/>
  <path id="Vector" d="M202.519 549.812C203.056 549.812 203.575 549.793 204.131 549.754C216.586 548.812 225.989 537.037 225.106 523.51L222.323 480.951L221.978 475.371L221.23 476.064C218.773 478.373 215.952 480.316 212.863 481.816C208.794 483.779 204.438 484.953 199.89 485.318C198.931 485.395 198.01 485.434 197.088 485.434C194.44 485.434 191.811 485.145 189.278 484.568C189.24 484.568 189.201 484.549 189.144 484.529C189.105 484.529 189.067 484.51 189.028 484.51C184.404 483.434 180.086 481.393 176.516 478.623L176.459 478.584C176.344 478.508 176.267 478.469 176.209 478.41L175.269 477.469L179.99 526.955C180.393 533.188 182.926 538.961 187.148 543.213C191.35 547.465 196.801 549.812 202.519 549.812ZM221.134 477.469L221.364 481.027L224.147 523.588C224.991 536.594 215.972 547.908 204.054 548.793C203.517 548.83 203.018 548.85 202.519 548.85C197.069 548.85 191.849 546.619 187.819 542.539C183.77 538.441 181.333 532.881 180.949 526.877L176.459 479.777C180.028 482.412 184.288 484.375 188.798 485.434C188.836 485.434 188.875 485.453 188.932 485.473C188.971 485.473 189.009 485.492 189.048 485.492C191.677 486.088 194.363 486.396 197.088 486.396C198.048 486.396 198.988 486.357 199.967 486.281C204.63 485.914 209.121 484.723 213.285 482.701C216.144 481.297 218.792 479.547 221.134 477.469Z" fill="#FFCF2D" fill-opacity="1.000000" fill-rule="nonzero"/>
  <path id="Vector" d="M202.174 539.654C202.635 539.654 203.076 539.635 203.536 539.598C214.091 538.789 222.094 528.803 221.345 517.316L218.793 478.971L217.833 479.029L220.385 517.375C221.095 528.322 213.496 537.846 203.46 538.615C203.018 538.654 202.596 538.674 202.174 538.674C192.656 538.674 184.672 530.555 184.001 520.164L180.758 481.625L179.798 481.703L183.041 520.242C183.387 525.533 185.536 530.439 189.105 534.037C192.675 537.674 197.319 539.654 202.174 539.654Z" fill="#FFCF2D" fill-opacity="1.000000" fill-rule="nonzero"/>
  <path id="Vector" d="M188.952 484.549C191.485 485.068 194.344 485.166 197.069 485.166C198.01 485.166 198.95 485.127 199.909 485.068C204.649 484.742 209.102 483.588 213.055 481.818L214.321 475.584C215.127 472.928 213.112 470.254 210.33 470.35L191.907 470.889C189.566 470.947 187.781 472.986 187.992 475.314L188.952 484.549Z" fill="#FFCF2D" fill-opacity="1.000000" fill-rule="nonzero"/>
  <path id="Vector" d="M189.144 484.357L191.466 513.623C191.869 519.299 197.242 523.492 202.308 522.568L202.711 522.531C209.927 521.203 215.454 513.66 214.513 505.58L213.055 481.799C209.082 483.568 204.649 484.723 199.909 485.051C198.95 485.127 198.01 485.146 197.069 485.146C194.344 485.166 191.677 484.877 189.144 484.357Z" fill="#FFCF2D" fill-opacity="1.000000" fill-rule="nonzero"/>
  <path id="Vector" d="M191.965 516.547C192.003 516.547 192.041 516.547 192.08 516.529L213.093 511.719C214.475 511.41 215.031 510.236 214.974 509.236C214.916 508.217 214.244 507.102 212.824 506.928L192.732 504.561C191.677 504.426 191.235 503.617 191.178 502.965C191.12 502.311 191.408 501.424 192.406 501.117L211.654 494.998C213.208 494.498 214.148 493.133 214.072 491.496C213.976 489.861 212.882 488.611 211.289 488.283L196.129 485.648C196.839 485.648 197.568 485.629 198.317 485.609C205.091 485.396 210.119 484.416 213.285 482.666C213.515 482.531 213.592 482.242 213.477 482.012C213.343 481.779 213.055 481.703 212.824 481.818C205.59 485.82 189.355 484.455 189.182 484.436C188.933 484.416 188.702 484.59 188.664 484.859C188.625 485.109 188.798 485.359 189.067 485.396L211.116 489.227C212.517 489.516 213.074 490.65 213.112 491.555C213.17 492.439 212.729 493.652 211.366 494.094L192.118 500.213C190.679 500.674 190.122 501.982 190.238 503.061C190.333 504.156 191.12 505.35 192.636 505.523L212.729 507.889C213.65 508.006 213.995 508.717 214.033 509.295C214.052 509.871 213.784 510.602 212.901 510.795L191.888 515.605C191.638 515.662 191.466 515.912 191.523 516.182C191.542 516.395 191.753 516.547 191.965 516.547Z" fill="#FFFFFF" fill-opacity="1.000000" fill-rule="nonzero"/>
  <path id="Vector" d="M118.312 320.814L157.959 429.041C164.618 431.08 196.033 433.775 226.699 419.518L202.577 307.635C200.332 290.703 185.939 278.043 168.879 278.043L151.147 278.043C128.867 278.023 112.594 299.188 118.312 320.814Z" fill="#FE5244" fill-opacity="1.000000" fill-rule="nonzero"/>
  <path id="Vector" d="M170.606 419.652C173.523 419.652 176.708 419.557 180.105 419.324C191.446 418.555 208.449 416.016 225.03 408.301C225.317 408.166 225.452 407.818 225.317 407.531C225.183 407.242 224.838 407.107 224.55 407.242C193.979 421.461 159.936 418.883 153.526 416.939C153.219 416.844 152.893 417.016 152.816 417.324C152.72 417.631 152.893 417.959 153.2 418.035C155.599 418.787 161.893 419.652 170.606 419.652Z" fill="#FFFFFF" fill-opacity="1.000000" fill-rule="nonzero"/>
  <path id="Vector" d="M105.09 431.176L109.082 438.275L134.624 483.086C144.468 486.992 156.079 488.436 166.48 486.242L167.785 485.877C172.927 484.799 178.186 481.914 181.909 478.682L163.275 428.752C163.275 428.752 163.256 428.752 163.237 428.752C156.808 430.887 134.7 436.891 105.09 431.176Z" fill="#E57281" fill-opacity="1.000000" fill-rule="nonzero"/>
  <path id="Vector" d="M105.09 431.176L113.514 446.049C145.946 451.244 164.33 431.678 164.33 431.678L163.256 428.771C156.808 430.889 134.7 436.891 105.09 431.176Z" fill="#9A3B82" fill-opacity="1.000000" fill-rule="nonzero"/>
  <path id="Vector" d="M50.436 337.977L94.6697 429.1C132.11 438.488 156.865 430.889 163.256 428.771L116.969 304.652C113.802 297.129 108.544 290.914 102.039 286.586C95.5332 282.256 87.7803 279.812 79.6436 279.812C48.824 279.812 35.5442 310.904 50.436 337.977Z" fill="#FE5244" fill-opacity="1.000000" fill-rule="nonzero"/>
  <path id="Vector" d="M125.431 424.443C129.02 424.443 132.551 424.289 136.063 424C144.43 423.309 152.432 421.75 159.226 419.498C159.533 419.402 159.686 419.074 159.59 418.768C159.494 418.459 159.168 418.305 158.861 418.402C152.164 420.613 144.238 422.154 135.967 422.846C121.21 424.078 105.685 422.691 89.8335 418.709C89.5264 418.633 89.2192 418.824 89.1426 419.133C89.0659 419.441 89.2578 419.748 89.5649 419.826C101.77 422.904 113.802 424.443 125.431 424.443Z" fill="#FFFFFF" fill-opacity="1.000000" fill-rule="nonzero"/>
  <path id="Vector" d="M185.539 488.281L117.513 304.42L116.434 304.82L184.459 488.684L185.539 488.281Z" fill="#FFFFFF" fill-opacity="1.000000" fill-rule="evenodd"/>
  <path id="Vector" d="M135.008 483.223L136.504 487.166L153.469 531.67C158.324 546.928 174.29 555.99 188.318 552.508L189.086 552.258C198.93 549.814 205.187 537.924 201.329 527.418L181.947 479.932L181.544 478.951C179.107 481.145 176.267 482.953 173.1 484.262C171.412 484.955 169.627 485.512 167.765 485.916L166.46 486.281C160.953 487.436 155.272 487.648 149.669 486.994C144.641 486.379 139.69 485.107 135.008 483.223Z" fill="#FFFFFF" fill-opacity="1.000000" fill-rule="nonzero"/>
  <path id="Vector" d="M182.12 553.738C184.25 553.738 186.361 553.488 188.433 552.969L188.472 552.969L189.22 552.719C193.941 551.545 198.086 548.158 200.581 543.445C203.268 538.385 203.69 532.477 201.771 527.264L182.388 479.758L181.736 478.143L181.237 478.604C178.8 480.797 175.998 482.568 172.928 483.818C171.239 484.512 169.473 485.051 167.669 485.453L167.65 485.453L166.365 485.82C160.991 486.936 155.388 487.186 149.746 486.512C144.737 485.896 139.844 484.646 135.199 482.779L134.182 482.375L136.063 487.34L153.027 531.824C155.388 539.25 160.435 545.523 167.228 549.525C171.93 552.314 177.073 553.738 182.12 553.738ZM188.184 552.045C181.467 553.699 174.194 552.525 167.689 548.697C161.106 544.83 156.213 538.711 153.91 531.516L153.91 531.496L136.946 486.994L135.833 484.068C140.247 485.742 144.871 486.896 149.611 487.475C155.369 488.148 161.068 487.898 166.556 486.762L166.595 486.762L167.881 486.396C169.742 485.992 171.546 485.436 173.273 484.723C176.229 483.492 178.953 481.836 181.352 479.777L181.506 480.145L200.888 527.629C202.711 532.594 202.289 538.191 199.737 543.021C197.357 547.504 193.442 550.717 188.971 551.814L188.932 551.814L188.184 552.045Z" fill="#FFCF2D" fill-opacity="1.000000" fill-rule="nonzero"/>
  <path id="Vector" d="M179.356 543.252C181.141 543.252 182.926 543.041 184.672 542.598L184.71 542.578L185.325 542.367C189.316 541.365 192.809 538.52 194.901 534.555C197.146 530.303 197.51 525.34 195.918 520.934L179.491 480.932C179.395 480.682 179.107 480.566 178.857 480.662C178.608 480.76 178.493 481.047 178.589 481.297L195.016 521.279C196.532 525.416 196.186 530.092 194.056 534.113C192.08 537.846 188.817 540.52 185.075 541.463L185.037 541.482L184.423 541.693C178.819 543.078 172.755 542.098 167.324 538.904C161.817 535.672 157.729 530.572 155.829 524.551L155.829 524.531L140.957 485.127C140.861 484.877 140.592 484.762 140.343 484.838C140.093 484.934 139.978 485.203 140.055 485.453L154.927 524.838C156.923 531.072 161.145 536.344 166.844 539.711C170.817 542.039 175.115 543.252 179.356 543.252Z" fill="#FFCF2D" fill-opacity="1.000000" fill-rule="nonzero"/>
  <path id="Vector" d="M146.196 481.029L149.688 486.955C155.273 487.609 160.953 487.396 166.48 486.242L167.785 485.877C169.646 485.492 171.431 484.936 173.12 484.223L171.738 474.604C171.412 472.293 169.186 470.734 166.902 471.217L148.863 475.006C146.138 475.564 144.775 478.643 146.196 481.029Z" fill="#FFCF2D" fill-opacity="1.000000" fill-rule="nonzero"/>
  <path id="Vector" d="M149.688 486.955L149.784 487.109L158.804 511.006C161.279 518.76 169.377 523.357 176.516 521.588L176.9 521.453C181.909 520.203 185.094 514.16 183.118 508.832L173.158 484.588L173.101 484.223C171.412 484.916 169.627 485.473 167.766 485.877L166.461 486.242C160.953 487.416 155.273 487.609 149.688 486.955Z" fill="#FFCF2D" fill-opacity="1.000000" fill-rule="nonzero"/>
  <path id="Vector" d="M162.68 515.836C162.795 515.836 162.91 515.836 163.025 515.816L183.751 513.564C184.02 513.545 184.211 513.295 184.173 513.025C184.135 512.756 183.904 512.564 183.636 512.604L162.91 514.854C161.778 514.969 161.145 514.219 160.934 513.525C160.722 512.854 160.838 511.871 161.835 511.332L177.975 502.693C179.356 501.963 179.663 500.539 179.375 499.461C179.088 498.385 178.09 497.307 176.516 497.383L156.136 498.307C154.908 498.365 154.236 497.518 154.025 496.768C153.814 496.018 153.968 494.939 155.061 494.363L173.35 484.588C173.58 484.473 173.676 484.186 173.561 483.953C173.446 483.723 173.158 483.627 172.927 483.742C172.908 483.762 170.548 484.857 166.537 485.725C162.833 486.531 156.942 487.301 149.823 486.416C149.554 486.379 149.323 486.57 149.285 486.84C149.247 487.109 149.438 487.34 149.707 487.379C156.98 488.283 163.006 487.494 166.787 486.666C167.228 486.57 167.631 486.475 168.034 486.379L154.639 493.535C153.142 494.324 152.816 495.883 153.123 497.057C153.449 498.23 154.524 499.385 156.213 499.289L176.593 498.365C177.687 498.326 178.301 499.076 178.474 499.73C178.646 500.385 178.512 501.348 177.552 501.867L161.413 510.506C160.012 511.256 159.705 512.719 160.051 513.814C160.339 514.854 161.279 515.836 162.68 515.836Z" fill="#FFFFFF" fill-opacity="1.000000" fill-rule="nonzero"/>
  <path id="Vector" d="M90.8313 141.879C90.8313 220.236 154.187 283.758 232.341 283.758C310.494 283.758 373.85 220.236 373.85 141.879C373.85 63.5215 310.494 0 232.341 0C154.187 0 90.8313 63.5215 90.8313 141.879Z" fill="#D0F0E4" fill-opacity="1.000000" fill-rule="evenodd"/>
  <path id="Vector" d="M279.952 284.412C294.652 279.486 308.469 272.291 321 263.055C333.397 253.916 344.278 242.986 353.374 230.539C362.566 217.936 369.705 204.084 374.599 189.326C379.665 174.068 382.217 158.117 382.217 141.879L380.874 141.879C380.874 157.965 378.341 173.779 373.313 188.902C368.458 203.525 361.396 217.264 352.281 229.75C343.28 242.082 332.495 252.934 320.194 261.977C307.759 271.137 294.076 278.254 279.511 283.143L279.952 284.412Z" fill="#FFCF2D" fill-opacity="1.000000" fill-rule="nonzero"/>
  <path id="Vector" d="M232.341 234.484C234.241 234.484 236.141 234.426 238.021 234.311C238.559 234.271 238.961 233.83 238.923 233.291C238.885 232.752 238.443 232.348 237.906 232.387C236.064 232.502 234.183 232.559 232.341 232.559L232.207 232.559C231.669 232.559 231.247 232.982 231.247 233.521C231.247 234.061 231.669 234.484 232.207 234.484L232.341 234.484ZM225.49 234.232C225.989 234.232 226.411 233.848 226.449 233.348C226.488 232.809 226.085 232.348 225.567 232.309C223.686 232.174 221.767 231.963 219.906 231.713C219.387 231.637 218.888 232.002 218.831 232.541C218.754 233.061 219.119 233.561 219.656 233.617C221.575 233.887 223.513 234.08 225.452 234.232C225.452 234.232 225.471 234.232 225.49 234.232ZM244.642 233.656C244.68 233.656 244.719 233.656 244.776 233.656C246.695 233.406 248.614 233.078 250.514 232.693C251.032 232.598 251.378 232.078 251.262 231.559C251.147 231.039 250.648 230.693 250.13 230.809C248.269 231.174 246.388 231.502 244.508 231.752C243.99 231.828 243.606 232.309 243.682 232.828C243.759 233.311 244.181 233.656 244.642 233.656ZM213.151 232.463C213.592 232.463 213.995 232.156 214.091 231.693C214.206 231.174 213.88 230.654 213.362 230.559C211.519 230.154 209.658 229.693 207.835 229.191C207.317 229.059 206.799 229.346 206.645 229.865C206.511 230.385 206.799 230.904 207.317 231.059C209.178 231.578 211.078 232.059 212.959 232.463C213.016 232.463 213.093 232.463 213.151 232.463ZM256.866 231.154C256.943 231.154 257.039 231.135 257.115 231.117C258.977 230.598 260.839 230.02 262.662 229.385C263.161 229.211 263.429 228.654 263.257 228.152C263.084 227.652 262.527 227.383 262.028 227.557C260.244 228.172 258.42 228.75 256.597 229.27C256.079 229.404 255.792 229.943 255.926 230.463C256.06 230.867 256.444 231.154 256.866 231.154ZM201.157 229.02C201.541 229.02 201.924 228.77 202.059 228.385C202.231 227.885 201.982 227.326 201.483 227.152C199.698 226.498 197.933 225.787 196.206 225.037C195.726 224.824 195.15 225.055 194.939 225.537C194.728 226.018 194.958 226.596 195.438 226.807C197.203 227.576 199.027 228.307 200.83 228.961C200.946 229 201.061 229.02 201.157 229.02ZM268.63 226.98C268.764 226.98 268.879 226.961 269.014 226.902C270.779 226.133 272.564 225.287 274.291 224.42C274.771 224.17 274.943 223.594 274.713 223.131C274.464 222.65 273.888 222.477 273.427 222.709C271.739 223.574 270.011 224.402 268.265 225.152C267.785 225.363 267.555 225.922 267.766 226.422C267.901 226.768 268.265 226.98 268.63 226.98ZM189.777 223.959C190.122 223.959 190.448 223.766 190.621 223.439C190.871 222.979 190.698 222.381 190.218 222.131C188.549 221.246 186.879 220.303 185.267 219.303C184.806 219.033 184.231 219.168 183.943 219.629C183.674 220.092 183.809 220.668 184.269 220.957C185.919 221.957 187.608 222.939 189.316 223.844C189.47 223.92 189.623 223.959 189.777 223.959ZM279.722 221.227C279.895 221.227 280.067 221.188 280.221 221.092C281.871 220.092 283.521 219.014 285.095 217.898C285.536 217.59 285.632 216.994 285.325 216.551C285.018 216.109 284.423 216.012 283.982 216.32C282.427 217.398 280.816 218.457 279.204 219.438C278.743 219.707 278.609 220.303 278.877 220.766C279.088 221.053 279.396 221.227 279.722 221.227ZM179.165 217.398C179.472 217.398 179.76 217.264 179.951 216.994C180.258 216.57 180.162 215.955 179.721 215.646C178.186 214.551 176.67 213.377 175.192 212.184C174.789 211.857 174.175 211.914 173.849 212.318C173.523 212.723 173.58 213.338 173.983 213.666C175.48 214.896 177.034 216.09 178.608 217.205C178.781 217.34 178.973 217.398 179.165 217.398ZM289.912 214.012C290.123 214.012 290.334 213.936 290.507 213.801C292.004 212.588 293.481 211.299 294.901 209.971C295.285 209.605 295.323 209.01 294.959 208.605C294.594 208.221 293.999 208.182 293.596 208.547C292.196 209.836 290.756 211.088 289.279 212.279C288.875 212.607 288.799 213.223 289.144 213.627C289.355 213.896 289.643 214.012 289.912 214.012ZM169.55 209.432C169.8 209.432 170.068 209.336 170.241 209.125C170.606 208.74 170.586 208.125 170.203 207.758C168.821 206.449 167.478 205.084 166.192 203.699C165.827 203.314 165.232 203.295 164.829 203.66C164.446 204.025 164.427 204.623 164.791 205.027C166.115 206.449 167.497 207.836 168.898 209.162C169.071 209.355 169.32 209.432 169.55 209.432ZM299.046 205.488C299.296 205.488 299.564 205.393 299.737 205.18C301.062 203.775 302.347 202.295 303.575 200.793C303.921 200.389 303.863 199.773 303.441 199.447C303.038 199.1 302.424 199.158 302.098 199.582C300.889 201.043 299.622 202.486 298.336 203.871C297.972 204.256 297.991 204.873 298.375 205.238C298.567 205.412 298.816 205.488 299.046 205.488ZM161.087 200.254C161.298 200.254 161.51 200.178 161.682 200.043C162.104 199.717 162.162 199.1 161.836 198.695C160.646 197.215 159.494 195.676 158.401 194.137C158.094 193.693 157.499 193.598 157.057 193.906C156.616 194.213 156.52 194.811 156.827 195.252C157.94 196.83 159.13 198.408 160.339 199.908C160.531 200.119 160.799 200.254 161.087 200.254ZM306.934 195.811C307.241 195.811 307.529 195.676 307.72 195.406C308.833 193.828 309.927 192.193 310.944 190.539C311.232 190.096 311.079 189.5 310.637 189.211C310.196 188.922 309.601 189.076 309.313 189.52C308.315 191.135 307.26 192.732 306.166 194.271C305.859 194.713 305.955 195.311 306.396 195.617C306.55 195.752 306.742 195.811 306.934 195.811ZM153.948 189.98C154.121 189.98 154.294 189.941 154.448 189.846C154.908 189.576 155.042 188.98 154.774 188.518C153.795 186.883 152.854 185.209 151.991 183.535C151.742 183.055 151.166 182.881 150.705 183.131C150.226 183.381 150.053 183.959 150.302 184.42C151.185 186.133 152.145 187.863 153.143 189.52C153.296 189.826 153.622 189.98 153.948 189.98ZM313.439 185.15C313.785 185.15 314.111 184.959 314.283 184.631C315.186 182.92 316.03 181.148 316.797 179.379C317.009 178.898 316.797 178.32 316.318 178.109C315.838 177.896 315.262 178.109 315.051 178.59C314.283 180.322 313.458 182.053 312.576 183.727C312.326 184.189 312.518 184.785 312.979 185.016C313.132 185.113 313.286 185.15 313.439 185.15ZM148.268 178.84C148.403 178.84 148.518 178.82 148.652 178.764C149.132 178.551 149.362 177.994 149.151 177.494C148.403 175.742 147.712 173.953 147.078 172.164C146.906 171.664 146.349 171.395 145.85 171.586C145.351 171.76 145.083 172.318 145.274 172.818C145.927 174.646 146.637 176.473 147.405 178.264C147.539 178.629 147.884 178.84 148.268 178.84ZM318.429 173.703C318.832 173.703 319.196 173.453 319.331 173.068C319.983 171.24 320.578 169.373 321.115 167.508C321.269 166.988 320.962 166.469 320.463 166.314C319.945 166.16 319.427 166.469 319.273 166.969C318.755 168.797 318.16 170.625 317.527 172.414C317.354 172.914 317.604 173.473 318.102 173.645C318.218 173.684 318.313 173.703 318.429 173.703ZM144.161 167.027C144.238 167.027 144.334 167.008 144.411 166.988C144.929 166.854 145.217 166.314 145.083 165.814C144.583 163.986 144.142 162.121 143.758 160.254C143.643 159.734 143.144 159.408 142.626 159.504C142.108 159.619 141.782 160.119 141.878 160.639C142.261 162.543 142.722 164.449 143.24 166.314C143.355 166.758 143.739 167.027 144.161 167.027ZM321.806 161.678C322.248 161.678 322.65 161.369 322.746 160.908C323.149 159.023 323.476 157.08 323.763 155.156C323.84 154.637 323.476 154.135 322.958 154.059C322.439 153.982 321.94 154.348 321.864 154.867C321.595 156.752 321.269 158.639 320.885 160.484C320.77 161.004 321.115 161.523 321.633 161.619C321.691 161.678 321.749 161.678 321.806 161.678ZM141.705 154.77C141.743 154.77 141.782 154.77 141.839 154.77C142.357 154.693 142.741 154.213 142.665 153.693C142.415 151.807 142.242 149.902 142.108 147.998C142.07 147.459 141.628 147.074 141.091 147.094C140.554 147.133 140.17 147.594 140.189 148.113C140.323 150.057 140.515 152 140.765 153.924C140.822 154.424 141.225 154.77 141.705 154.77ZM323.514 149.287C324.013 149.287 324.435 148.902 324.474 148.383C324.608 146.459 324.685 144.496 324.704 142.553C324.704 142.014 324.282 141.59 323.744 141.59C323.207 141.59 322.785 142.014 322.785 142.553C322.766 144.457 322.689 146.381 322.574 148.268C322.535 148.807 322.938 149.248 323.457 149.287C323.476 149.287 323.495 149.287 323.514 149.287ZM140.938 142.303C141.456 142.303 141.897 141.879 141.897 141.34C141.916 139.436 141.974 137.512 142.108 135.627C142.146 135.088 141.743 134.645 141.225 134.607C140.707 134.568 140.247 134.973 140.208 135.492C140.074 137.416 139.997 139.379 139.997 141.322C139.978 141.859 140.4 142.283 140.938 142.303ZM323.552 136.781C323.572 136.781 323.591 136.781 323.61 136.781C324.147 136.742 324.531 136.281 324.512 135.762C324.378 133.818 324.205 131.875 323.955 129.951C323.879 129.432 323.399 129.047 322.881 129.123C322.363 129.199 321.979 129.682 322.056 130.201C322.305 132.086 322.478 133.99 322.612 135.896C322.631 136.396 323.053 136.781 323.552 136.781ZM141.859 129.816C142.338 129.816 142.741 129.469 142.799 128.988C143.068 127.104 143.394 125.217 143.778 123.352C143.893 122.832 143.547 122.312 143.029 122.215C142.511 122.1 141.993 122.447 141.897 122.967C141.513 124.852 141.168 126.795 140.899 128.719C140.822 129.238 141.187 129.738 141.705 129.816C141.763 129.816 141.801 129.816 141.859 129.816ZM321.883 124.391C321.94 124.391 322.017 124.391 322.075 124.371C322.593 124.256 322.938 123.756 322.823 123.236C322.439 121.33 321.979 119.426 321.48 117.559C321.345 117.041 320.808 116.752 320.309 116.887C319.791 117.021 319.503 117.559 319.638 118.061C320.136 119.887 320.578 121.754 320.962 123.621C321.039 124.082 321.441 124.391 321.883 124.391ZM144.449 117.598C144.872 117.598 145.255 117.328 145.37 116.906C145.888 115.078 146.483 113.25 147.117 111.461C147.29 110.961 147.04 110.402 146.541 110.229C146.042 110.057 145.486 110.307 145.313 110.807C144.66 112.635 144.065 114.5 143.528 116.367C143.375 116.887 143.682 117.406 144.181 117.559C144.277 117.578 144.373 117.598 144.449 117.598ZM318.563 112.346C318.678 112.346 318.774 112.326 318.889 112.287C319.388 112.115 319.657 111.557 319.484 111.057C318.832 109.229 318.122 107.4 317.373 105.611C317.162 105.131 316.605 104.898 316.107 105.111C315.608 105.322 315.396 105.881 315.608 106.381C316.356 108.131 317.047 109.922 317.68 111.711C317.795 112.096 318.16 112.346 318.563 112.346ZM148.69 105.842C149.055 105.842 149.42 105.631 149.573 105.266C150.341 103.533 151.166 101.801 152.03 100.127C152.279 99.6465 152.087 99.0703 151.626 98.8379C151.166 98.5879 150.571 98.7812 150.341 99.2422C149.458 100.955 148.614 102.725 147.827 104.496C147.616 104.977 147.827 105.553 148.326 105.766C148.422 105.822 148.556 105.842 148.69 105.842ZM313.612 100.859C313.765 100.859 313.919 100.82 314.053 100.744C314.533 100.494 314.706 99.916 314.456 99.4551C313.573 97.7422 312.614 96.0098 311.616 94.3555C311.347 93.8945 310.752 93.7598 310.292 94.0293C309.831 94.2988 309.697 94.8945 309.966 95.3555C310.944 96.9922 311.865 98.666 312.748 100.359C312.921 100.666 313.266 100.859 313.612 100.859ZM154.486 94.7988C154.812 94.7988 155.119 94.6445 155.311 94.3359C156.309 92.7207 157.364 91.123 158.458 89.5645C158.765 89.123 158.669 88.5254 158.228 88.2188C157.787 87.9102 157.192 88.0059 156.885 88.4492C155.771 90.0273 154.697 91.6621 153.68 93.3164C153.411 93.7793 153.545 94.3555 153.987 94.6445C154.14 94.7402 154.313 94.7988 154.486 94.7988ZM307.145 90.1621C307.337 90.1621 307.529 90.1035 307.701 89.9883C308.143 89.6797 308.239 89.084 307.932 88.6406C306.819 87.0645 305.648 85.4863 304.439 83.9648C304.113 83.543 303.499 83.4844 303.095 83.8125C302.673 84.1387 302.616 84.7539 302.942 85.1582C304.132 86.6406 305.283 88.1797 306.377 89.7188C306.55 90.0078 306.838 90.1621 307.145 90.1621ZM161.74 84.6191C162.008 84.6191 162.296 84.5039 162.488 84.2734C163.697 82.8105 164.945 81.3691 166.25 79.9824C166.614 79.5977 166.595 78.9824 166.211 78.6172C165.827 78.252 165.213 78.2715 164.849 78.6562C163.524 80.0801 162.239 81.541 161.01 83.043C160.665 83.4473 160.742 84.0625 161.145 84.3887C161.318 84.5625 161.529 84.6191 161.74 84.6191ZM299.277 80.4453C299.507 80.4453 299.737 80.3672 299.929 80.1953C300.313 79.8301 300.332 79.2324 299.987 78.8281C298.663 77.4043 297.3 76.0195 295.899 74.6914C295.515 74.3262 294.901 74.3457 294.537 74.7305C294.172 75.1152 294.191 75.7305 294.575 76.0957C295.957 77.4043 297.3 78.7715 298.586 80.1562C298.759 80.3301 299.027 80.4453 299.277 80.4453ZM170.318 75.5391C170.548 75.5391 170.778 75.4609 170.97 75.2891C172.352 74 173.811 72.748 175.269 71.5371C175.672 71.209 175.749 70.5938 175.403 70.1895C175.077 69.7852 174.463 69.709 174.06 70.0547C172.563 71.2871 171.085 72.5762 169.665 73.8848C169.281 74.25 169.243 74.8457 169.608 75.25C169.8 75.4238 170.049 75.5391 170.318 75.5391ZM290.18 71.8828C290.449 71.8828 290.737 71.7676 290.929 71.5371C291.255 71.1328 291.198 70.5176 290.795 70.1895C289.298 68.959 287.743 67.7656 286.17 66.6309C285.748 66.3223 285.134 66.418 284.826 66.8418C284.519 67.2656 284.615 67.8809 285.038 68.1895C286.573 69.2852 288.089 70.459 289.566 71.6719C289.758 71.8066 289.969 71.8828 290.18 71.8828ZM180.028 67.6875C180.22 67.6875 180.412 67.6309 180.585 67.5156C182.139 66.418 183.751 65.3789 185.363 64.3789C185.823 64.1094 185.958 63.5137 185.689 63.0508C185.421 62.5898 184.826 62.4551 184.365 62.7246C182.715 63.7246 181.083 64.8027 179.491 65.918C179.049 66.2266 178.953 66.8223 179.26 67.2656C179.433 67.5352 179.721 67.6875 180.028 67.6875ZM280.029 64.6484C280.355 64.6484 280.662 64.4941 280.854 64.1875C281.123 63.7246 280.988 63.1484 280.528 62.8594C278.877 61.8398 277.189 60.877 275.481 59.9727C275.02 59.7227 274.425 59.8965 274.176 60.377C273.926 60.8398 274.099 61.4355 274.579 61.6855C276.248 62.5703 277.918 63.5137 279.53 64.5137C279.683 64.5898 279.856 64.6484 280.029 64.6484ZM190.717 61.2246C190.871 61.2246 191.005 61.1855 191.158 61.1074C192.847 60.2422 194.574 59.416 196.321 58.6641C196.801 58.4531 197.031 57.8945 196.82 57.3945C196.609 56.9141 196.052 56.6836 195.553 56.8945C193.788 57.6641 192.003 58.5117 190.276 59.3965C189.796 59.6465 189.623 60.2227 189.854 60.6855C190.026 61.0312 190.372 61.2246 190.717 61.2246ZM268.975 58.8574C269.34 58.8574 269.704 58.6445 269.858 58.2793C270.069 57.7988 269.858 57.2207 269.359 57.0098C267.594 56.2402 265.771 55.5098 263.967 54.8359C263.468 54.6621 262.911 54.9121 262.738 55.4121C262.566 55.9141 262.815 56.4707 263.314 56.6445C265.08 57.2988 266.864 58.0098 268.591 58.7617C268.726 58.8379 268.841 58.8574 268.975 58.8574ZM202.193 56.2988C202.289 56.2988 202.404 56.2793 202.5 56.2402C204.285 55.6055 206.108 55.0469 207.931 54.5273C208.449 54.3926 208.737 53.8555 208.603 53.3359C208.468 52.8164 207.931 52.5273 207.413 52.6621C205.551 53.1816 203.69 53.7773 201.867 54.4121C201.368 54.5859 201.099 55.1445 201.272 55.6445C201.425 56.0488 201.79 56.2988 202.193 56.2988ZM257.25 54.6426C257.672 54.6426 258.056 54.375 258.171 53.9512C258.324 53.4316 258.018 52.9121 257.499 52.7578C255.638 52.2383 253.738 51.7578 251.857 51.3535C251.339 51.2383 250.821 51.5645 250.725 52.084C250.61 52.6035 250.936 53.123 251.454 53.2188C253.297 53.623 255.158 54.0859 256.981 54.6055C257.077 54.625 257.154 54.6426 257.25 54.6426ZM214.225 53.0078C214.283 53.0078 214.36 53.0078 214.417 52.9883C216.279 52.623 218.159 52.2969 220.04 52.0469C220.558 51.9688 220.942 51.4883 220.865 50.9688C220.788 50.4492 220.309 50.084 219.791 50.1406C217.871 50.4102 215.952 50.7383 214.052 51.1035C213.534 51.1992 213.189 51.7188 213.304 52.2383C213.381 52.6816 213.765 53.0078 214.225 53.0078ZM245.045 52.084C245.525 52.084 245.928 51.7383 245.985 51.2578C246.062 50.7383 245.697 50.2383 245.16 50.1797C243.241 49.9102 241.303 49.6992 239.384 49.5645C238.846 49.5254 238.386 49.9297 238.347 50.4492C238.309 50.9883 238.712 51.4492 239.23 51.4883C241.111 51.623 243.03 51.834 244.891 52.1035C244.949 52.0645 245.007 52.084 245.045 52.084ZM226.584 51.373C226.603 51.373 226.622 51.373 226.641 51.373C228.522 51.2578 230.441 51.1992 232.341 51.1992L232.61 51.1992C233.147 51.1992 233.569 50.7754 233.569 50.2383C233.569 49.6992 233.147 49.2754 232.61 49.2754L232.341 49.2754C230.403 49.2754 228.445 49.334 226.526 49.4492C225.989 49.4863 225.586 49.9297 225.624 50.4688C225.663 50.9883 226.085 51.373 226.584 51.373Z" fill="#FFFFFF" fill-opacity="1.000000" fill-rule="nonzero"/>
  <path id="Vector" d="M232.341 66.957C233.128 66.957 233.78 66.3027 233.78 65.5137L233.78 50.2559C233.78 49.4668 233.128 48.8125 232.341 48.8125C231.554 48.8125 230.902 49.4668 230.902 50.2559L230.902 65.5137C230.902 66.3027 231.554 66.957 232.341 66.957Z" fill="#FFFFFF" fill-opacity="1.000000" fill-rule="nonzero"/>
  <path id="Vector" d="M232.341 234.963C233.128 234.963 233.78 234.309 233.78 233.521L233.78 218.244C233.78 217.455 233.128 216.801 232.341 216.801C231.554 216.801 230.902 217.455 230.902 218.244L230.902 233.521C230.902 234.309 231.554 234.963 232.341 234.963Z" fill="#FFFFFF" fill-opacity="1.000000" fill-rule="nonzero"/>
  <path id="Vector" d="M286.208 89.334C286.573 89.334 286.937 89.1992 287.225 88.9102L297.991 78.0957C298.547 77.5391 298.547 76.6152 297.991 76.0566C297.434 75.5 296.513 75.5 295.957 76.0566L285.191 86.8711C284.634 87.4277 284.634 88.3516 285.191 88.9102C285.479 89.1992 285.843 89.334 286.208 89.334Z" fill="#FFFFFF" fill-opacity="1.000000" fill-rule="nonzero"/>
  <path id="Vector" d="M167.727 208.123C168.092 208.123 168.456 207.988 168.744 207.699L179.51 196.904C180.066 196.348 180.066 195.424 179.51 194.865C178.953 194.309 178.032 194.309 177.476 194.865L166.71 205.66C166.153 206.217 166.153 207.141 166.71 207.699C166.998 207.988 167.362 208.123 167.727 208.123Z" fill="#FFFFFF" fill-opacity="1.000000" fill-rule="nonzero"/>
  <path id="Vector" d="M308.507 143.322L323.744 143.322C324.531 143.322 325.184 142.668 325.184 141.879C325.184 141.09 324.531 140.436 323.744 140.436L308.507 140.436C307.72 140.436 307.068 141.09 307.068 141.879C307.068 142.668 307.72 143.322 308.507 143.322Z" fill="#FFFFFF" fill-opacity="1.000000" fill-rule="nonzero"/>
  <path id="Vector" d="M140.957 143.322L156.175 143.322C156.961 143.322 157.614 142.668 157.614 141.879C157.614 141.09 156.961 140.436 156.175 140.436L140.957 140.436C140.17 140.436 139.517 141.09 139.517 141.879C139.517 142.668 140.17 143.322 140.957 143.322Z" fill="#FFFFFF" fill-opacity="1.000000" fill-rule="nonzero"/>
  <path id="Vector" d="M296.974 208.123C297.338 208.123 297.703 207.988 297.991 207.699C298.547 207.141 298.547 206.217 297.991 205.66L287.225 194.865C286.668 194.309 285.747 194.309 285.191 194.865C284.634 195.424 284.634 196.348 285.191 196.904L295.957 207.699C296.244 207.988 296.609 208.123 296.974 208.123Z" fill="#FFFFFF" fill-opacity="1.000000" fill-rule="nonzero"/>
  <path id="Vector" d="M178.493 89.334C178.857 89.334 179.222 89.1992 179.51 88.9102C180.066 88.3516 180.066 87.4277 179.51 86.8711L168.744 76.0566C168.188 75.5 167.266 75.5 166.71 76.0566C166.153 76.6152 166.153 77.5391 166.71 78.0957L177.476 88.9102C177.763 89.1992 178.128 89.334 178.493 89.334Z" fill="#FFFFFF" fill-opacity="1.000000" fill-rule="nonzero"/>
  <path id="Vector" d="M232.341 239.293C245.448 239.293 258.171 236.715 270.165 231.635C281.737 226.729 292.119 219.705 301.042 210.76C309.966 201.812 316.97 191.404 321.864 179.801C326.93 167.795 329.501 155.039 329.501 141.879C329.501 114.885 319.062 90.1035 300.275 72.998L292.541 81.541C300.543 88.832 306.435 96.8359 311.002 107.572C315.588 118.367 318.006 130.219 318.006 141.859C318.006 153.461 315.742 164.697 311.271 175.279C306.953 185.496 300.774 194.693 292.906 202.582C285.038 210.471 275.884 216.666 265.675 220.977C255.12 225.459 243.913 227.729 232.341 227.729C220.769 227.729 209.562 225.459 199.007 220.977C188.817 216.646 179.644 210.451 171.776 202.582C163.908 194.693 157.729 185.516 153.411 175.279C148.94 164.697 146.675 153.461 146.675 141.859C146.675 130.314 149.017 119.098 153.642 108.496C158.094 98.2988 164.465 89.1016 172.563 81.1953C180.642 73.3066 190.007 67.0918 200.408 62.7422C211.136 58.2598 220.731 56.375 232.302 56.375L232.302 44.8301C219.196 44.8301 208.104 47.0234 195.975 52.084C184.231 56.9902 173.657 63.9941 164.522 72.9219C155.349 81.8867 148.134 92.2969 143.087 103.859C137.829 115.924 135.142 128.699 135.142 141.84C135.142 154.98 137.713 167.738 142.78 179.764C147.673 191.365 154.678 201.773 163.601 210.721C172.525 219.668 182.907 226.689 194.479 231.596C206.511 236.715 219.234 239.293 232.341 239.293Z" fill="#D0F0E4" fill-opacity="1.000000" fill-rule="nonzero"/>
  <path id="Vector" d="M232.341 240.736C245.64 240.736 258.555 238.119 270.721 232.963C282.447 227.98 293.001 220.861 302.059 211.779C311.117 202.697 318.218 192.135 323.188 180.359C328.331 168.162 330.941 155.232 330.941 141.879C330.941 128.238 328.35 115.211 323.265 103.168C318.141 91.084 310.733 80.5781 301.253 71.9395C300.965 71.6895 300.601 71.5547 300.217 71.5742C299.833 71.5938 299.469 71.7676 299.219 72.0547L291.485 80.5977C290.948 81.1953 290.986 82.0996 291.581 82.6387C299.756 90.084 305.341 97.9727 309.678 108.17C314.188 118.771 316.567 130.432 316.567 141.898C316.567 153.309 314.341 164.352 309.947 174.76C305.686 184.824 299.622 193.848 291.888 201.602C284.135 209.375 275.135 215.453 265.118 219.688C254.736 224.094 243.721 226.324 232.341 226.324C220.961 226.324 209.946 224.094 199.564 219.688C189.546 215.436 180.527 209.336 172.793 201.602C165.06 193.848 158.976 184.805 154.735 174.76C150.341 164.352 148.115 153.309 148.115 141.898C148.115 130.566 150.417 119.521 154.966 109.113C159.341 99.0684 165.616 90.0449 173.58 82.2715C181.544 74.498 190.755 68.3809 200.984 64.1094C211.481 59.7227 220.846 57.8555 232.322 57.8555C233.108 57.8555 233.761 57.2012 233.761 56.4121L233.761 44.8691C233.761 44.0801 233.108 43.4258 232.322 43.4258C219.023 43.4258 207.643 45.6953 195.438 50.7949C183.521 55.7773 172.793 62.877 163.524 71.9395C154.217 81.041 146.886 91.6035 141.782 103.34C136.428 115.615 133.722 128.584 133.722 141.898C133.722 155.232 136.332 168.18 141.475 180.379C146.445 192.135 153.545 202.717 162.603 211.799C171.661 220.879 182.197 227.998 193.941 232.982C206.108 238.1 219.023 240.736 232.341 240.736ZM300.371 75.0371C309.044 83.2148 315.857 93.0469 320.616 104.283C325.567 115.963 328.062 128.604 328.062 141.859C328.062 154.828 325.529 167.393 320.54 179.225C315.723 190.652 308.814 200.908 300.025 209.721C291.236 218.533 280.988 225.459 269.608 230.289C257.787 235.291 245.256 237.83 232.341 237.83C219.426 237.83 206.875 235.271 195.035 230.25C183.636 225.42 173.407 218.494 164.618 209.682C155.829 200.869 148.921 190.596 144.104 179.186C139.114 167.334 136.581 154.77 136.581 141.82C136.581 128.91 139.21 116.328 144.411 104.418C149.381 93.0273 156.481 82.7715 165.539 73.9414C174.54 65.1484 184.96 58.2402 196.532 53.4121C207.931 48.6582 218.581 46.4473 230.863 46.2734L230.863 54.9316C219.637 55.0859 210.272 57.0488 199.852 61.3965C189.297 65.8027 179.779 72.1133 171.565 80.1367C163.333 88.1797 156.865 97.5098 152.336 107.9C147.635 118.676 145.255 130.104 145.255 141.84C145.255 153.635 147.558 165.064 152.106 175.818C156.481 186.209 162.776 195.559 170.778 203.582C178.781 211.586 188.088 217.879 198.47 222.285C209.197 226.844 220.596 229.152 232.36 229.152C244.124 229.152 255.523 226.844 266.25 222.285C276.594 217.916 285.92 211.625 293.942 203.582C301.925 195.578 308.219 186.229 312.614 175.818C317.162 165.064 319.465 153.635 319.465 141.84C319.465 130.008 317.009 117.943 312.345 106.996C308.027 96.8379 302.52 88.9102 294.594 81.4453L300.371 75.0371Z" fill="#FFFFFF" fill-opacity="1.000000" fill-rule="nonzero"/>
  <path id="Vector" d="M219.925 155.656C220.097 155.656 220.27 155.578 220.404 155.443L280.719 93.4141C280.969 93.1445 280.969 92.7207 280.7 92.4707C280.432 92.2207 280.01 92.2207 279.76 92.4902L219.445 154.521C219.195 154.789 219.195 155.213 219.464 155.463C219.579 155.598 219.752 155.656 219.925 155.656Z" fill="#FE5244" fill-opacity="1.000000" fill-rule="nonzero"/>
  <path id="Vector" d="M226.91 142.514C226.91 145.16 229.049 147.305 231.688 147.305C234.327 147.305 236.467 145.16 236.467 142.514C236.467 139.867 234.327 137.723 231.688 137.723C229.049 137.723 226.91 139.867 226.91 142.514Z" fill="#D0F0E4" fill-opacity="1.000000" fill-rule="evenodd"/>
  <path id="Vector" d="M231.688 148.746C235.124 148.746 237.906 145.957 237.906 142.514C237.906 139.068 235.124 136.279 231.688 136.279C228.253 136.279 225.471 139.068 225.471 142.514C225.471 145.957 228.253 148.746 231.688 148.746ZM231.688 139.166C233.531 139.166 235.028 140.666 235.028 142.514C235.028 144.359 233.531 145.861 231.688 145.861C229.846 145.861 228.349 144.359 228.349 142.514C228.349 140.666 229.846 139.166 231.688 139.166Z" fill="#FFFFFF" fill-opacity="1.000000" fill-rule="nonzero"/>
  <path id="Vector" d="M192.732 46.293C192.943 46.293 193.173 46.2344 193.365 46.1387C194.075 45.793 194.363 44.9258 194.018 44.1953L191.101 38.3262C190.698 37.4609 190.698 36.4609 191.082 35.5938C191.465 34.7285 192.214 34.0742 193.116 33.7852L199.142 31.959C200.063 31.6699 201.041 31.8047 201.847 32.3242C202.653 32.8242 203.191 33.6699 203.325 34.6133L204.188 40.7695C204.304 41.5586 205.033 42.1172 205.82 42.002C206.606 41.8867 207.163 41.1543 207.048 40.3672L206.184 34.1895C205.916 32.4004 204.899 30.8418 203.383 29.8809C201.866 28.918 200.024 28.668 198.316 29.207L192.291 31.0352C190.583 31.5547 189.182 32.7852 188.452 34.4219C187.723 36.0566 187.742 37.9414 188.51 39.5586L188.529 39.5781L191.446 45.4648C191.696 46.0039 192.195 46.293 192.732 46.293Z" fill="#FFFFFF" fill-opacity="1.000000" fill-rule="nonzero"/>
  <path id="Vector" d="M22.8511 553.219L24.0344 553.219L24.0344 305.883L353 305.883L353 553.219L354.183 553.219L354.183 304.729L22.8511 304.729L22.8511 553.219Z" fill="#66B0F0" fill-opacity="1.000000" fill-rule="nonzero"/>
  <path id="Vector" d="M19.3262 313.6L358.618 313.6C366.279 313.6 372.501 309.193 372.501 303.768L372.501 266.307C372.501 260.881 366.279 256.475 358.618 256.475L19.3262 256.475C11.665 256.475 5.44385 260.881 5.44385 266.307L5.44385 303.768C5.44385 309.193 11.665 313.6 19.3262 313.6Z" fill="#FFFFFF" fill-opacity="1.000000" fill-rule="nonzero"/>
  <path id="Vector" d="M19.3262 314.176L358.618 314.176C366.714 314.176 373.316 309.5 373.316 303.766L373.316 266.305C373.316 260.572 366.714 255.896 358.618 255.896L19.3262 255.896C11.2305 255.896 4.62891 260.572 4.62891 266.305L4.62891 303.766C4.62891 309.5 11.2305 314.176 19.3262 314.176ZM358.618 257.051C365.817 257.051 371.686 261.207 371.686 266.305L371.686 303.766C371.686 308.865 365.817 313.021 358.618 313.021L19.3262 313.021C12.127 313.021 6.25879 308.865 6.25879 303.766L6.25879 266.305C6.25879 261.207 12.127 257.051 19.3262 257.051L358.618 257.051Z" fill="#66B0F0" fill-opacity="1.000000" fill-rule="nonzero"/>
  <path id="Vector" d="M18.5039 306.898L359.433 306.898C367.094 306.898 373.316 302.488 373.316 297.057L373.316 259.559C373.316 254.127 367.094 249.717 359.433 249.717L18.5039 249.717C10.8428 249.717 4.62109 254.127 4.62109 259.559L4.62109 297.057C4.62109 302.488 10.8428 306.898 18.5039 306.898Z" fill="#66B0F0" fill-opacity="1.000000" fill-rule="nonzero"/>
  <path id="Vector" d="M170.61 255.801L84.7327 255.801L84.7327 295.342L170.61 295.342L170.61 255.801Z" fill="#FFFFFF" fill-opacity="1.000000" fill-rule="evenodd"/>
  <path id="Vector" d="M26.8894 260.072L115.453 260.072L115.376 249.721L168.725 249.721L184.25 204.121L200.869 234.811L153.948 274.945L176.382 305.422L231.803 269.809C241.84 263.248 247.885 252.068 247.885 240.062C247.885 234.061 246.369 228.135 243.452 222.881L217.583 175.973C206.722 156.291 186.073 144.092 163.659 144.092L80.5837 144.092C66.7668 144.092 53.8135 150.826 45.8494 162.139L5.56885 218.359C-6.9624 235.771 5.4729 260.072 26.8894 260.072Z" fill="#FFFFFF" fill-opacity="1.000000" fill-rule="nonzero"/>
  <path id="Vector" d="M176.248 306.191L232.13 270.289C242.358 263.594 248.48 252.299 248.48 240.062C248.48 233.943 246.926 227.902 243.97 222.592L218.102 175.684C207.144 155.828 186.284 143.514 163.678 143.514L80.603 143.514C66.6133 143.514 53.468 150.344 45.3889 161.811L5.1084 218.012C2.07642 222.227 0.311035 227.133 0.0422363 232.174C-0.226318 236.906 0.790771 241.678 2.99756 245.988C5.1853 250.297 8.4668 253.914 12.4585 256.475C16.7185 259.207 21.708 260.648 26.9087 260.648L116.029 260.648L115.952 250.297L169.128 250.297L169.262 249.912L184.365 205.564L200.14 234.693L153.162 274.867L176.248 306.191ZM163.659 144.668C185.862 144.668 206.338 156.77 217.085 176.262L242.953 223.168C245.812 228.307 247.309 234.154 247.309 240.062C247.309 251.914 241.399 262.842 231.497 269.326L176.536 304.652L154.735 275.041L201.598 234.943L184.135 202.697L168.322 249.143L114.8 249.143L114.877 259.494L26.8894 259.494C21.8999 259.494 17.1216 258.109 13.0532 255.512C9.23438 253.068 6.08716 249.586 3.99536 245.469C1.90381 241.352 0.925049 236.791 1.17456 232.25C1.44312 227.439 3.13184 222.746 6.02954 218.705L46.3101 162.484C54.1589 151.326 66.978 144.668 80.584 144.668L163.659 144.668Z" fill="#FE5244" fill-opacity="1.000000" fill-rule="nonzero"/>
  <path id="Vector" d="M158.189 294.916C164.752 303.768 172.832 308.846 176.267 306.287C179.702 303.729 177.169 294.492 170.625 285.643C164.062 276.791 156.75 272.098 153.315 274.656C149.88 277.215 151.646 286.084 158.189 294.916Z" fill="#FE5244" fill-opacity="1.000000" fill-rule="nonzero"/>
  <path id="Vector" d="M129.903 182.109L157.633 143.59L104.322 143.59L129.903 182.109ZM155.369 144.744L129.941 180.07L106.472 144.744L155.369 144.744Z" fill="#FE5244" fill-opacity="1.000000" fill-rule="nonzero"/>
  <path id="Vector" d="M129.634 195.117C131.477 195.117 132.993 193.598 132.993 191.75C132.993 189.902 131.477 188.383 129.634 188.383C127.792 188.383 126.276 189.902 126.276 191.75C126.276 193.598 127.792 195.117 129.634 195.117ZM129.634 189.537C130.843 189.537 131.841 190.537 131.841 191.75C131.841 192.963 130.843 193.963 129.634 193.963C128.425 193.963 127.427 192.963 127.427 191.75C127.427 190.537 128.425 189.537 129.634 189.537Z" fill="#FE5244" fill-opacity="1.000000" fill-rule="nonzero"/>
  <path id="Vector" d="M129.634 212.818C131.477 212.818 132.993 211.299 132.993 209.451C132.993 207.604 131.477 206.084 129.634 206.084C127.792 206.084 126.276 207.604 126.276 209.451C126.276 211.299 127.792 212.818 129.634 212.818ZM129.634 207.238C130.843 207.238 131.841 208.238 131.841 209.451C131.841 210.664 130.843 211.664 129.634 211.664C128.425 211.664 127.427 210.664 127.427 209.451C127.427 208.238 128.425 207.238 129.634 207.238Z" fill="#FE5244" fill-opacity="1.000000" fill-rule="nonzero"/>
  <path id="Vector" d="M114.129 260.746L115.28 260.746L115.28 220.918L62.4106 220.918L74.5198 202.082L73.5603 201.467L60.2998 222.072L114.129 222.072L114.129 260.746Z" fill="#FE5244" fill-opacity="1.000000" fill-rule="nonzero"/>
  <path id="Vector" d="M61.3552 220.918L47.3655 220.918L47.3655 222.072L61.3552 222.072L61.3552 220.918Z" fill="#FE5244" fill-opacity="1.000000" fill-rule="evenodd"/>
  <path id="Vector" d="M106.951 240.795C106.951 251.812 110.422 260.746 114.704 260.746C118.986 260.746 122.457 251.812 122.457 240.795C122.457 229.775 118.986 220.842 114.704 220.842C110.422 220.842 106.951 229.775 106.951 240.795Z" fill="#FE5244" fill-opacity="1.000000" fill-rule="evenodd"/>
  <path id="Vector" d="M107.028 260.611L107.028 259.457C103.132 259.457 99.8508 250.914 99.8508 240.795C99.8508 230.674 103.132 222.131 107.028 222.131L107.028 220.977C102.365 220.977 98.6995 229.674 98.6995 240.795C98.6995 251.916 102.365 260.611 107.028 260.611Z" fill="#FE5244" fill-opacity="1.000000" fill-rule="nonzero"/>
  <path id="Vector" d="M182.58 302.15C186.322 299.359 183.885 289.951 177.053 280.697C173.753 276.252 170.375 272.828 167.266 270.787C163.947 268.613 161.202 268.191 159.322 269.596L160.012 270.52C163.064 268.248 169.704 272.713 176.132 281.389C182.369 289.816 184.998 298.898 181.889 301.227L182.58 302.15Z" fill="#FE5244" fill-opacity="1.000000" fill-rule="nonzero"/>
  <path id="Vector" d="M156.309 128.219C156.175 109.246 143.605 104.053 122.956 105.707C100.695 107.496 109.811 138.203 97.4521 139.223C92.2708 139.646 86.3601 133.76 78.4922 128.91C72.0059 124.523 64.1953 121.965 55.7708 121.965C33.2988 121.965 15.0681 140.242 15.0681 162.773C15.0681 173.145 19.8848 183.168 26.2368 190.365C26.2368 190.365 50.2439 156.559 59.5513 153.385C77.8589 147.15 83.6736 163.273 96.3774 165.775C98.0471 166.102 99.8318 166.199 101.789 165.967C119.866 163.889 116.412 134.01 116.412 134.01C121.095 132.086 122.112 127.217 122.284 124.273C122.188 122.85 122.246 121.906 122.246 121.906C122.246 121.906 122.361 122.869 122.284 124.273C122.668 129.814 126.046 143.072 144.871 138.318L144.871 144.764C144.871 183.803 144.238 191.385 152.125 201.197C153.296 202.658 161.125 214.453 147.097 220.822C129.02 229.018 141.782 250.586 141.782 250.586L180.028 250.586C180.028 250.586 202.73 246.547 204.707 225.883C207.528 196.348 170.586 188.439 165.77 187.535C175.135 186.094 184.288 176.838 184.288 165.621C184.288 155.674 176.67 147.266 168.84 144.496C168.821 144.496 168.821 144.496 168.802 144.477C168.572 144.398 168.341 144.322 168.111 144.244C161.989 142.129 157.479 137.473 156.482 131.836L156.309 128.219Z" fill="#FFCF2D" fill-opacity="1.000000" fill-rule="nonzero"/>
  <path id="Vector" d="M122.189 128.43C122.457 128.43 122.668 128.199 122.668 127.949L122.515 118.117C122.515 117.848 122.304 117.637 122.035 117.637C121.767 117.637 121.555 117.867 121.555 118.117L121.709 127.949C121.728 128.219 121.939 128.43 122.189 128.43Z" fill="#E57281" fill-opacity="1.000000" fill-rule="nonzero"/>
  <path id="Vector" d="M144.027 139.629C144.104 139.629 144.181 139.609 144.257 139.57C148.901 137.127 149.88 134.627 149.938 134.529C150.034 134.279 149.899 134.01 149.65 133.914C149.4 133.818 149.132 133.953 149.036 134.184C149.017 134.223 148.076 136.473 143.816 138.725C143.586 138.84 143.49 139.148 143.605 139.379C143.682 139.533 143.854 139.629 144.027 139.629Z" fill="#E57281" fill-opacity="1.000000" fill-rule="nonzero"/>
  <path id="Vector" d="M73.8096 117.135C73.8096 120.324 76.3872 122.908 79.5667 122.908C82.7461 122.908 85.3237 120.324 85.3237 117.135C85.3237 113.947 82.7461 111.363 79.5667 111.363C76.3872 111.363 73.8096 113.947 73.8096 117.135Z" fill="#FFCF2D" fill-opacity="1.000000" fill-rule="evenodd"/>
  <path id="Vector" d="M142.703 209.547C142.703 212.107 144.774 214.184 147.328 214.184C149.882 214.184 151.953 212.107 151.953 209.547C151.953 206.986 149.882 204.91 147.328 204.91C144.774 204.91 142.703 206.986 142.703 209.547Z" fill="#FFCF2D" fill-opacity="1.000000" fill-rule="evenodd"/>
  <path id="Vector" d="M118.197 279.334L118.216 282.834C118.216 283.143 118.292 283.451 118.408 283.721L126.813 302.498C128.06 305.211 130.766 306.943 133.741 306.943L151.722 306.943C156.213 306.943 160.569 305.424 164.1 302.652L164.733 302.152L175.441 293.705C174.252 291.127 172.62 288.377 170.605 285.664C166.767 280.469 162.373 276.582 158.727 274.754L132.916 274.754C130.862 279.352 137.541 283.047 137.541 283.047L125.873 283.047L121.651 278.447C120.557 277.256 118.58 277.775 118.197 279.334Z" fill="#E57281" fill-opacity="1.000000" fill-rule="nonzero"/>
  <path id="Vector" d="M131.764 301.707L146.906 301.707C147.174 301.707 147.385 301.496 147.385 301.227C147.385 300.957 147.174 300.746 146.906 300.746L131.764 300.746C128.982 300.746 126.429 299.111 125.278 296.59C125.163 296.34 124.875 296.244 124.645 296.359C124.395 296.475 124.299 296.764 124.415 296.994C125.719 299.861 128.617 301.707 131.764 301.707Z" fill="#9A3B82" fill-opacity="1.000000" fill-rule="nonzero"/>
  <path id="Vector" d="M129.116 295.762L144.257 295.762C144.526 295.762 144.737 295.551 144.737 295.281C144.737 295.012 144.526 294.801 144.257 294.801L129.116 294.801C126.334 294.801 123.781 293.166 122.63 290.645C122.515 290.395 122.227 290.299 121.997 290.414C121.747 290.529 121.651 290.818 121.766 291.049C123.071 293.916 125.969 295.762 129.116 295.762Z" fill="#9A3B82" fill-opacity="1.000000" fill-rule="nonzero"/>
  <path id="Vector" d="M126.257 289.143L141.398 289.143C141.667 289.143 141.878 288.932 141.878 288.662C141.878 288.393 141.667 288.182 141.398 288.182L126.257 288.182C123.474 288.182 120.922 286.547 119.771 284.025C119.655 283.775 119.367 283.68 119.137 283.795C118.888 283.91 118.792 284.199 118.907 284.43C120.212 287.297 123.11 289.143 126.257 289.143Z" fill="#9A3B82" fill-opacity="1.000000" fill-rule="nonzero"/>
  <path id="Vector" d="M158.382 294.531C160.09 297.32 162.604 300.227 164.734 302.15L164.753 302.131L175.461 293.684C174.271 291.105 172.64 288.355 170.625 285.643C166.787 280.447 162.392 276.561 158.746 274.732L153.2 274.732C152.701 279.1 153.43 286.449 158.382 294.531Z" fill="#9A3B82" fill-opacity="1.000000" fill-rule="nonzero"/>
  <path id="Vector" d="M139.978 235.176C139.978 235.176 130.651 210.221 127.043 210.721C123.455 211.201 135.084 233.328 135.084 233.328L139.978 235.176Z" fill="#FE5244" fill-opacity="1.000000" fill-rule="nonzero"/>
  <path id="Vector" d="M106.951 240.793C106.951 251.471 110.214 260.168 114.301 260.707C114.436 260.727 114.57 260.727 114.704 260.727L152.701 260.727C153.852 260.727 154.773 259.803 154.773 258.648L154.773 246.488C154.773 243.045 152.663 239.965 149.458 238.754L133.549 232.713C132.11 232.174 130.574 231.885 129.039 231.885L107.776 231.885C107.258 234.578 106.951 237.6 106.951 240.793Z" fill="#E57281" fill-opacity="1.000000" fill-rule="nonzero"/>
  <path id="Vector" d="M154.102 252.318C154.37 252.318 154.582 252.107 154.582 251.838C154.582 249.068 152.854 246.547 150.264 245.566L138.251 241.006C138.001 240.91 137.732 241.045 137.636 241.295C137.541 241.545 137.675 241.814 137.924 241.91L149.938 246.471C152.144 247.316 153.641 249.471 153.641 251.857C153.622 252.107 153.833 252.318 154.102 252.318Z" fill="#9A3B82" fill-opacity="1.000000" fill-rule="nonzero"/>
  <path id="Vector" d="M154.102 259.59C154.37 259.59 154.582 259.379 154.582 259.109C154.582 256.34 152.854 253.818 150.264 252.838L138.251 248.277C138.001 248.182 137.732 248.316 137.636 248.566C137.541 248.816 137.675 249.086 137.924 249.182L149.938 253.742C152.144 254.588 153.641 256.742 153.641 259.129C153.622 259.379 153.833 259.59 154.102 259.59Z" fill="#9A3B82" fill-opacity="1.000000" fill-rule="nonzero"/>
  <path id="Vector" d="M150.744 260.555C150.936 260.555 151.127 260.438 151.185 260.246C151.281 259.996 151.146 259.727 150.897 259.631L138.884 255.07C138.635 254.975 138.366 255.109 138.27 255.359C138.174 255.609 138.308 255.879 138.558 255.975L150.571 260.535C150.628 260.535 150.686 260.555 150.744 260.555Z" fill="#9A3B82" fill-opacity="1.000000" fill-rule="nonzero"/>
  <path id="Vector" d="M106.951 240.793C106.951 251.471 110.214 260.168 114.301 260.707C114.436 260.727 114.57 260.727 114.704 260.727C118.984 260.727 122.457 251.799 122.457 240.773C122.457 237.83 122.016 234.482 121.555 231.865L107.872 231.865C107.393 234.502 106.951 237.85 106.951 240.793Z" fill="#9A3B82" fill-opacity="1.000000" fill-rule="nonzero"/>
  <path id="HEAD 1" d="M110.137 138.299C110.137 139.416 110.521 140.473 111.154 141.301C111.806 142.148 112.708 142.764 113.802 143.053L116.45 143.744L116.45 146.707C116.45 153.865 122.227 159.656 129.365 159.656L131.918 159.656C139.038 159.656 144.795 153.885 144.833 146.766L144.833 138.299C126.007 143.07 122.63 129.795 122.246 124.254C122.093 127.062 121.152 131.604 117.007 133.701L116.278 133.508C113.169 132.738 110.137 135.086 110.137 138.299Z" fill="#E57281" fill-opacity="1.000000" fill-rule="nonzero"/>
  <path id="Vector" d="M119.963 142.727C120.078 142.727 120.193 142.688 120.27 142.609C122.361 140.82 126.046 141.168 126.084 141.168C126.353 141.186 126.583 140.994 126.603 140.744C126.622 140.475 126.43 140.244 126.18 140.225C126.008 140.205 122.035 139.84 119.636 141.898C119.444 142.072 119.406 142.379 119.579 142.572C119.694 142.668 119.828 142.727 119.963 142.727Z" fill="#9A3B82" fill-opacity="1.000000" fill-rule="nonzero"/>
  <path id="Vector" d="M132.014 153.52C132.283 153.52 132.494 153.309 132.494 153.039C132.532 147.344 133.741 142.842 135.43 142.09C138.405 140.783 141.091 142.188 141.11 142.207C141.341 142.34 141.628 142.244 141.763 142.014C141.897 141.783 141.801 141.494 141.571 141.359C141.437 141.283 138.443 139.705 135.046 141.205C132.916 142.148 131.573 146.67 131.534 153.039C131.534 153.309 131.745 153.52 132.014 153.52Z" fill="#9A3B82" fill-opacity="1.000000" fill-rule="nonzero"/>
  <path id="Vector" d="M136.907 146.209C136.907 147.006 137.242 147.652 137.656 147.652C138.069 147.652 138.404 147.006 138.404 146.209C138.404 145.412 138.069 144.766 137.656 144.766C137.242 144.766 136.907 145.412 136.907 146.209Z" fill="#9A3B82" fill-opacity="1.000000" fill-rule="evenodd"/>
  <path id="Vector" d="M122.975 146.209C122.975 147.006 123.311 147.652 123.724 147.652C124.137 147.652 124.472 147.006 124.472 146.209C124.472 145.412 124.137 144.766 123.724 144.766C123.311 144.766 122.975 145.412 122.975 146.209Z" fill="#9A3B82" fill-opacity="1.000000" fill-rule="evenodd"/>
  <path id="Vector" d="M115.721 140.648C115.99 140.648 116.201 140.436 116.201 140.166C116.201 138.281 114.858 136.627 113.016 136.242C112.766 136.184 112.497 136.357 112.44 136.607C112.382 136.877 112.555 137.127 112.804 137.184C114.205 137.473 115.222 138.742 115.222 140.186C115.242 140.436 115.453 140.648 115.721 140.648Z" fill="#9A3B82" fill-opacity="1.000000" fill-rule="nonzero"/>
  <path id="Vector" d="M321.307 436C319.023 441.387 319.695 452.469 331.19 452.314C345.448 452.123 345.084 413.604 345.084 413.604C345.084 413.604 330.518 414.277 321.307 436Z" fill="#3FB1B5" fill-opacity="1.000000" fill-rule="nonzero"/>
  <path id="Vector" d="M454.104 422.973C457.673 430.553 452.875 436.652 448.846 434.555C441.803 430.881 438.771 421.434 438.771 421.434C438.771 421.434 450.899 416.199 454.104 422.973Z" fill="#3FB1B5" fill-opacity="1.000000" fill-rule="nonzero"/>
  <path id="Vector" d="M321.499 436C329.136 420.664 337.753 413.373 351.551 413.373C374.79 413.373 389.701 438.309 392.541 470.555C392.887 466.553 397.013 462.455 397.32 458.299C401.465 403.078 371.279 381.299 348.634 381.299C330.096 381.279 325.471 407.984 321.499 436Z" fill="#FFFFFF" fill-opacity="1.000000" fill-rule="nonzero"/>
  <path id="Vector" d="M391.966 470.611L393.117 470.611C393.271 468.764 394.307 466.879 395.401 464.859C396.552 462.762 397.742 460.568 397.896 458.336C400.428 424.531 390.066 405.656 380.931 395.766C372.084 386.203 360.302 380.701 348.634 380.701L348.615 380.701C339.979 380.701 333.589 386.32 329.079 397.902C325.087 408.139 322.957 421.721 320.942 435.902L320.443 439.422L322.036 436.248C325.989 428.303 329.981 422.953 334.587 419.375C339.327 415.719 344.873 413.93 351.57 413.93C362.432 413.93 372.008 419.547 379.242 430.168C386.132 440.346 390.526 454.314 391.966 470.611ZM348.615 381.875L348.634 381.875C359.995 381.875 371.451 387.225 380.087 396.555C389.068 406.271 399.258 424.838 396.744 458.24C396.591 460.221 395.478 462.299 394.384 464.301C393.827 465.32 393.251 466.379 392.81 467.438C391.102 452.256 386.746 439.211 380.183 429.553C372.718 418.586 362.835 412.795 351.57 412.795C344.604 412.795 338.828 414.66 333.876 418.471C329.731 421.664 326.104 426.242 322.554 432.727C324.416 419.836 326.508 407.656 330.154 398.344C332.245 392.977 334.663 389.033 337.542 386.32C340.689 383.338 344.316 381.875 348.615 381.875Z" fill="#3FB1B5" fill-opacity="1.000000" fill-rule="nonzero"/>
  <path id="Vector" d="M397.876 471.361C400.39 437.961 389.855 418.99 380.567 408.965C371.758 399.441 359.956 393.746 348.999 393.746C337.235 393.746 329.77 400.576 324.051 416.564L325.126 416.949C330.672 401.5 337.811 394.9 348.999 394.9C359.63 394.9 371.125 400.461 379.722 409.754C388.857 419.625 399.2 438.307 396.725 471.285L397.876 471.361Z" fill="#3FB1B5" fill-opacity="1.000000" fill-rule="nonzero"/>
  <path id="Vector" d="M484.252 357.998C490.45 364.154 501.657 389.398 487.783 394.4C473.908 399.422 457.654 349.994 457.654 349.994C457.654 349.994 469.418 343.24 484.252 357.998Z" fill="#FFCF2D" fill-opacity="1.000000" fill-rule="nonzero"/>
  <path id="Vector" d="M485.749 395.344C486.497 395.344 487.246 395.209 487.975 394.959C491.525 393.67 493.751 391.072 494.615 387.205C496.783 377.334 489.299 362.23 484.655 357.613C480.356 353.342 473.524 348.166 465.407 347.916C460.513 347.762 457.5 349.455 457.366 349.533L456.963 349.764L457.117 350.205C457.155 350.303 460.302 359.826 464.927 369.965C471.183 383.664 477.017 391.918 482.294 394.498C483.465 395.035 484.636 395.344 485.749 395.344ZM464.774 349.031C464.985 349.031 465.215 349.031 465.445 349.051C473.16 349.34 479.704 354.305 483.849 358.422C488.435 362.98 495.517 377.816 493.502 386.955C492.734 390.418 490.757 392.746 487.591 393.881C486.075 394.439 484.501 394.285 482.793 393.459C471.49 387.936 459.861 354.707 458.364 350.32C459.266 349.879 461.55 349.031 464.774 349.031Z" fill="#FFCF2D" fill-opacity="1.000000" fill-rule="nonzero"/>
  <path id="Vector" d="M369.858 472.689L374.81 499.605C377.304 513.113 389.049 522.926 402.75 522.926C416.452 522.926 428.197 513.113 430.692 499.605L435.643 472.689C435.643 471.342 435.336 470.053 434.798 468.898C430.826 472.9 417.911 475.824 402.616 475.824C387.533 475.824 374.79 472.977 370.607 469.092C370.127 470.188 369.858 471.42 369.858 472.689Z" fill="#D0F0E4" fill-opacity="1.000000" fill-rule="nonzero"/>
  <path id="Vector" d="M373.102 466.303C373.102 470.111 386.324 473.191 402.635 473.191C418.947 473.191 432.169 470.111 432.169 466.303C432.169 465.994 432.093 465.705 431.92 465.418C430.039 462.031 417.642 459.434 402.635 459.434C387.168 459.434 374.483 462.205 373.217 465.725C373.14 465.918 373.102 466.109 373.102 466.303Z" fill="#66B0F0" fill-opacity="1.000000" fill-rule="nonzero"/>
  <path id="Vector" d="M392.042 426.148C392.042 442.08 394.23 457.125 398.126 470.363L409.333 470.363C409.371 403.463 433.705 349.264 463.699 349.264C471.49 349.264 478.898 352.92 485.595 359.5C465.868 336.354 457.673 330.004 446.409 330.004C419.504 330.004 392.042 373.045 392.042 426.148Z" fill="#FFFFFF" fill-opacity="1.000000" fill-rule="nonzero"/>
  <path id="Vector" d="M397.704 470.939L409.909 470.939L409.909 470.361C409.947 403.904 434.069 349.84 463.699 349.84C471.164 349.84 478.399 353.227 485.192 359.902L486.037 359.113C465.925 335.525 457.789 329.406 446.409 329.406C433.033 329.406 419.273 339.777 408.642 357.844C403.345 366.848 399.162 377.18 396.207 388.551C393.06 400.615 391.486 413.256 391.486 426.127C391.486 441.578 393.597 456.932 397.588 470.496L397.704 470.939ZM408.757 469.783L398.548 469.783C394.672 456.412 392.618 441.348 392.618 426.146C392.618 413.371 394.192 400.826 397.32 388.859C400.256 377.604 404.401 367.367 409.64 358.439C414.687 349.859 420.655 342.797 426.911 338.006C433.359 333.082 439.922 330.561 446.409 330.561C456.445 330.561 463.968 335.621 480.433 354.381C475.06 350.59 469.456 348.666 463.699 348.666C456.215 348.666 448.961 351.918 442.167 358.344C435.643 364.5 429.79 373.293 424.762 384.473C414.514 407.291 408.834 437.557 408.757 469.783Z" fill="#FFCF2D" fill-opacity="1.000000" fill-rule="nonzero"/>
  <path id="Vector" d="M402.194 470.4L403.345 470.285C402.021 456.721 401.714 443.521 402.424 431.053C403.096 419.355 404.689 408.234 407.145 398.018C411.712 379.027 419.158 363.404 428.696 352.861C436.813 343.875 445.967 339.123 455.14 339.123C462.241 339.123 466.29 341.201 472.68 345.857L473.352 344.914C466.75 340.104 462.548 337.949 455.121 337.949C445.603 337.949 436.18 342.836 427.832 352.053C418.16 362.75 410.619 378.547 406.013 397.729C403.537 408.023 401.945 419.201 401.254 430.977C400.544 443.521 400.851 456.777 402.194 470.4Z" fill="#FFCF2D" fill-opacity="1.000000" fill-rule="nonzero"/>
  <path id="Vector" d="M402.693 470.342C402.693 470.342 401.042 407.521 435.182 407.311C444.221 407.254 452.684 421.625 452.684 421.625C452.684 421.625 412.71 411.158 410.734 470.342L402.693 470.342Z" fill="#FFFFFF" fill-opacity="1.000000" fill-rule="nonzero"/>
  <path id="Vector" d="M402.136 470.92L411.29 470.92L411.309 470.361C412 449.408 417.527 434.922 427.698 427.301C433.628 422.857 440.056 421.703 444.394 421.51C449.134 421.299 452.492 422.164 452.53 422.164L453.874 422.512L453.164 421.299C453.068 421.145 450.976 417.605 447.733 414.025C443.338 409.158 439.116 406.695 435.22 406.695C435.201 406.695 435.182 406.695 435.163 406.695C428.254 406.734 422.267 409.332 417.374 414.391C413.631 418.258 410.503 423.627 408.066 430.322C406.128 435.652 404.631 441.848 403.595 448.736C401.849 460.434 402.079 470.227 402.079 470.324L402.136 470.92ZM410.177 469.766L403.269 469.766C403.25 467.533 403.288 458.934 404.785 448.908C406.377 438.25 410.004 423.742 418.237 415.219C422.9 410.389 428.6 407.926 435.201 407.889C435.22 407.889 435.24 407.889 435.259 407.889C442.378 407.889 449.306 417.451 451.494 420.779C450.055 420.529 447.541 420.221 444.413 420.355C439.903 420.549 433.206 421.742 427.045 426.359C416.644 434.133 410.964 448.736 410.177 469.766Z" fill="#3FB1B5" fill-opacity="1.000000" fill-rule="nonzero"/>
  <path id="Vector" d="M406.301 470.555L407.452 470.518C407.356 466.668 407.375 456.566 409.851 445.734C412.365 434.768 416.568 426.379 422.344 420.818C428.37 415.008 436.104 412.373 445.315 412.988L445.392 411.834C435.835 411.199 427.813 413.949 421.557 419.992C415.627 425.725 411.31 434.287 408.738 445.484C406.224 456.451 406.205 466.668 406.301 470.555Z" fill="#3FB1B5" fill-opacity="1.000000" fill-rule="nonzero"/>
  <path id="Vector" d="M449.671 358.863C449.671 360.617 451.088 362.039 452.837 362.039C454.586 362.039 456.004 360.617 456.004 358.863C456.004 357.111 454.586 355.689 452.837 355.689C451.088 355.689 449.671 357.111 449.671 358.863Z" fill="#FFFFFF" fill-opacity="1.000000" fill-rule="evenodd"/>
  <path id="Vector" d="M452.837 362.615C454.91 362.615 456.579 360.941 456.579 358.863C456.579 356.785 454.91 355.111 452.837 355.111C450.765 355.111 449.095 356.785 449.095 358.863C449.095 360.941 450.765 362.615 452.837 362.615ZM452.837 356.266C454.257 356.266 455.428 357.439 455.428 358.863C455.428 360.287 454.257 361.461 452.837 361.461C451.417 361.461 450.247 360.287 450.247 358.863C450.247 357.439 451.417 356.266 452.837 356.266Z" fill="#FFCF2D" fill-opacity="1.000000" fill-rule="nonzero"/>
  <path id="Vector" d="M373.581 448.197C373.581 450.758 375.652 452.834 378.206 452.834C380.76 452.834 382.831 450.758 382.831 448.197C382.831 445.637 380.76 443.561 378.206 443.561C375.652 443.561 373.581 445.637 373.581 448.197Z" fill="#FFFFFF" fill-opacity="1.000000" fill-rule="evenodd"/>
  <path id="Vector" d="M378.206 453.41C381.065 453.41 383.407 451.062 383.407 448.197C383.407 445.33 381.065 442.982 378.206 442.982C375.347 442.982 373.006 445.33 373.006 448.197C373.006 451.062 375.347 453.41 378.206 453.41ZM378.206 444.137C380.432 444.137 382.255 445.965 382.255 448.197C382.255 450.428 380.432 452.256 378.206 452.256C375.98 452.256 374.157 450.428 374.157 448.197C374.157 445.965 375.98 444.137 378.206 444.137Z" fill="#FFCF2D" fill-opacity="1.000000" fill-rule="nonzero"/>
  <path id="Vector" d="M377.151 354.631C377.151 359.467 381.06 363.385 385.882 363.385C390.705 363.385 394.614 359.467 394.614 354.631C394.614 349.797 390.705 345.877 385.882 345.877C381.06 345.877 377.151 349.797 377.151 354.631Z" fill="#D0F0E4" fill-opacity="1.000000" fill-rule="evenodd"/>
  <path id="Vector" d="M363.506 553.537L371.24 514.922C371.547 513.383 372.737 512.652 373.754 512.479C374.771 512.307 376.134 512.594 376.94 513.941C379.53 518.27 383.368 521.811 388.031 524.178C392.407 526.408 397.454 527.602 402.597 527.621C407.759 527.641 412.806 526.486 417.22 524.293C421.922 521.945 425.798 518.424 428.427 514.115L428.619 513.787C429.425 512.459 430.807 512.189 431.805 512.363C432.802 512.537 433.992 513.287 434.3 514.807L442.052 553.537L443.185 553.307L435.432 514.576C435.086 512.826 433.781 511.555 432.016 511.229C430.25 510.92 428.581 511.67 427.64 513.191L427.448 513.537C424.935 517.654 421.212 521.021 416.721 523.273C412.48 525.389 407.586 526.506 402.616 526.486C397.646 526.467 392.791 525.312 388.569 523.158C384.098 520.867 380.432 517.48 377.938 513.344C377.016 511.805 375.347 511.035 373.562 511.344C371.797 511.652 370.472 512.941 370.127 514.711L362.393 553.326L363.506 553.537Z" fill="#66B0F0" fill-opacity="1.000000" fill-rule="nonzero"/>
  <path id="Vector" d="M403.345 527.062L402.194 527.062L402.194 553.596L403.345 553.596L403.345 527.062Z" fill="#66B0F0" fill-opacity="1.000000" fill-rule="evenodd"/>
  <path id="Vector" d="M460.168 552.846L202.941 552.846L202.941 554L460.168 554L460.168 552.846Z" fill="#66B0F0" fill-opacity="1.000000" fill-rule="evenodd"/>
  <path id="Vector" d="M246.697 291.539L334.572 291.539C336.932 291.539 339.042 290.107 339.918 287.922L363.965 228.389C365.109 225.541 363.017 222.424 359.96 222.424L272.085 222.424C269.725 222.424 267.615 223.857 266.739 226.041L242.692 285.576C241.53 288.424 243.622 291.539 246.697 291.539Z" fill="#FFFFFF" fill-opacity="1.000000" fill-rule="nonzero"/>
  <path id="Vector (Stroke)" d="M363.468 228.188C363.468 228.188 363.468 228.188 363.468 228.188L339.42 287.723C338.625 289.703 336.713 291.002 334.572 291.002L246.697 291.002C244.002 291.002 242.171 288.273 243.188 285.779L267.236 226.244L267.237 226.242C268.031 224.26 269.944 222.961 272.085 222.961L359.96 222.961C362.635 222.961 364.47 225.689 363.468 228.188ZM364.463 228.588C365.748 225.391 363.4 221.887 359.96 221.887L272.085 221.887C269.506 221.887 267.199 223.453 266.241 225.842L242.195 285.373C240.889 288.574 243.241 292.078 246.697 292.078L334.572 292.078C337.151 292.078 339.458 290.512 340.416 288.123L364.463 228.588Z" fill="#FE5244" fill-opacity="1.000000" fill-rule="evenodd"/>
  <path id="Vector" d="M250.773 291.971L334.608 291.971C336.843 291.971 338.863 290.609 339.703 288.531L362.642 231.738C363.732 229.016 361.748 226.061 358.816 226.061L274.981 226.061C272.746 226.061 270.726 227.422 269.886 229.5L246.947 286.293C245.856 289.016 247.859 291.971 250.773 291.971Z" fill="#FE5244" fill-opacity="1.000000" fill-rule="nonzero"/>
  <path id="Vector" d="M302.247 266.143C304.714 266.143 307.038 265.176 308.79 263.422C310.221 261.988 311.007 260.09 311.007 258.084C311.007 256.061 310.221 254.162 308.79 252.746C307.628 251.582 306.073 250.938 304.428 250.938C302.783 250.938 301.228 251.582 300.065 252.746C298.081 254.734 298.081 257.959 300.065 259.947C301.71 261.594 304.374 261.594 306.019 259.947C306.305 259.66 306.305 259.213 306.019 258.926C305.733 258.639 305.286 258.639 305 258.926C303.909 260.018 302.157 260.018 301.067 258.926C299.636 257.492 299.636 255.182 301.067 253.75C301.961 252.854 303.158 252.352 304.428 252.352C305.697 252.352 306.895 252.854 307.789 253.75C308.951 254.914 309.577 256.436 309.577 258.084C309.577 259.713 308.933 261.254 307.789 262.418C306.305 263.904 304.356 264.711 302.264 264.711C300.173 264.711 298.206 263.904 296.74 262.418C296.454 262.131 296.007 262.131 295.721 262.418C295.435 262.705 295.435 263.152 295.721 263.439C297.455 265.176 299.779 266.143 302.247 266.143Z" fill="#FFFFFF" fill-opacity="1.000000" fill-rule="nonzero"/>
  <path id="Vector" d="M215.248 297.846L334.465 297.846C335.841 297.846 336.95 296.734 336.95 295.355L336.95 294.156C336.95 292.777 335.841 291.666 334.465 291.666L215.248 291.666C213.871 291.666 212.762 292.777 212.762 294.156L212.762 295.355C212.78 296.734 213.889 297.846 215.248 297.846Z" fill="#FFFFFF" fill-opacity="1.000000" fill-rule="nonzero"/>
  <path id="Vector (Stroke)" d="M334.465 292.203C335.545 292.203 336.414 293.074 336.414 294.156L336.414 295.355C336.414 296.438 335.545 297.309 334.465 297.309L215.248 297.309C214.19 297.309 213.315 296.441 213.299 295.352L213.299 294.156C213.299 293.074 214.167 292.203 215.248 292.203L334.465 292.203ZM337.486 294.156C337.486 292.48 336.138 291.129 334.465 291.129L215.248 291.129C213.575 291.129 212.226 292.48 212.226 294.156L212.226 295.359L212.226 295.363C212.248 297.029 213.589 298.383 215.248 298.383L334.465 298.383C336.138 298.383 337.486 297.031 337.486 295.355L337.486 294.156Z" fill="#FE5244" fill-opacity="1.000000" fill-rule="evenodd"/>
</svg>
