<svg width="550.000000" height="502.000000" viewBox="0 0 550 502" fill="none"
  xmlns="http://www.w3.org/2000/svg"
  xmlns:xlink="http://www.w3.org/1999/xlink">
  <desc>
			Created with Pixso.
  </desc>
  <defs/>
  <rect id="illustration" width="550.000000" height="502.000000" transform="matrix(-1 0 0 1 550 0)" fill="#FFFFFF" fill-opacity="0"/>
  <path id="Vector" d="M204.376 14.502L166.089 51.3418L127.609 259.012L488.556 259.012L204.376 14.502Z" fill="#FFCF2D" fill-opacity="1.000000" fill-rule="nonzero"/>
  <path id="Vector" d="M165.76 51.0527L204.163 14.0977L197.74 7.44336C188.28 -2.35352 171.235 -1.23633 161.407 8.17773C151.58 17.6094 149.858 34.6016 159.318 44.3984L165.76 51.0527Z" fill="#FFFFFF" fill-opacity="1.000000" fill-rule="nonzero"/>
  <path id="Vector" d="M165.741 51.8633L204.975 14.1172L198.146 7.03711C193.542 2.25391 186.983 -0.234375 179.67 0.0175781C172.667 0.267578 165.857 3.08398 160.982 7.75195C156.106 12.4199 153.03 19.1113 152.527 26.0938C152.005 33.3652 154.268 40 158.873 44.7832L165.741 51.8633ZM203.35 14.0781L165.78 50.2227L159.743 43.9941C155.352 39.4609 153.224 33.1348 153.707 26.1914C154.191 19.4785 157.132 13.0742 161.813 8.59961C166.495 4.125 173.015 1.42578 179.728 1.19336C186.693 0.943359 192.942 3.31641 197.314 7.84766L203.35 14.0781Z" fill="#FFCF2D" fill-opacity="1.000000" fill-rule="nonzero"/>
  <path id="Vector" d="M159.337 44.9766C159.492 44.9766 159.627 44.918 159.743 44.8223L198.166 7.86719C198.397 7.63477 198.398 7.28906 198.185 7.05664C197.953 6.82617 197.585 6.82617 197.372 7.03711L158.95 43.9922C158.718 44.2246 158.718 44.5723 158.931 44.8027C159.028 44.918 159.182 44.9766 159.337 44.9766Z" fill="#FFCF2D" fill-opacity="1.000000" fill-rule="nonzero"/>
  <path id="Vector" d="M85.1243 258.01C85.2017 258.01 85.2791 257.99 85.3564 257.951C85.6467 257.816 85.7822 257.471 85.6467 257.18L31.7671 137.365L137.108 9.52539L137.108 9.50586C139.101 6.80664 142.022 5.07031 145.35 4.58789C148.677 4.10547 151.986 4.97461 154.656 7.01953L158.95 10.2969C159.202 10.4902 159.569 10.4512 159.763 10.1816C159.956 9.93164 159.918 9.56445 159.647 9.37109L155.352 6.09375C152.431 3.875 148.813 2.92969 145.176 3.45117C141.539 3.9707 138.346 5.86133 136.18 8.8125L30.4126 137.191L30.5674 137.52L84.6021 257.662C84.6987 257.875 84.9116 258.01 85.1243 258.01Z" fill="#3FB1B5" fill-opacity="1.000000" fill-rule="nonzero"/>
  <path id="Vector" d="M26.8914 137.926C26.8914 141.186 29.542 143.828 32.8115 143.828C36.0811 143.828 38.7314 141.186 38.7314 137.926C38.7314 134.666 36.0811 132.023 32.8115 132.023C29.542 132.023 26.8914 134.666 26.8914 137.926Z" fill="#FFFFFF" fill-opacity="1.000000" fill-rule="evenodd"/>
  <path id="Vector" d="M32.8113 144.406C36.3904 144.406 39.3118 141.494 39.3118 137.926C39.3118 134.357 36.3904 131.445 32.8113 131.445C29.2322 131.445 26.3108 134.357 26.3108 137.926C26.3108 141.494 29.2322 144.406 32.8113 144.406ZM32.8113 132.604C35.752 132.604 38.1509 134.994 38.1509 137.926C38.1509 140.857 35.752 143.25 32.8113 143.25C29.8706 143.25 27.4717 140.857 27.4717 137.926C27.4717 134.994 29.8706 132.604 32.8113 132.604Z" fill="#FFCF2D" fill-opacity="1.000000" fill-rule="nonzero"/>
  <path id="Vector" d="M100.137 244.008L71.2917 244.008C62.9919 244.008 56.2788 250.721 56.2788 258.975L56.2788 259.398L115.169 259.398L115.169 258.975C115.15 250.721 108.437 244.008 100.137 244.008Z" fill="#FFFFFF" fill-opacity="1.000000" fill-rule="nonzero"/>
  <path id="Vector" d="M55.6985 259.979L115.75 259.979L115.75 258.975C115.73 250.412 108.727 243.43 100.137 243.43L71.2917 243.43C62.7019 243.43 55.6985 250.412 55.6985 258.975L55.6985 259.979ZM114.589 258.82L56.8591 258.82C56.9365 250.951 63.3789 244.588 71.2917 244.588L100.137 244.588C108.031 244.588 114.492 250.951 114.589 258.82Z" fill="#FFCF2D" fill-opacity="1.000000" fill-rule="nonzero"/>
  <path id="Vector" d="M239.876 215.596L422.488 215.596C429.355 215.596 434.908 210.061 434.908 203.213L434.908 75.875C434.908 69.0273 429.355 63.4922 422.488 63.4922L239.876 63.4922C233.009 63.4922 227.456 69.0273 227.456 75.875L227.456 203.193C227.437 210.041 233.009 215.596 239.876 215.596Z" fill="#FFFFFF" fill-opacity="1.000000" fill-rule="nonzero"/>
  <path id="Vector" d="M239.876 216.174L422.488 216.174C429.665 216.174 435.488 210.369 435.488 203.213L435.488 75.875C435.488 68.7188 429.665 62.9141 422.488 62.9141L239.876 62.9141C232.699 62.9141 226.875 68.7188 226.875 75.875L226.875 203.193C226.856 206.646 228.21 209.906 230.667 212.355C233.125 214.824 236.394 216.174 239.876 216.174ZM422.488 64.0723C429.007 64.0723 434.327 69.375 434.327 75.875L434.327 203.213C434.327 209.713 429.007 215.018 422.488 215.018L239.876 215.018C236.704 215.018 233.724 213.783 231.48 211.545C229.255 209.309 228.017 206.338 228.036 203.193L228.036 75.875C228.036 69.375 233.357 64.0723 239.876 64.0723L422.488 64.0723Z" fill="#3FB1B5" fill-opacity="1.000000" fill-rule="nonzero"/>
  <path id="Vector" d="M239.76 203.754L420.611 203.754C423.3 203.754 425.467 201.574 425.467 198.912L425.467 77.0918C425.467 74.4102 423.281 72.25 420.611 72.25L239.76 72.25C237.071 72.25 234.904 74.4297 234.904 77.0918L234.904 198.893C234.885 201.574 237.071 203.754 239.76 203.754Z" fill="#66B0F0" fill-opacity="1.000000" fill-rule="nonzero"/>
  <path id="Vector" d="M239.76 204.332L420.611 204.332C423.609 204.332 426.047 201.902 426.047 198.912L426.047 77.0918C426.047 74.1016 423.609 71.6719 420.611 71.6719L239.76 71.6719C236.762 71.6719 234.324 74.1016 234.324 77.0918L234.324 198.895C234.305 200.34 234.866 201.709 235.891 202.732C236.936 203.754 238.29 204.332 239.76 204.332ZM420.611 72.8301C422.971 72.8301 424.886 74.7383 424.886 77.0918L424.886 198.912C424.886 201.266 422.971 203.176 420.611 203.176L239.76 203.176C238.619 203.176 237.535 202.732 236.723 201.922C235.91 201.111 235.485 200.051 235.485 198.912L235.485 77.0918C235.485 74.7383 237.4 72.8301 239.76 72.8301L420.611 72.8301Z" fill="#66B0F0" fill-opacity="1.000000" fill-rule="nonzero"/>
  <path id="Vector" d="M414.13 84.207L416.993 84.207C418.25 84.207 419.276 83.1855 419.276 81.9316L419.276 79.0762C419.276 77.8223 418.25 76.8008 416.993 76.8008L414.13 76.8008C412.872 76.8008 411.847 77.8223 411.847 79.0762L411.847 81.9316C411.866 83.2051 412.872 84.207 414.13 84.207ZM416.993 77.959C417.612 77.959 418.115 78.459 418.115 79.0762L418.115 81.9316C418.115 82.5488 417.612 83.0508 416.993 83.0508L414.13 83.0508C413.511 83.0508 413.027 82.5488 413.008 81.9121L413.008 79.0762C413.008 78.459 413.511 77.959 414.13 77.959L416.993 77.959Z" fill="#FFFFFF" fill-opacity="1.000000" fill-rule="nonzero"/>
  <path id="Vector" d="M401.11 84.207L403.973 84.207C405.23 84.207 406.256 83.1855 406.256 81.9316L406.256 79.0762C406.256 77.8223 405.23 76.8008 403.973 76.8008L401.11 76.8008C399.852 76.8008 398.827 77.8223 398.827 79.0762L398.827 81.9316C398.827 83.1855 399.852 84.207 401.11 84.207ZM403.973 77.959C404.592 77.959 405.095 78.459 405.095 79.0762L405.095 81.9316C405.095 82.5488 404.592 83.0508 403.973 83.0508L401.11 83.0508C400.49 83.0508 399.988 82.5488 399.988 81.9316L399.988 79.0762C399.988 78.459 400.49 77.959 401.11 77.959L403.973 77.959Z" fill="#FFFFFF" fill-opacity="1.000000" fill-rule="nonzero"/>
  <path id="Vector" d="M388.089 84.207L390.952 84.207C392.21 84.207 393.235 83.1855 393.235 81.9316L393.235 79.0762C393.235 77.8223 392.21 76.8008 390.952 76.8008L388.089 76.8008C386.832 76.8008 385.806 77.8223 385.806 79.0762L385.806 81.9316C385.806 83.1855 386.832 84.207 388.089 84.207ZM390.952 77.959C391.572 77.959 392.074 78.459 392.074 79.0762L392.074 81.9316C392.074 82.5488 391.572 83.0508 390.952 83.0508L388.089 83.0508C387.451 83.0508 386.967 82.5684 386.967 81.9316L386.967 79.0762C386.967 78.459 387.47 77.959 388.089 77.959L390.952 77.959Z" fill="#FFFFFF" fill-opacity="1.000000" fill-rule="nonzero"/>
  <path id="Vector" d="M292.634 259.014L363.52 259.014L349.609 215.598L306.564 215.598L292.634 259.014Z" fill="#FFFFFF" fill-opacity="1.000000" fill-rule="nonzero"/>
  <path id="Vector" d="M291.841 259.592L364.313 259.592L350.035 215.018L306.138 215.018L291.841 259.592ZM362.727 258.434L293.428 258.434L306.99 216.176L349.184 216.176L362.727 258.434Z" fill="#3FB1B5" fill-opacity="1.000000" fill-rule="nonzero"/>
  <path id="Vector" d="M357.948 241.637L349.61 215.598L306.564 215.598L357.948 241.637Z" fill="#3FB1B5" fill-opacity="1.000000" fill-rule="nonzero"/>
  <path id="Vector" d="M250.285 112.773L284.741 112.773C288.281 112.773 291.164 109.898 291.164 106.369L291.164 84.1895C291.164 80.6582 288.281 77.7852 284.741 77.7852L250.285 77.7852C246.744 77.7852 243.862 80.6582 243.862 84.1895L243.862 106.369C243.862 109.898 246.744 112.773 250.285 112.773ZM284.741 78.9434C287.643 78.9434 290.003 81.2949 290.003 84.1895L290.003 106.369C290.003 109.264 287.643 111.615 284.741 111.615L250.285 111.615C247.383 111.615 245.023 109.264 245.023 106.369L245.023 84.1895C245.023 81.2949 247.383 78.9434 250.285 78.9434L284.741 78.9434Z" fill="#FFFFFF" fill-opacity="1.000000" fill-rule="nonzero"/>
  <path id="Vector" d="M254.445 86.8516L280.737 86.8516C281.065 86.8516 281.317 86.5996 281.317 86.2715C281.317 85.9434 281.065 85.6934 280.737 85.6934L254.445 85.6934C254.116 85.6934 253.865 85.9434 253.865 86.2715C253.865 86.5996 254.116 86.8516 254.445 86.8516Z" fill="#FFFFFF" fill-opacity="1.000000" fill-rule="nonzero"/>
  <path id="Vector" d="M254.445 92.8301L280.737 92.8301C281.065 92.8301 281.317 92.5781 281.317 92.25C281.317 91.9219 281.065 91.6719 280.737 91.6719L254.445 91.6719C254.116 91.6719 253.865 91.9219 253.865 92.25C253.865 92.5781 254.116 92.8301 254.445 92.8301Z" fill="#FFFFFF" fill-opacity="1.000000" fill-rule="nonzero"/>
  <path id="Vector" d="M254.445 98.8105L280.737 98.8105C281.065 98.8105 281.317 98.5586 281.317 98.2305C281.317 97.9023 281.065 97.6523 280.737 97.6523L254.445 97.6523C254.116 97.6523 253.865 97.9023 253.865 98.2305C253.865 98.5586 254.116 98.8105 254.445 98.8105Z" fill="#FFFFFF" fill-opacity="1.000000" fill-rule="nonzero"/>
  <path id="Vector" d="M254.445 104.789L280.737 104.789C281.065 104.789 281.317 104.537 281.317 104.209C281.317 103.881 281.065 103.631 280.737 103.631L254.445 103.631C254.116 103.631 253.865 103.881 253.865 104.209C253.865 104.537 254.116 104.789 254.445 104.789Z" fill="#FFFFFF" fill-opacity="1.000000" fill-rule="nonzero"/>
  <path id="Vector" d="M240.767 203.754L377.72 203.754L385.749 215.23C394.823 228.191 413.995 228.385 423.32 215.598L472.228 148.533C470.177 151.08 460.794 148.244 451.856 142.381C442.782 136.422 436.92 128.918 438.759 126.141L404.844 169.229L394.455 150.945C391.611 146.104 386.891 142.631 381.396 141.359L346.05 133.895L315.58 133.895L281.994 141.281C276.152 142.613 271.199 146.412 268.394 151.678L240.767 203.754Z" fill="#FFFFFF" fill-opacity="1.000000" fill-rule="nonzero"/>
  <path id="Vector" d="M404.67 225.645C412.312 225.645 419.276 222.115 423.784 215.924L472.692 148.861L471.763 148.166C470.119 150.191 461.393 147.955 452.165 141.898C447.87 139.082 444.136 135.822 441.66 132.697C439.416 129.881 438.507 127.549 439.242 126.449L438.294 125.773L404.921 168.188L394.958 150.654C392.036 145.678 387.142 142.092 381.531 140.799L346.108 133.314L315.521 133.314L315.463 133.334L281.878 140.721C275.88 142.092 270.773 145.986 267.89 151.406L239.819 204.332L377.43 204.332L385.284 215.559C389.715 221.885 396.699 225.568 404.457 225.645C404.515 225.645 404.592 225.645 404.67 225.645ZM470.448 149.98L422.836 215.25C418.502 221.189 411.808 224.564 404.438 224.488C397.066 224.41 390.431 220.92 386.213 214.902L378.01 203.176L241.715 203.176L268.896 151.947C271.624 146.816 276.441 143.133 282.11 141.84L315.637 134.473L345.992 134.473L381.28 141.918C386.581 143.152 391.205 146.547 393.952 151.232L404.766 170.27L437.926 128.146C438.197 129.592 439.145 131.406 440.77 133.43C443.324 136.633 447.154 139.988 451.546 142.863C457.679 146.875 465.05 150.037 469.441 150.037C469.79 150.037 470.138 150.018 470.448 149.98Z" fill="#3FB1B5" fill-opacity="1.000000" fill-rule="nonzero"/>
  <path id="Vector" d="M278.356 203.543C278.569 203.543 278.763 203.428 278.879 203.234L288.61 184.082C288.746 183.793 288.649 183.445 288.359 183.311C288.068 183.176 287.72 183.271 287.585 183.561L277.854 202.713C277.718 203.002 277.815 203.35 278.105 203.484C278.182 203.523 278.26 203.543 278.356 203.543Z" fill="#3FB1B5" fill-opacity="1.000000" fill-rule="nonzero"/>
  <path id="Vector" d="M378.494 205.336C378.591 205.336 378.668 205.316 378.765 205.277C379.055 205.143 379.171 204.775 379.016 204.506L369.382 185.545C369.246 185.256 368.879 185.141 368.608 185.295C368.318 185.43 368.201 185.797 368.356 186.066L377.991 205.027C378.088 205.219 378.281 205.336 378.494 205.336Z" fill="#3FB1B5" fill-opacity="1.000000" fill-rule="nonzero"/>
  <path id="Vector" d="M395.964 181.227C396.138 181.227 396.312 181.148 396.428 180.994L418.502 152.854C418.696 152.604 418.657 152.236 418.406 152.043C418.154 151.852 417.787 151.889 417.593 152.141L395.519 180.281C395.325 180.531 395.364 180.898 395.615 181.092C395.712 181.188 395.848 181.227 395.964 181.227Z" fill="#3FB1B5" fill-opacity="1.000000" fill-rule="nonzero"/>
  <path id="Vector" d="M318.965 153.838L327.458 143.518C327.671 143.268 327.632 142.9 327.38 142.709C327.129 142.496 326.761 142.535 326.568 142.785L318.81 152.178L301.069 137.172C300.818 136.961 300.45 136.998 300.257 137.23C300.044 137.48 300.083 137.848 300.315 138.041L318.965 153.838Z" fill="#3FB1B5" fill-opacity="1.000000" fill-rule="nonzero"/>
  <path id="Vector" d="M341.02 154.203L361.469 138.061C361.72 137.867 361.759 137.5 361.566 137.25C361.372 136.998 361.005 136.961 360.753 137.152L341.232 152.564L333.707 142.979C333.513 142.727 333.146 142.689 332.894 142.881C332.643 143.074 332.604 143.441 332.797 143.691L341.02 154.203Z" fill="#3FB1B5" fill-opacity="1.000000" fill-rule="nonzero"/>
  <path id="Vector" d="M462.922 158.949C464.76 158.949 465.727 158.391 466.211 157.771C466.404 157.521 466.365 157.154 466.114 156.963C465.862 156.77 465.495 156.809 465.301 157.059C464.489 158.08 461.838 158.023 458.221 156.943C454.371 155.785 449.728 153.51 445.51 150.713C441.196 147.859 437.442 144.561 434.947 141.396C432.683 138.543 431.774 136.189 432.509 135.07C432.683 134.801 432.606 134.453 432.335 134.26C432.064 134.088 431.716 134.164 431.522 134.434C430.478 136.035 431.368 138.754 434.018 142.111C436.591 145.352 440.441 148.746 444.852 151.658C449.225 154.551 453.848 156.828 457.872 158.043C460.059 158.697 461.703 158.949 462.922 158.949Z" fill="#3FB1B5" fill-opacity="1.000000" fill-rule="nonzero"/>
  <path id="Vector" d="M438.1 140.219C439.628 140.219 440.867 138.984 440.867 137.461C440.867 135.938 439.628 134.703 438.1 134.703C436.572 134.703 435.333 135.938 435.333 137.461C435.333 138.984 436.572 140.219 438.1 140.219ZM438.1 135.861C438.99 135.861 439.706 136.574 439.706 137.461C439.706 138.348 438.99 139.062 438.1 139.062C437.21 139.062 436.494 138.348 436.494 137.461C436.494 136.574 437.21 135.861 438.1 135.861Z" fill="#3FB1B5" fill-opacity="1.000000" fill-rule="nonzero"/>
  <path id="Vector" d="M330.147 153.914C331.676 153.914 332.914 152.68 332.914 151.156C332.914 149.633 331.676 148.398 330.147 148.398C328.619 148.398 327.381 149.633 327.381 151.156C327.381 152.68 328.619 153.914 330.147 153.914ZM330.147 149.557C331.037 149.557 331.753 150.27 331.753 151.156C331.753 152.043 331.037 152.758 330.147 152.758C329.257 152.758 328.542 152.043 328.542 151.156C328.542 150.27 329.257 149.557 330.147 149.557Z" fill="#3FB1B5" fill-opacity="1.000000" fill-rule="nonzero"/>
  <path id="Vector" d="M330.147 171.465C331.676 171.465 332.914 170.23 332.914 168.707C332.914 167.184 331.676 165.949 330.147 165.949C328.619 165.949 327.381 167.184 327.381 168.707C327.381 170.23 328.619 171.465 330.147 171.465ZM330.147 167.107C331.037 167.107 331.753 167.82 331.753 168.707C331.753 169.594 331.037 170.309 330.147 170.309C329.257 170.309 328.542 169.594 328.542 168.707C328.542 167.82 329.257 167.107 330.147 167.107Z" fill="#3FB1B5" fill-opacity="1.000000" fill-rule="nonzero"/>
  <path id="Vector" d="M386.445 216.156L377.72 203.754L377.72 216.156L386.445 216.156Z" fill="#3FB1B5" fill-opacity="1.000000" fill-rule="nonzero"/>
  <path id="Vector" d="M452.068 141.803C461.006 147.666 470.389 150.502 472.44 147.955C472.479 147.916 472.498 147.879 472.537 147.82C472.963 147.184 472.924 146.316 472.537 145.256C471.202 141.764 465.688 136.363 458.685 131.773C453.113 128.107 447.619 125.562 443.807 124.771C441.602 124.328 439.958 124.463 439.164 125.311L438.971 125.543C437.152 128.32 442.995 135.842 452.068 141.803Z" fill="#FE5244" fill-opacity="1.000000" fill-rule="nonzero"/>
  <path id="Vector" d="M452.069 141.803C457.157 145.139 462.4 147.512 466.346 148.438L484.01 123.594C486.467 120.123 485.654 115.32 482.152 112.871L466.25 101.723L475.265 86.4277C476.581 84.209 475.826 81.3359 473.582 80.043C472.847 79.6191 472.053 79.4258 471.26 79.4258C469.732 79.4258 468.223 80.1777 467.333 81.5664L439.145 125.273L438.952 125.582C437.153 128.32 442.995 135.842 452.069 141.803Z" fill="#E57281" fill-opacity="1.000000" fill-rule="nonzero"/>
  <path id="Vector" d="M461.258 123.883C461.51 123.883 461.761 123.863 462.012 123.807C462.98 123.613 463.812 123.035 464.334 122.225L473.64 108.338C473.814 108.066 473.737 107.721 473.485 107.527C473.214 107.354 472.866 107.43 472.672 107.682L463.367 121.568C462.999 122.127 462.438 122.514 461.78 122.648C461.123 122.783 460.446 122.648 459.885 122.281L457.698 120.855C456.538 120.104 456.208 118.559 456.944 117.402L466.791 102.184C466.965 101.914 466.888 101.566 466.617 101.393C466.346 101.221 465.998 101.297 465.824 101.566L455.977 116.785C454.893 118.482 455.396 120.738 457.079 121.818L459.265 123.246C459.846 123.67 460.542 123.883 461.258 123.883Z" fill="#9A3B82" fill-opacity="1.000000" fill-rule="nonzero"/>
  <path id="Vector" d="M468.474 128.492C469.674 128.492 470.854 127.914 471.57 126.854C471.744 126.584 471.666 126.236 471.396 126.043C471.125 125.869 470.776 125.947 470.583 126.217C469.828 127.355 468.281 127.684 467.12 126.949L465.127 125.697C464.566 125.33 464.16 124.771 464.024 124.096C463.889 123.42 464.005 122.746 464.373 122.186C464.547 121.916 464.469 121.568 464.199 121.375C463.928 121.203 463.58 121.279 463.386 121.549C462.844 122.379 462.651 123.363 462.864 124.346C463.077 125.311 463.657 126.141 464.489 126.68L466.481 127.934C467.101 128.301 467.797 128.492 468.474 128.492Z" fill="#9A3B82" fill-opacity="1.000000" fill-rule="nonzero"/>
  <path id="Vector" d="M475.555 132.812C476.716 132.812 477.857 132.273 478.573 131.252L483.854 123.826C484.048 123.555 483.97 123.209 483.719 123.016C483.468 122.822 483.1 122.9 482.906 123.15L477.625 130.576C476.832 131.676 475.342 131.965 474.22 131.252L474.181 131.232L472.343 130.209C471.763 129.844 471.376 129.283 471.221 128.629C471.066 127.953 471.202 127.277 471.569 126.699L480.682 113.197C480.856 112.928 480.798 112.58 480.527 112.389C480.256 112.215 479.908 112.271 479.714 112.543L470.602 126.043C470.041 126.893 469.867 127.895 470.08 128.859C470.292 129.824 470.873 130.652 471.724 131.174L471.743 131.193L473.581 132.215C474.22 132.641 474.897 132.812 475.555 132.812Z" fill="#9A3B82" fill-opacity="1.000000" fill-rule="nonzero"/>
  <path id="Vector" d="M445.723 115.088L450.347 107.934C451.875 105.561 455.067 104.904 457.408 106.486L468.881 114.24C468.881 114.24 465.553 120.199 457.466 115.475L454.758 119.775C460.291 123.266 461.877 130.615 458.279 136.074L445.723 115.088Z" fill="#E57281" fill-opacity="1.000000" fill-rule="nonzero"/>
  <path id="Vector" d="M458.279 136.652C458.472 136.652 458.646 136.555 458.762 136.381C460.581 133.604 461.219 130.287 460.503 127.047C459.846 123.998 458.085 121.375 455.551 119.602L457.659 116.244C460.445 117.77 462.98 118.213 465.224 117.615C468.068 116.844 469.345 114.605 469.403 114.529L469.654 114.066L458.356 106.195C457.079 105.348 455.57 105.039 454.08 105.348C452.591 105.656 451.314 106.523 450.482 107.816L445.858 114.973C445.684 115.242 445.761 115.59 446.032 115.764C446.303 115.936 446.651 115.859 446.825 115.59L451.449 108.434C452.107 107.412 453.113 106.717 454.312 106.486C455.493 106.234 456.711 106.486 457.698 107.16L468.087 114.393C467.623 114.992 466.578 116.072 464.914 116.516C462.864 117.074 460.465 116.553 457.776 114.992L457.292 114.701L453.984 119.967L454.467 120.275C457.002 121.877 458.762 124.385 459.401 127.316C460.039 130.248 459.478 133.256 457.814 135.764C457.64 136.035 457.718 136.381 457.988 136.574C458.066 136.613 458.163 136.652 458.279 136.652Z" fill="#9A3B82" fill-opacity="1.000000" fill-rule="nonzero"/>
  <path id="Vector" d="M452.069 141.803C457.156 145.139 462.399 147.512 466.346 148.438L470.738 142.266C468.281 139.064 463.889 135.207 458.685 131.793C453.113 128.127 447.619 125.582 443.808 124.791C441.602 124.348 439.958 124.482 439.164 125.33L438.971 125.562C438.952 125.602 438.932 125.621 438.913 125.658C438.894 125.678 438.894 125.697 438.874 125.736C438.855 125.775 438.835 125.793 438.816 125.832C437.501 128.783 443.285 136.016 452.069 141.803Z" fill="#9A3B82" fill-opacity="1.000000" fill-rule="nonzero"/>
  <path id="Vector" d="M315.599 116.92L315.599 133.873C315.599 138.793 322.448 142.766 330.864 142.766C339.299 142.766 346.128 138.793 346.128 133.873L346.128 116.92L315.599 116.92Z" fill="#E57281" fill-opacity="1.000000" fill-rule="nonzero"/>
  <path id="Vector" d="M341.658 140.162C344.425 138.561 346.147 136.324 346.147 133.873L346.147 116.92L315.599 116.92L315.599 121.627C315.599 126.506 318.578 130.885 323.105 132.717L341.658 140.162Z" fill="#9A3B82" fill-opacity="1.000000" fill-rule="nonzero"/>
  <path id="Vector" d="M307.086 115.918L307.086 116.207C307.086 119.139 309.466 121.512 312.407 121.512L315.908 121.512C317.089 126.256 321.383 129.785 326.53 129.785L335.197 129.785C340.323 129.785 344.638 126.275 345.799 121.512L349.3 121.512C352.241 121.512 354.621 119.139 354.621 116.207L354.621 115.918C354.621 112.986 352.241 110.613 349.3 110.613L346.127 110.613L346.127 106.428C346.127 101.953 342.819 98.25 338.505 97.6328C337.557 99.2148 334.694 102.994 328.851 102.783C326.104 102.686 323.55 102.166 321.441 101.549C318.907 100.814 316.373 102.357 315.734 104.77C315.637 105.309 315.58 105.85 315.58 106.408L315.58 110.594L312.407 110.594C309.485 110.594 307.086 112.986 307.086 115.918Z" fill="#E57281" fill-opacity="1.000000" fill-rule="nonzero"/>
  <path id="Vector" d="M313.161 110.594L315.599 110.594L315.599 105.945C315.599 105.541 315.657 105.137 315.754 104.77C316.392 102.359 318.927 100.816 321.461 101.549C323.57 102.166 326.104 102.686 328.871 102.783C334.713 102.994 337.577 99.2148 338.525 97.6328C342.839 98.25 346.147 101.953 346.147 106.428L346.147 110.613L349.185 110.613C349.185 110.613 352.667 98.0566 350.055 94.5078C347.482 91.0176 344.386 92.541 344.386 92.541C344.386 92.541 346.244 82.0879 335.874 82.2793C325.524 82.4727 312.059 94.4512 311.072 96.6484C309.524 100.025 313.161 110.594 313.161 110.594Z" fill="#9A3B82" fill-opacity="1.000000" fill-rule="nonzero"/>
  <path id="Vector" d="M314.419 117.383C314.689 117.383 314.902 117.17 314.902 116.9C314.902 114.586 313.006 112.695 310.685 112.695C310.414 112.695 310.201 112.908 310.201 113.178C310.201 113.447 310.414 113.66 310.685 113.66C312.484 113.66 313.935 115.105 313.935 116.9C313.935 117.17 314.148 117.383 314.419 117.383Z" fill="#9A3B82" fill-opacity="1.000000" fill-rule="nonzero"/>
  <path id="Vector" d="M347.269 117.383C347.54 117.383 347.753 117.17 347.753 116.9C347.753 115.105 349.204 113.66 351.003 113.66C351.274 113.66 351.487 113.447 351.487 113.178C351.487 112.908 351.274 112.695 351.003 112.695C348.682 112.695 346.786 114.586 346.786 116.9C346.786 117.17 346.999 117.383 347.269 117.383Z" fill="#9A3B82" fill-opacity="1.000000" fill-rule="nonzero"/>
  <path id="Vector" d="M320.474 106.91C320.571 106.91 320.667 106.871 320.764 106.814C320.861 106.736 323.357 104.982 326.549 106.312C326.8 106.408 327.071 106.293 327.187 106.043C327.284 105.791 327.168 105.521 326.916 105.406C323.202 103.883 320.319 105.928 320.203 106.023C319.99 106.178 319.932 106.486 320.106 106.699C320.184 106.834 320.319 106.91 320.474 106.91Z" fill="#9A3B82" fill-opacity="1.000000" fill-rule="nonzero"/>
  <path id="Vector" d="M341.446 106.91C341.6 106.91 341.736 106.834 341.833 106.719C341.987 106.506 341.949 106.197 341.736 106.043C341.62 105.947 338.718 103.902 335.023 105.426C334.771 105.521 334.655 105.811 334.752 106.062C334.848 106.312 335.139 106.428 335.39 106.332C338.602 105.002 341.136 106.814 341.175 106.834C341.252 106.873 341.349 106.91 341.446 106.91Z" fill="#9A3B82" fill-opacity="1.000000" fill-rule="nonzero"/>
  <path id="Vector" d="M329.644 123.15C330.399 123.15 331.269 122.996 332.256 122.631C332.508 122.533 332.643 122.264 332.546 122.014C332.449 121.762 332.179 121.627 331.927 121.725C327.865 123.229 326.53 120.566 326.471 120.451C326.355 120.219 326.065 120.104 325.833 120.219C325.601 120.334 325.485 120.625 325.601 120.855C325.62 120.895 326.723 123.15 329.644 123.15Z" fill="#9A3B82" fill-opacity="1.000000" fill-rule="nonzero"/>
  <path id="Vector" d="M331.018 119.523C331.463 119.523 331.947 119.523 332.353 119.484C332.624 119.467 332.817 119.234 332.798 118.965C332.779 118.695 332.546 118.502 332.276 118.521C331.134 118.598 329.374 118.521 329.354 118.521C329.083 118.502 328.871 118.713 328.851 118.984C328.832 119.254 329.045 119.467 329.316 119.484C329.354 119.484 330.147 119.523 331.018 119.523Z" fill="#9A3B82" fill-opacity="1.000000" fill-rule="nonzero"/>
  <path id="Vector" d="M322.622 112.852C322.622 113.746 323.055 114.471 323.589 114.471C324.123 114.471 324.556 113.746 324.556 112.852C324.556 111.955 324.123 111.23 323.589 111.23C323.055 111.23 322.622 111.955 322.622 112.852Z" fill="#9A3B82" fill-opacity="1.000000" fill-rule="evenodd"/>
  <path id="Vector" d="M336.493 112.852C336.493 113.746 336.926 114.471 337.46 114.471C337.995 114.471 338.428 113.746 338.428 112.852C338.428 111.955 337.995 111.23 337.46 111.23C336.926 111.23 336.493 111.955 336.493 112.852Z" fill="#9A3B82" fill-opacity="1.000000" fill-rule="evenodd"/>
  <path id="Vector" d="M335.158 118.791L341.252 118.791C342.684 118.791 343.864 117.615 343.864 116.188L343.864 110.111C343.864 108.684 342.684 107.508 341.252 107.508L335.158 107.508C333.727 107.508 332.547 108.684 332.547 110.111L332.547 116.188C332.527 116.863 332.798 117.518 333.282 118C333.785 118.521 334.442 118.791 335.158 118.791ZM341.252 108.473C342.162 108.473 342.897 109.205 342.897 110.111L342.897 116.188C342.897 117.094 342.162 117.826 341.252 117.826L335.158 117.826C334.713 117.826 334.288 117.652 333.978 117.326C333.669 117.018 333.514 116.611 333.514 116.188L333.514 110.111C333.514 109.205 334.249 108.473 335.158 108.473L341.252 108.473Z" fill="#FFFFFF" fill-opacity="1.000000" fill-rule="nonzero"/>
  <path id="Vector" d="M320.242 118.791L326.336 118.791C327.768 118.791 328.948 117.615 328.948 116.188L328.948 110.111C328.948 108.684 327.768 107.508 326.336 107.508L320.242 107.508C318.811 107.508 317.631 108.684 317.631 110.111L317.631 116.188C317.631 117.615 318.811 118.791 320.242 118.791ZM326.336 108.473C327.246 108.473 327.981 109.205 327.981 110.111L327.981 116.188C327.981 117.094 327.246 117.826 326.336 117.826L320.242 117.826C319.333 117.826 318.598 117.094 318.598 116.188L318.598 110.111C318.598 109.205 319.333 108.473 320.242 108.473L326.336 108.473Z" fill="#FFFFFF" fill-opacity="1.000000" fill-rule="nonzero"/>
  <path id="Vector" d="M333.011 111.52L328.464 111.52L328.464 112.484L333.011 112.484L333.011 111.52Z" fill="#FFFFFF" fill-opacity="1.000000" fill-rule="evenodd"/>
  <path id="Vector" d="M339.781 196.848L318.636 196.848C316.392 196.848 314.573 195.035 314.573 192.797L314.573 181.592C314.573 179.354 316.392 177.541 318.636 177.541L339.781 177.541C342.026 177.541 343.844 179.354 343.844 181.592L343.844 192.797C343.844 195.035 342.026 196.848 339.781 196.848ZM318.636 178.699C317.03 178.699 315.734 179.99 315.734 181.592L315.734 192.797C315.734 194.398 317.03 195.691 318.636 195.691L339.781 195.691C341.387 195.691 342.684 194.398 342.684 192.797L342.684 181.592C342.684 179.99 341.387 178.699 339.781 178.699L318.636 178.699Z" fill="#66B0F0" fill-opacity="1.000000" fill-rule="nonzero"/>
  <path id="Vector" d="M329.741 191.756L322.583 191.756C321.441 191.756 320.512 190.83 320.512 189.691L320.512 184.697C320.512 183.559 321.441 182.633 322.583 182.633L329.741 182.633C330.882 182.633 331.811 183.559 331.811 184.697L331.811 189.691C331.811 190.83 330.882 191.756 329.741 191.756Z" fill="#66B0F0" fill-opacity="1.000000" fill-rule="nonzero"/>
  <path id="Vector" d="M336.706 191.623L334.5 190.156C333.9 189.752 333.533 189.057 333.533 188.305L333.533 186.105C333.533 185.354 333.9 184.66 334.5 184.254L336.706 182.789C337.228 182.441 337.905 182.826 337.905 183.482L337.905 190.947C337.924 191.584 337.228 191.969 336.706 191.623Z" fill="#66B0F0" fill-opacity="1.000000" fill-rule="nonzero"/>
  <path id="Vector" d="M35.8296 259.979L549.42 259.979C549.749 259.979 550 259.727 550 259.398C550 259.07 549.749 258.82 549.42 258.82L35.8296 258.82C35.5007 258.82 35.2493 259.07 35.2493 259.398C35.2493 259.727 35.5007 259.979 35.8296 259.979Z" fill="#3FB1B5" fill-opacity="1.000000" fill-rule="nonzero"/>
  <path id="Vector" d="M384.065 262.773L384.065 500.9L397.55 500.9L397.55 455.574C397.55 451.35 400.993 447.916 405.23 447.916L501.75 447.916C505.987 447.916 509.43 451.35 509.43 455.574L509.43 500.9L522.915 500.9L522.915 262.773L384.065 262.773Z" fill="#FFFFFF" fill-opacity="1.000000" fill-rule="nonzero"/>
  <path id="Vector" d="M383.485 501.479L398.13 501.479L398.13 455.574C398.13 451.678 401.322 448.496 405.23 448.496L501.75 448.496C505.658 448.496 508.85 451.678 508.85 455.574L508.85 501.479L523.495 501.479L523.495 262.195L383.485 262.195L383.485 501.479ZM396.969 500.322L384.646 500.322L384.646 263.354L522.334 263.354L522.334 500.322L510.011 500.322L510.011 455.574C510.011 451.041 506.296 447.338 501.75 447.338L405.23 447.338C400.684 447.338 396.969 451.041 396.969 455.574L396.969 500.322Z" fill="#3FB1B5" fill-opacity="1.000000" fill-rule="nonzero"/>
  <path id="Vector" d="M383.659 262.773L383.659 325.961L522.915 440.279L522.896 262.773L383.659 262.773Z" fill="#D0F0E4" fill-opacity="1.000000" fill-rule="nonzero"/>
  <path id="Vector" d="M404.824 331.922L502.137 331.922C506.47 331.922 509.991 328.41 509.991 324.09L509.991 280.904C509.991 276.584 506.47 273.074 502.137 273.074L404.824 273.074C400.491 273.074 396.969 276.584 396.969 280.904L396.969 324.09C396.969 328.41 400.491 331.922 404.824 331.922ZM502.137 274.232C505.832 274.232 508.831 277.221 508.831 280.904L508.831 324.09C508.831 327.773 505.832 330.764 502.137 330.764L404.824 330.764C401.129 330.764 398.13 327.773 398.13 324.09L398.13 280.904C398.13 277.221 401.129 274.232 404.824 274.232L502.137 274.232Z" fill="#3FB1B5" fill-opacity="1.000000" fill-rule="nonzero"/>
  <path id="Vector" d="M428.737 364.055L476.638 364.055L478.631 350.379L430.71 350.379L428.737 364.055Z" fill="#FFCF2D" fill-opacity="1.000000" fill-rule="nonzero"/>
  <path id="Vector" d="M403.18 342.49C409.158 342.49 413.994 347.312 413.994 353.271L413.994 364.055L454.757 364.055L454.757 353.271C454.757 347.312 449.921 342.49 443.943 342.49L403.18 342.49Z" fill="#FFFFFF" fill-opacity="1.000000" fill-rule="nonzero"/>
  <path id="Vector" d="M413.414 364.633L455.338 364.633L455.338 353.273C455.338 347.004 450.23 341.912 443.943 341.912L403.18 341.912L403.18 343.07C408.829 343.07 413.414 347.641 413.414 353.273L413.414 364.633ZM454.177 363.477L414.575 363.477L414.575 353.273C414.575 348.797 411.963 344.922 408.19 343.07L443.943 343.07C449.592 343.07 454.177 347.641 454.177 353.273L454.177 363.477Z" fill="#3FB1B5" fill-opacity="1.000000" fill-rule="nonzero"/>
  <path id="Vector" d="M393.023 350.379L433.786 350.379C435.043 345.826 439.241 342.49 444.213 342.49L403.45 342.49C398.479 342.49 394.3 345.826 393.023 350.379Z" fill="#FFFFFF" fill-opacity="1.000000" fill-rule="nonzero"/>
  <path id="Vector" d="M392.249 350.957L434.212 350.957L434.328 350.533C435.546 346.137 439.609 343.07 444.194 343.07L444.194 341.912L403.431 341.912C398.343 341.912 393.816 345.326 392.443 350.225L392.249 350.957ZM433.36 349.801L393.816 349.801C395.267 345.809 399.136 343.07 403.451 343.07L439.203 343.07C436.475 344.4 434.308 346.811 433.36 349.801Z" fill="#3FB1B5" fill-opacity="1.000000" fill-rule="nonzero"/>
  <path id="Vector" d="M404.824 422.322L502.137 422.322C506.47 422.322 509.991 418.811 509.991 414.49L509.991 371.305C509.991 366.984 506.47 363.475 502.137 363.475L404.824 363.475C400.491 363.475 396.969 366.984 396.969 371.305L396.969 414.49C396.969 418.811 400.491 422.322 404.824 422.322ZM502.137 364.633C505.832 364.633 508.831 367.621 508.831 371.305L508.831 414.49C508.831 418.174 505.832 421.164 502.137 421.164L404.824 421.164C401.129 421.164 398.13 418.174 398.13 414.49L398.13 371.305C398.13 367.621 401.129 364.633 404.824 364.633L502.137 364.633Z" fill="#3FB1B5" fill-opacity="1.000000" fill-rule="nonzero"/>
  <path id="Vector" d="M433.535 302.217C433.864 302.217 434.115 301.967 434.115 301.639C434.115 298.514 436.649 295.988 439.783 295.988L467.159 295.988C470.293 295.988 472.827 298.514 472.827 301.639C472.827 301.967 473.079 302.217 473.408 302.217C473.737 302.217 473.988 301.967 473.988 301.639C473.988 297.877 470.931 294.83 467.159 294.83L439.783 294.83C436.011 294.83 432.954 297.877 432.954 301.639C432.954 301.967 433.206 302.217 433.535 302.217Z" fill="#3FB1B5" fill-opacity="1.000000" fill-rule="nonzero"/>
  <path id="Vector" d="M433.535 392.619C433.864 392.619 434.115 392.369 434.115 392.041C434.115 388.916 436.649 386.391 439.783 386.391L467.159 386.391C470.293 386.391 472.827 388.916 472.827 392.041C472.827 392.369 473.079 392.619 473.408 392.619C473.737 392.619 473.988 392.369 473.988 392.041C473.988 388.279 470.931 385.232 467.159 385.232L439.783 385.232C436.011 385.232 432.954 388.279 432.954 392.041C432.954 392.369 433.206 392.619 433.535 392.619Z" fill="#3FB1B5" fill-opacity="1.000000" fill-rule="nonzero"/>
  <path id="Vector" d="M70.6536 262.773L56.2791 262.773L56.2791 501.42L70.6536 501.42L70.6536 262.773Z" fill="#FFFFFF" fill-opacity="1.000000" fill-rule="evenodd"/>
  <path id="Vector" d="M55.6987 502L71.2339 502L71.2339 262.195L55.6987 262.195L55.6987 502ZM70.073 500.842L56.8594 500.842L56.8594 263.354L70.073 263.354L70.073 500.842Z" fill="#3FB1B5" fill-opacity="1.000000" fill-rule="nonzero"/>
  <path id="Vector" d="M0.580322 502L300.566 502C300.895 502 301.147 501.75 301.147 501.422C301.147 501.094 300.895 500.844 300.566 500.844L0.580322 500.844C0.251465 500.844 0 501.094 0 501.422C0 501.75 0.251465 502 0.580322 502Z" fill="#3FB1B5" fill-opacity="1.000000" fill-rule="nonzero"/>
  <path id="Vector" d="M482.094 226.668L490.78 226.668C490.78 226.668 503.181 175.15 514.073 173.473C524.966 171.795 525.527 191.623 525.527 191.623C525.527 191.623 525.333 161.475 498.113 165.604C470.873 169.73 482.094 226.668 482.094 226.668Z" fill="#FFFFFF" fill-opacity="1.000000" fill-rule="nonzero"/>
  <path id="Vector" d="M481.611 227.248L491.227 227.248L491.343 226.803C491.381 226.668 494.496 213.785 498.888 200.881C506.162 179.529 511.211 174.496 514.152 174.051C516.164 173.742 517.944 174.205 519.414 175.439C524.541 179.684 524.928 191.525 524.928 191.643L526.089 191.623C526.089 191.469 526.05 187.939 524.909 183.426C523.845 179.24 521.601 173.396 516.899 169.385C512.121 165.314 505.775 163.848 497.998 165.045C492.968 165.797 488.886 168.381 485.848 172.682C480.973 179.607 478.748 190.812 479.271 206.031C479.657 217.314 481.476 226.688 481.495 226.785L481.611 227.248ZM490.317 226.09L482.559 226.09C482.192 224.064 480.76 215.732 480.431 205.973C480.083 195.693 480.915 181.709 486.796 173.357C489.64 169.307 493.471 166.896 498.172 166.201C505.582 165.082 511.637 166.453 516.145 170.291C517.499 171.447 518.66 172.779 519.627 174.188C517.983 173.029 516.087 172.625 513.959 172.953C509.219 173.686 503.763 182.982 497.766 200.572C493.838 212.125 490.917 223.697 490.317 226.09Z" fill="#3FB1B5" fill-opacity="1.000000" fill-rule="nonzero"/>
  <path id="Vector" d="M485.905 226.475C486.215 226.475 486.486 226.225 486.486 225.896C487.124 187.494 495.288 173.936 502.021 169.344C507.128 165.854 511.597 167.436 511.636 167.455C511.946 167.57 512.274 167.416 512.39 167.107C512.507 166.799 512.352 166.471 512.042 166.355C511.829 166.277 506.973 164.561 501.363 168.381C497.029 171.352 493.489 176.789 490.858 184.582C487.472 194.611 485.615 208.498 485.325 225.877C485.325 226.205 485.576 226.475 485.905 226.475Z" fill="#3FB1B5" fill-opacity="1.000000" fill-rule="nonzero"/>
  <path id="Vector" d="M499.235 225.896L458.433 225.896L458.433 259.014L499.235 259.014L499.235 225.896Z" fill="#FE5244" fill-opacity="1.000000" fill-rule="evenodd"/>
  <path id="Vector" d="M449.843 242.463C452.436 243.582 455.531 243.447 458.414 242.193C460.542 241.268 462.554 239.744 464.179 237.66C466.423 234.768 467.932 230.812 467.932 225.895C467.932 213.975 477.451 206.492 481.359 222.27C481.629 223.367 481.881 224.564 482.094 225.895L482.094 225.855L482.094 225.779C482.094 225.74 482.094 225.684 482.074 225.625L482.074 225.547C481.997 224.564 481.707 221.652 480.817 218.141C480.159 215.537 479.172 212.645 477.702 209.963C476.967 208.633 476.116 207.359 475.11 206.221C472.517 203.252 468.958 201.168 464.102 201.168C455.164 201.168 448.625 211.66 446.129 222.115C443.943 231.199 444.833 240.283 449.843 242.463Z" fill="#FFFFFF" fill-opacity="1.000000" fill-rule="nonzero"/>
  <path id="Vector" d="M453.654 243.795C455.299 243.795 457.021 243.428 458.646 242.715C460.948 241.711 463.018 240.092 464.643 238.008C467.177 234.748 468.512 230.543 468.512 225.895C468.512 220.457 470.911 214.322 474.49 213.898C477.083 213.59 479.366 216.695 480.797 222.404C481.088 223.6 481.32 224.758 481.532 225.992L482.693 225.895L482.693 225.779C482.693 225.74 482.693 225.645 482.674 225.549L482.674 225.49C482.597 224.41 482.287 221.518 481.397 217.988C480.604 214.863 479.54 212.066 478.224 209.674C477.392 208.189 476.522 206.916 475.554 205.836C472.517 202.346 468.667 200.59 464.102 200.59C454.815 200.59 448.102 211.334 445.568 221.98C444.446 226.666 444.136 231.277 444.716 234.961C445.355 239.107 447.057 241.865 449.611 242.984C450.849 243.523 452.223 243.795 453.654 243.795ZM474.839 212.723C474.665 212.723 474.51 212.74 474.355 212.76C470.486 213.223 467.352 219.125 467.352 225.914C467.352 230.312 466.094 234.266 463.715 237.334C462.206 239.262 460.29 240.766 458.181 241.691C455.415 242.889 452.455 242.984 450.075 241.963C445.742 240.072 444.368 231.99 446.69 222.289C447.986 216.83 450.288 211.797 453.151 208.111C456.382 203.965 460.155 201.785 464.102 201.785C468.3 201.785 471.859 203.426 474.665 206.646C475.574 207.688 476.406 208.865 477.18 210.291C478.147 212.066 478.979 214.053 479.656 216.252C479.327 215.711 478.998 215.229 478.65 214.805C477.276 213.127 475.883 212.723 474.839 212.723Z" fill="#3FB1B5" fill-opacity="1.000000" fill-rule="nonzero"/>
  <path id="Vector" d="M451.913 243.41C452.204 243.41 452.455 243.197 452.494 242.889C455.318 216.445 461.761 208.268 466.655 206.068C471.028 204.102 474.723 206.666 474.761 206.686C475.013 206.879 475.381 206.801 475.574 206.551C475.768 206.301 475.69 205.934 475.439 205.74C475.265 205.625 471.163 202.771 466.191 205.008C462.902 206.492 460.039 209.85 457.698 215.018C454.757 221.48 452.629 230.814 451.352 242.754C451.314 243.062 451.546 243.352 451.875 243.391C451.875 243.41 451.894 243.41 451.913 243.41Z" fill="#3FB1B5" fill-opacity="1.000000" fill-rule="nonzero"/>
  <path id="Vector" d="M526.107 191.623C526.107 194.805 526.475 206.975 514.828 207.535C503.182 208.094 502.021 190.562 502.021 190.562C502.021 190.562 507.747 175.055 514.073 173.473C524.772 170.791 526.107 191.623 526.107 191.623Z" fill="#3FB1B5" fill-opacity="1.000000" fill-rule="nonzero"/>
  <path id="Vector" d="M467.932 225.896L482.094 225.896C478.824 205.471 467.932 213.146 467.932 225.896Z" fill="#3FB1B5" fill-opacity="1.000000" fill-rule="nonzero"/>
  <g opacity="0.400000">
    <path id="Vector" d="M227.437 75.875L227.437 203.193C227.437 210.041 233.008 215.576 239.857 215.576L386.02 215.576C395.19 228.172 414.091 228.229 423.339 215.576L423.358 215.557C427.034 215.307 430.284 213.436 432.374 210.678L429.007 207.783L343.109 133.873L261.312 63.4922L239.857 63.4922C233.008 63.4922 227.437 69.0469 227.437 75.875Z" fill="#FFFFFF" fill-opacity="1.000000" fill-rule="nonzero"/>
  </g>
  <g opacity="0.400000">
    <path id="Vector" d="M449.843 243.043C452.416 244.199 455.531 244.025 458.414 242.771L458.414 259.012L488.536 259.012L464.16 238.047L458.394 233.09L454.003 229.309L445.51 222.115C443.033 232.646 444.407 240.555 449.843 243.043Z" fill="#FFFFFF" fill-opacity="1.000000" fill-rule="nonzero"/>
  </g>
  <path id="Vector" d="M193.329 328.738L193.329 436.094L218.209 436.094L234.054 391.982L256.747 328.738L193.329 328.738Z" fill="#A0505A" fill-opacity="1.000000" fill-rule="nonzero"/>
  <path id="Vector" d="M256.747 328.738L193.329 328.738L193.329 363.205L249.202 349.742L256.747 328.738Z" fill="#73325A" fill-opacity="1.000000" fill-rule="nonzero"/>
  <path id="Vector" d="M192.749 436.672L218.615 436.672L235.117 390.729L233.763 391.461C233.725 391.48 230.513 393.197 223.974 394.047C217.938 394.836 207.723 395.01 193.465 391.404L192.749 391.23L192.749 436.672ZM217.802 435.514L193.91 435.514L193.91 392.715C208.032 396.207 218.17 395.994 224.225 395.203C228.617 394.625 231.519 393.68 233.047 393.062L217.802 435.514Z" fill="#FFFFFF" fill-opacity="1.000000" fill-rule="nonzero"/>
  <path id="Vector" d="M221.111 402.918C222.987 402.918 224.516 401.395 224.516 399.523C224.516 397.652 222.987 396.129 221.111 396.129C219.234 396.129 217.706 397.652 217.706 399.523C217.706 401.395 219.234 402.918 221.111 402.918ZM221.111 397.287C222.349 397.287 223.355 398.289 223.355 399.523C223.355 400.758 222.349 401.762 221.111 401.762C219.873 401.762 218.866 400.758 218.866 399.523C218.866 398.289 219.873 397.287 221.111 397.287Z" fill="#FFFFFF" fill-opacity="1.000000" fill-rule="nonzero"/>
  <path id="Vector" d="M207.645 412.004C209.522 412.004 211.05 410.48 211.05 408.609C211.05 406.738 209.522 405.215 207.645 405.215C205.769 405.215 204.24 406.738 204.24 408.609C204.24 410.48 205.769 412.004 207.645 412.004ZM207.645 406.373C208.884 406.373 209.889 407.375 209.889 408.609C209.889 409.844 208.884 410.848 207.645 410.848C206.407 410.848 205.401 409.844 205.401 408.609C205.401 407.375 206.407 406.373 207.645 406.373Z" fill="#FFFFFF" fill-opacity="1.000000" fill-rule="nonzero"/>
  <path id="Vector" d="M197.624 401.914C199.501 401.914 201.029 400.391 201.029 398.52C201.029 396.648 199.501 395.125 197.624 395.125C195.748 395.125 194.219 396.648 194.219 398.52C194.219 400.391 195.748 401.914 197.624 401.914ZM197.624 396.283C198.863 396.283 199.868 397.285 199.868 398.52C199.868 399.754 198.863 400.758 197.624 400.758C196.386 400.758 195.38 399.754 195.38 398.52C195.38 397.285 196.386 396.283 197.624 396.283Z" fill="#FFFFFF" fill-opacity="1.000000" fill-rule="nonzero"/>
  <path id="Vector" d="M201.59 422.572C203.467 422.572 204.995 421.049 204.995 419.178C204.995 417.307 203.467 415.783 201.59 415.783C199.714 415.783 198.185 417.307 198.185 419.178C198.185 421.049 199.714 422.572 201.59 422.572ZM201.59 416.941C202.828 416.941 203.834 417.943 203.834 419.178C203.834 420.412 202.828 421.416 201.59 421.416C200.352 421.416 199.346 420.412 199.346 419.178C199.346 417.943 200.352 416.941 201.59 416.941Z" fill="#FFFFFF" fill-opacity="1.000000" fill-rule="nonzero"/>
  <path id="Vector" d="M218.286 417.441C220.163 417.441 221.691 415.918 221.691 414.047C221.691 412.176 220.163 410.652 218.286 410.652C216.409 410.652 214.881 412.176 214.881 414.047C214.881 415.918 216.409 417.441 218.286 417.441ZM218.286 411.811C219.524 411.811 220.53 412.812 220.53 414.047C220.53 415.281 219.524 416.285 218.286 416.285C217.048 416.285 216.042 415.281 216.042 414.047C216.042 412.812 217.048 411.811 218.286 411.811Z" fill="#FFFFFF" fill-opacity="1.000000" fill-rule="nonzero"/>
  <path id="Vector" d="M213.681 432.871C215.558 432.871 217.086 431.348 217.086 429.477C217.086 427.605 215.558 426.082 213.681 426.082C211.805 426.082 210.277 427.605 210.277 429.477C210.277 431.348 211.805 432.871 213.681 432.871ZM213.681 427.24C214.92 427.24 215.926 428.242 215.926 429.477C215.926 430.711 214.92 431.715 213.681 431.715C212.443 431.715 211.437 430.711 211.437 429.477C211.437 428.242 212.443 427.24 213.681 427.24Z" fill="#FFFFFF" fill-opacity="1.000000" fill-rule="nonzero"/>
  <path id="Vector" d="M181.567 456.113L198.63 491.43C201.049 497.119 206.64 500.822 212.85 500.822L234.615 500.822C240.187 500.822 243.572 495.191 241.444 490.061L219.563 437.443C218.344 434.242 216.197 431.58 213.508 429.709C210.799 427.838 207.549 426.777 204.125 426.777C199.365 426.777 194.645 429.998 191.511 433.566L183.927 441.725C180.426 445.699 179.516 451.273 181.567 456.113Z" fill="#66B0F0" fill-opacity="1.000000" fill-rule="nonzero"/>
  <path id="Vector" d="M181.567 456.115L198.63 491.432C201.049 497.121 206.64 500.824 212.85 500.824L235.988 500.824C238.136 500.824 239.354 499.494 240.07 497.66L234.924 497.66C228.714 497.66 223.123 493.957 220.705 488.268L201.029 447.357C199.191 443.539 195.302 441.09 191.046 441.09C185.494 441.09 181.276 445.141 180.503 450.271C180.425 452.238 180.773 454.225 181.567 456.115Z" fill="#FFFFFF" fill-opacity="1.000000" fill-rule="nonzero"/>
  <path id="Vector" d="M212.85 501.402L235.988 501.402C238.136 501.402 239.703 500.207 240.612 497.873C240.689 497.699 240.651 497.488 240.554 497.334C240.438 497.18 240.264 497.082 240.071 497.082L234.924 497.082C228.946 497.082 223.568 493.533 221.246 488.037C221.246 488.037 221.246 488.018 221.227 488.018L201.552 447.107C199.617 443.096 195.496 440.512 191.047 440.512C185.455 440.512 180.774 444.582 179.922 450.193C179.922 450.213 179.922 450.232 179.922 450.252C179.845 452.336 180.213 454.398 181.025 456.348C181.025 456.348 181.025 456.365 181.044 456.365L198.108 491.662C200.623 497.584 206.408 501.402 212.85 501.402ZM239.161 498.24C238.426 499.609 237.401 500.246 235.988 500.246L212.85 500.246C206.872 500.246 201.494 496.697 199.172 491.199C199.172 491.199 199.172 491.18 199.153 491.18L182.089 455.885C181.354 454.109 181.006 452.238 181.083 450.33C181.857 445.314 186.036 441.67 191.047 441.67C195.051 441.67 198.766 444.002 200.507 447.609L220.182 488.5C222.697 494.42 228.482 498.24 234.924 498.24L239.161 498.24Z" fill="#66B0F0" fill-opacity="1.000000" fill-rule="nonzero"/>
  <path id="Vector" d="M185.494 440.027C187.545 438.908 190.021 438.1 192.188 438.1C196.348 438.1 200.198 440.51 201.997 444.252L222.369 486.607C224.961 492.721 230.958 496.676 237.633 496.676L241.386 496.676C241.58 496.309 241.715 495.924 241.851 495.518L237.633 495.518C231.423 495.518 225.851 491.834 223.433 486.145L223.413 486.125L203.022 443.75C201.03 439.604 196.773 436.941 192.169 436.941C190.698 436.941 188.938 437.424 187.429 437.945L185.494 440.027Z" fill="#FFFFFF" fill-opacity="1.000000" fill-rule="nonzero"/>
  <path id="Vector" d="M256.747 328.738L261.603 391.982L263.77 420.316C263.77 420.316 277.912 436.016 294.008 426.334L301.457 392.002L318.501 313.443C323.105 292.207 308.557 271.549 286.947 268.676L256.747 328.738Z" fill="#A0505A" fill-opacity="1.000000" fill-rule="nonzero"/>
  <path id="Vector" d="M283.116 430.828C286.579 430.828 290.39 429.959 294.298 427.605L294.511 427.471L302.211 391.172L301.282 391.461C282.961 396.939 261.951 391.5 261.738 391.441L260.945 391.23L263.189 421.338L263.325 421.492C263.479 421.646 267 425.523 272.592 428.262C275.397 429.611 279.034 430.828 283.116 430.828ZM293.486 426.738C287.063 430.52 280.214 430.674 273.133 427.221C268.335 424.867 265.008 421.551 264.331 420.836L262.241 392.734C264.002 393.139 268.568 394.123 274.468 394.662C281.259 395.299 291.222 395.453 300.702 392.83L293.486 426.738Z" fill="#FFFFFF" fill-opacity="1.000000" fill-rule="nonzero"/>
  <path id="Vector" d="M283.832 410.055C285.709 410.055 287.237 408.531 287.237 406.66C287.237 404.789 285.709 403.266 283.832 403.266C281.956 403.266 280.427 404.789 280.427 406.66C280.427 408.531 281.956 410.055 283.832 410.055ZM283.832 404.424C285.071 404.424 286.076 405.426 286.076 406.66C286.076 407.895 285.071 408.898 283.832 408.898C282.594 408.898 281.588 407.895 281.588 406.66C281.588 405.426 282.594 404.424 283.832 404.424Z" fill="#FFFFFF" fill-opacity="1.000000" fill-rule="nonzero"/>
  <path id="Vector" d="M265.879 405.734C267.755 405.734 269.284 404.211 269.284 402.34C269.284 400.469 267.755 398.945 265.879 398.945C264.002 398.945 262.474 400.469 262.474 402.34C262.474 404.211 264.002 405.734 265.879 405.734ZM265.879 400.104C267.117 400.104 268.123 401.105 268.123 402.34C268.123 403.574 267.117 404.578 265.879 404.578C264.64 404.578 263.635 403.574 263.635 402.34C263.635 401.105 264.64 400.104 265.879 400.104Z" fill="#FFFFFF" fill-opacity="1.000000" fill-rule="nonzero"/>
  <path id="Vector" d="M294.666 401.916C296.543 401.916 298.071 400.393 298.071 398.521C298.071 396.65 296.543 395.127 294.666 395.127C292.79 395.127 291.261 396.65 291.261 398.521C291.261 400.393 292.79 401.916 294.666 401.916ZM294.666 396.285C295.904 396.285 296.91 397.287 296.91 398.521C296.91 399.756 295.904 400.76 294.666 400.76C293.428 400.76 292.422 399.756 292.422 398.521C292.422 397.287 293.428 396.285 294.666 396.285Z" fill="#FFFFFF" fill-opacity="1.000000" fill-rule="nonzero"/>
  <path id="Vector" d="M286.656 425.389C288.533 425.389 290.062 423.865 290.062 421.994C290.062 420.123 288.533 418.6 286.656 418.6C284.78 418.6 283.251 420.123 283.251 421.994C283.251 423.865 284.78 425.389 286.656 425.389ZM286.656 419.758C287.895 419.758 288.901 420.76 288.901 421.994C288.901 423.229 287.895 424.232 286.656 424.232C285.418 424.232 284.412 423.229 284.412 421.994C284.412 420.76 285.418 419.758 286.656 419.758Z" fill="#FFFFFF" fill-opacity="1.000000" fill-rule="nonzero"/>
  <path id="Vector" d="M273.482 419.758C275.358 419.758 276.887 418.234 276.887 416.363C276.887 414.492 275.358 412.969 273.482 412.969C271.605 412.969 270.077 414.492 270.077 416.363C270.077 418.234 271.605 419.758 273.482 419.758ZM273.482 414.127C274.72 414.127 275.726 415.129 275.726 416.363C275.726 417.598 274.72 418.602 273.482 418.602C272.244 418.602 271.238 417.598 271.238 416.363C271.238 415.129 272.244 414.127 273.482 414.127Z" fill="#FFFFFF" fill-opacity="1.000000" fill-rule="nonzero"/>
  <path id="Vector" d="M245.12 427.066L263.77 501.422L269.651 501.422C269.922 501.422 270.174 501.402 270.444 501.383C274.894 500.979 278.647 497.236 279.595 492.818L294.028 426.295C277.931 435.998 263.77 420.297 263.77 420.297L245.12 427.066Z" fill="#66B0F0" fill-opacity="1.000000" fill-rule="nonzero"/>
  <path id="Vector" d="M244.172 465.219C240.245 444.543 239.161 428.746 245.933 427.473C252.704 426.199 264.757 439.912 268.684 460.59C272.611 481.266 270.561 499.551 263.789 500.824C257.018 502.115 248.099 485.914 244.172 465.219Z" fill="#FFFFFF" fill-opacity="1.000000" fill-rule="nonzero"/>
  <path id="Vector" d="M263.015 501.48C263.306 501.48 263.615 501.461 263.905 501.402C267.426 500.748 269.883 496.002 270.831 488.057C271.741 480.398 271.18 470.602 269.264 460.494C267.446 450.947 263.75 442.055 258.856 435.459C254.367 429.422 249.492 426.219 245.836 426.914C242.315 427.57 240.573 431.543 240.477 439.064C240.399 445.199 241.425 453.781 243.611 465.336C245.159 473.475 247.5 481.131 250.382 487.477C253.226 493.746 256.341 498.145 259.378 500.207C260.616 501.037 261.835 501.48 263.015 501.48ZM246.842 427.975C249.937 427.975 254.097 431.021 257.908 436.152C262.706 442.613 266.324 451.332 268.123 460.705C270.019 470.717 270.58 480.379 269.69 487.922C268.819 495.211 266.633 499.705 263.692 500.266C262.57 500.477 261.332 500.131 260.017 499.242C254.077 495.211 247.79 481.189 244.752 465.123C242.566 453.666 241.56 445.141 241.638 439.084C241.715 432.295 243.205 428.592 246.049 428.053C246.3 427.994 246.571 427.975 246.842 427.975Z" fill="#66B0F0" fill-opacity="1.000000" fill-rule="nonzero"/>
  <path id="Vector" d="M271.393 460.262C273.424 470.986 274.024 481.344 273.056 489.443C272.36 495.27 270.889 499.416 268.877 501.422L269.651 501.422C269.922 501.422 270.174 501.402 270.445 501.383C272.263 498.992 273.559 494.98 274.217 489.578C275.204 481.381 274.604 470.889 272.534 460.049C270.58 449.789 266.633 440.164 261.39 432.932C258.256 428.611 254.968 425.582 251.969 424.213L250.228 424.791C257.134 426.836 267.62 440.414 271.393 460.262Z" fill="#FFFFFF" fill-opacity="1.000000" fill-rule="nonzero"/>
  <path id="Vector" d="M286.946 268.656L198.688 259.592L110.468 284.262L111.223 295.949C112.422 314.389 128.364 328.738 146.897 328.738L256.727 328.738L286.946 268.656Z" fill="#FE5244" fill-opacity="1.000000" fill-rule="nonzero"/>
  <path id="Vector" d="M150.786 321.217L260.616 321.217C260.945 321.217 261.197 320.967 261.197 320.639C261.197 320.311 260.945 320.059 260.616 320.059L150.786 320.059C142.39 320.059 133.587 315.643 126.623 307.908C120.026 300.578 116.079 291.418 116.079 283.412C116.079 283.084 115.827 282.834 115.499 282.834C115.17 282.834 114.918 283.084 114.918 283.412C114.918 291.707 118.981 301.158 125.752 308.699C132.949 316.645 142.061 321.217 150.786 321.217Z" fill="#FFFFFF" fill-opacity="1.000000" fill-rule="nonzero"/>
  <path id="Vector" d="M159.434 311.574L265.066 311.574C265.395 311.574 265.646 311.322 265.646 310.994C265.646 310.668 265.395 310.416 265.066 310.416L159.434 310.416C152.102 310.416 144.518 306.982 138.114 300.734C132.097 294.871 127.88 287.311 126.545 279.98C126.487 279.672 126.177 279.459 125.868 279.518C125.558 279.576 125.346 279.885 125.404 280.193C128.131 295.025 142.777 311.574 159.434 311.574Z" fill="#FFFFFF" fill-opacity="1.000000" fill-rule="nonzero"/>
  <path id="Vector" d="M168.74 301.736L270.677 301.736C271.005 301.736 271.257 301.486 271.257 301.158C271.257 300.83 271.005 300.58 270.677 300.58L168.74 300.58C154.811 300.58 142.719 288.08 138.405 276.334C138.289 276.025 137.96 275.871 137.67 275.988C137.36 276.104 137.205 276.432 137.322 276.721C139.72 283.26 144.054 289.412 149.548 294.041C155.526 299.074 162.162 301.736 168.74 301.736Z" fill="#FFFFFF" fill-opacity="1.000000" fill-rule="nonzero"/>
  <path id="Vector" d="M173.77 291.129L275.706 291.129C276.035 291.129 276.287 290.877 276.287 290.551C276.287 290.223 276.035 289.971 275.706 289.971L173.77 289.971C164.174 289.971 154.114 283.742 147.498 273.73C147.323 273.461 146.956 273.385 146.685 273.557C146.414 273.73 146.337 274.098 146.511 274.367C153.359 284.705 163.787 291.129 173.77 291.129Z" fill="#FFFFFF" fill-opacity="1.000000" fill-rule="nonzero"/>
  <path id="Vector" d="M178.607 281.484L280.543 281.484C280.872 281.484 281.124 281.232 281.124 280.904C281.124 280.578 280.872 280.326 280.543 280.326L178.607 280.326C171.216 280.326 163.768 276.932 157.635 270.779C157.403 270.547 157.035 270.547 156.823 270.779C156.59 271.01 156.59 271.377 156.823 271.59C163.168 277.973 170.907 281.484 178.607 281.484Z" fill="#FFFFFF" fill-opacity="1.000000" fill-rule="nonzero"/>
  <path id="Vector" d="M183.83 271.648L285.766 271.648C286.095 271.648 286.347 271.396 286.347 271.068C286.347 270.742 286.095 270.49 285.766 270.49L183.83 270.49C179.477 270.49 175.105 269.256 170.81 266.846C170.539 266.691 170.171 266.787 170.017 267.057C169.862 267.328 169.958 267.693 170.229 267.848C174.698 270.375 179.283 271.648 183.83 271.648Z" fill="#FFFFFF" fill-opacity="1.000000" fill-rule="nonzero"/>
  <path id="Vector" d="M256.94 329.316C257.153 329.316 257.365 329.201 257.462 328.99L287.662 268.908C287.797 268.619 287.681 268.271 287.41 268.137C287.12 268.002 286.772 268.117 286.637 268.387L256.437 328.469C256.301 328.758 256.417 329.105 256.688 329.24C256.766 329.299 256.843 329.316 256.94 329.316Z" fill="#FFFFFF" fill-opacity="1.000000" fill-rule="nonzero"/>
  <path id="Vector" d="M105.632 203.754C113.951 206.105 122.134 205.412 123.005 202.885C123.817 200.475 120.142 196.348 112.693 193.607C112.326 193.473 111.939 193.338 111.552 193.203C109.308 192.451 107.063 191.969 104.955 191.717C98.7058 190.928 93.6177 192.045 92.9792 193.936C92.1086 196.463 96.8291 201.266 105.632 203.754Z" fill="#FFFFFF" fill-opacity="1.000000" fill-rule="nonzero"/>
  <path id="Vector" d="M115.537 205.779C119.755 205.779 122.947 204.834 123.566 203.078C124.611 199.992 120.025 195.691 112.906 193.068C112.538 192.934 112.152 192.799 111.765 192.664L111.745 192.664C109.559 191.93 107.296 191.43 105.032 191.158C98.6284 190.35 93.2114 191.467 92.4375 193.764C92.1667 194.516 92.302 195.441 92.8052 196.406C94.4302 199.492 99.4023 202.615 105.477 204.332C108.979 205.297 112.519 205.779 115.537 205.779ZM100.989 192.047C102.169 192.047 103.465 192.123 104.877 192.297C107.063 192.566 109.25 193.049 111.358 193.764C111.745 193.898 112.132 194.033 112.48 194.168C115.847 195.402 118.71 197.041 120.529 198.797C122.057 200.264 122.773 201.729 122.444 202.713C121.805 204.584 114.357 205.625 105.787 203.215C101.047 201.883 95.5137 199.086 93.8306 195.865C93.4822 195.189 93.3662 194.592 93.521 194.129C93.8691 193.107 96.6162 192.047 100.989 192.047Z" fill="#3FB1B5" fill-opacity="1.000000" fill-rule="nonzero"/>
  <path id="Vector" d="M110.894 259.998L114.086 259.998L122.463 203.619L122.463 203.58L122.676 202.172C122.27 199.607 118.246 195.98 111.146 193.629C107.605 192.451 104.084 191.932 101.086 191.873L98.0288 200.225L97.7388 201.016L88.0654 227.459C82.2615 243.256 94.0049 259.998 110.894 259.998Z" fill="#A0505A" fill-opacity="1.000000" fill-rule="nonzero"/>
  <path id="Vector" d="M97.8354 200.822C99.8667 202.096 102.498 203.271 105.632 204.16C112.829 206.184 120.123 205.355 122.463 203.619L122.463 203.58L122.676 202.172C122.27 199.607 118.246 195.98 111.146 193.629C107.605 192.451 104.084 191.932 101.086 191.873L97.8354 200.822Z" fill="#73325A" fill-opacity="1.000000" fill-rule="nonzero"/>
  <path id="Vector" d="M214.513 213.611L224.67 238.801C229.681 251.24 241.792 259.4 255.257 259.4L391.785 259.4L391.785 246.939C391.785 243.932 389.928 241.23 387.103 240.17L373.077 234.865C371.8 234.383 370.465 234.133 369.111 234.133L353.189 234.133L263.073 225.066L247.519 189.559L214.513 213.611Z" fill="#A0505A" fill-opacity="1.000000" fill-rule="nonzero"/>
  <path id="Vector" d="M391.205 252.205C391.533 252.205 391.785 251.953 391.785 251.625C391.785 249.1 390.257 246.881 387.877 245.975L377.294 241.982C377.004 241.867 376.656 242.021 376.54 242.311C376.424 242.6 376.579 242.947 376.869 243.062L387.451 247.055C389.367 247.787 390.624 249.582 390.624 251.625C390.624 251.953 390.876 252.205 391.205 252.205Z" fill="#73325A" fill-opacity="1.000000" fill-rule="nonzero"/>
  <path id="Vector" d="M391.205 258.57C391.533 258.57 391.785 258.318 391.785 257.99C391.785 255.465 390.257 253.246 387.877 252.34L377.294 248.348C377.004 248.232 376.656 248.387 376.54 248.676C376.424 248.965 376.579 249.312 376.869 249.428L387.451 253.42C389.367 254.152 390.624 255.947 390.624 257.99C390.624 258.318 390.876 258.57 391.205 258.57Z" fill="#73325A" fill-opacity="1.000000" fill-rule="nonzero"/>
  <path id="Vector" d="M387.664 259.398C387.896 259.398 388.129 259.244 388.206 259.012C388.322 258.703 388.167 258.377 387.858 258.279L377.275 254.48C376.966 254.363 376.637 254.518 376.54 254.826C376.424 255.135 376.579 255.463 376.888 255.561L387.471 259.359C387.529 259.379 387.606 259.398 387.664 259.398Z" fill="#73325A" fill-opacity="1.000000" fill-rule="nonzero"/>
  <path id="Vector" d="M378.185 237.006C378.185 237.006 368.279 211.795 365.106 212.221C361.934 212.645 373.89 235.385 373.89 235.385L378.185 237.006Z" fill="#FE5244" fill-opacity="1.000000" fill-rule="nonzero"/>
  <path id="Vector" d="M247.519 189.578L249.802 194.766L220.569 228.617L214.514 213.611L247.519 189.578Z" fill="#73325A" fill-opacity="1.000000" fill-rule="nonzero"/>
  <path id="Vector" d="M122.463 203.637L110.469 284.26L198.669 259.592L214.514 213.59L255.412 183.791L241.057 166.74C228.25 151.521 209.348 142.727 189.421 142.727L161.079 142.727C136.431 142.727 113.738 156.15 101.917 177.715L92.7278 193.568C92.7278 193.568 95.4944 189.52 110.411 193.588C123.547 197.195 122.463 203.637 122.463 203.637Z" fill="#3FB1B5" fill-opacity="1.000000" fill-rule="nonzero"/>
  <path id="Vector" d="M214.514 213.803C214.552 213.803 214.61 213.803 214.649 213.783C214.959 213.707 215.152 213.398 215.075 213.09L210.49 193.262C210.412 192.953 210.103 192.76 209.793 192.838C209.484 192.914 209.29 193.223 209.368 193.531L213.953 213.359C214.011 213.629 214.243 213.803 214.514 213.803Z" fill="#FFFFFF" fill-opacity="1.000000" fill-rule="nonzero"/>
  <path id="Vector" d="M112.693 266.016C112.964 266.016 113.216 265.822 113.274 265.533L128.19 173.088C128.248 172.779 128.035 172.471 127.706 172.432C127.397 172.373 127.087 172.586 127.049 172.914L112.132 265.359C112.074 265.668 112.287 265.977 112.616 266.016C112.635 266.016 112.655 266.016 112.693 266.016Z" fill="#FFFFFF" fill-opacity="1.000000" fill-rule="nonzero"/>
  <path id="Vector" d="M110.662 284.84C110.72 284.84 110.759 284.84 110.817 284.82L198.843 259.785C199.153 259.689 199.327 259.381 199.249 259.072C199.153 258.764 198.843 258.59 198.533 258.666L110.507 283.703C110.198 283.799 110.023 284.107 110.101 284.416C110.178 284.666 110.41 284.84 110.662 284.84Z" fill="#FFFFFF" fill-opacity="1.000000" fill-rule="nonzero"/>
  <path id="NECK" d="M193.929 129.844L193.929 142.805L170.984 142.611L170.984 119.736L193.929 129.844Z" fill="#A0505A" fill-opacity="1.000000" fill-rule="nonzero"/>
  <path id="Vector" d="M169.127 115.744L169.127 116.092C169.127 119.564 171.758 122.379 175.24 122.379L176.595 122.379C177.465 125.812 185.204 129.824 190.698 129.824L197.102 129.824C204.105 129.824 209.464 123.557 208.323 116.65L208.013 114.781L209.909 113.719C210.993 113.102 211.302 111.693 210.548 110.691L206.446 105.291L205.556 99.9668C204.84 95.5898 201.958 92.0215 198.127 90.2656C196.618 107.219 181.605 109.225 177.639 109.457L175.434 109.457C171.951 109.457 169.127 112.273 169.127 115.744Z" fill="#A0505A" fill-opacity="1.000000" fill-rule="nonzero"/>
  <path id="Vector" d="M179.284 117.98C179.613 117.98 179.864 117.73 179.864 117.402C179.864 114.355 177.368 111.867 174.312 111.867C173.983 111.867 173.731 112.117 173.731 112.445C173.731 112.773 173.983 113.025 174.312 113.025C176.73 113.025 178.703 114.992 178.703 117.402C178.703 117.73 178.955 117.98 179.284 117.98Z" fill="#73325A" fill-opacity="1.000000" fill-rule="nonzero"/>
  <path id="Vector" d="M199.268 107.354C199.268 108.611 199.71 109.631 200.255 109.631C200.8 109.631 201.242 108.611 201.242 107.354C201.242 106.098 200.8 105.078 200.255 105.078C199.71 105.078 199.268 106.098 199.268 107.354Z" fill="#73325A" fill-opacity="1.000000" fill-rule="evenodd"/>
  <path id="Vector" d="M196.231 104.48C196.405 104.48 196.579 104.402 196.696 104.248C199.269 100.699 201.667 100.893 201.706 100.893C202.035 100.932 202.306 100.699 202.345 100.371C202.383 100.062 202.151 99.7734 201.822 99.7344C201.706 99.7148 198.727 99.4844 195.767 103.555C195.573 103.805 195.631 104.172 195.902 104.363C195.999 104.441 196.115 104.48 196.231 104.48Z" fill="#73325A" fill-opacity="1.000000" fill-rule="nonzero"/>
  <path id="Vector" d="M177.639 109.457L175.434 109.457C171.951 109.457 169.127 112.273 169.127 115.744L169.127 116.092C169.127 119.562 171.758 122.379 175.24 122.379L176.73 123.422C182.998 127.434 191.665 143.211 189.537 154.377C187.138 166.934 176.169 169.73 166.031 167.803C155.894 165.873 148.503 159.99 150.902 147.414C151.173 145.93 151.618 144.445 152.179 142.979C152.005 143.037 151.85 143.094 151.676 143.152C139.488 146.471 125.172 146.855 121.225 137.365C117.278 127.877 118.168 118.482 130.028 113.584C136.915 110.73 146.279 110.748 153.533 112.717C149.877 100.045 156.377 85.9453 168.314 84.5371C187.061 82.3184 197.818 90.0332 198.108 90.2461C198.127 92.4844 196.599 108.357 177.639 109.457Z" fill="#73325A" fill-opacity="1.000000" fill-rule="nonzero"/>
  <path id="Vector" d="M151.676 143.75C151.947 143.75 152.198 143.557 152.237 143.287C154.288 132.582 163.071 126.68 163.168 126.621C163.323 126.525 163.419 126.332 163.419 126.139C163.419 125.947 163.323 125.773 163.168 125.658C157.17 121.434 154.578 115.338 153.572 112.098C153.475 111.789 153.146 111.615 152.856 111.713C152.547 111.809 152.373 112.137 152.469 112.426C153.475 115.705 156.029 121.723 161.852 126.121C159.666 127.76 152.914 133.508 151.096 143.055C151.038 143.363 151.25 143.672 151.56 143.73C151.599 143.75 151.637 143.75 151.676 143.75Z" fill="#FFFFFF" fill-opacity="1.000000" fill-rule="nonzero"/>
  <path id="Vector" d="M147.787 112.426L152.914 112.426C153.243 112.426 153.494 112.176 153.494 111.848L153.494 106.736C153.494 103.746 151.056 101.316 148.058 101.316L147.787 101.316C144.788 101.316 142.35 103.746 142.35 106.736L142.35 107.006C142.331 108.434 142.892 109.803 143.917 110.826C144.943 111.848 146.316 112.426 147.787 112.426ZM152.333 111.27L147.787 111.27C146.626 111.27 145.562 110.826 144.75 109.996C143.956 109.186 143.511 108.125 143.511 107.006L143.511 106.736C143.511 104.383 145.427 102.475 147.787 102.475L148.058 102.475C150.418 102.475 152.333 104.383 152.333 106.736L152.333 111.27Z" fill="#FE5244" fill-opacity="1.000000" fill-rule="nonzero"/>
  <path id="Vector" d="M144.924 120.258C146.994 120.258 148.987 119.254 150.167 117.402L153.456 112.195C153.63 111.926 153.553 111.559 153.282 111.404L148.058 108.125C146.666 107.258 145.002 106.969 143.396 107.336C141.79 107.701 140.417 108.666 139.527 110.055L139.217 110.537C138.327 111.926 138.056 113.584 138.424 115.186C138.792 116.785 139.759 118.156 141.152 119.043L141.635 119.352C142.641 119.949 143.783 120.258 144.924 120.258ZM152.16 112.061L149.18 116.785C147.71 119.1 144.595 119.795 142.235 118.328L141.751 118.02C140.61 117.307 139.836 116.207 139.546 114.896C139.256 113.584 139.488 112.254 140.204 111.115L140.513 110.633C141.229 109.496 142.332 108.725 143.647 108.434C144.963 108.145 146.298 108.377 147.439 109.09L152.16 112.061Z" fill="#FE5244" fill-opacity="1.000000" fill-rule="nonzero"/>
  <path id="Vector" d="M176.614 135.688C176.749 135.688 176.885 135.688 177.02 135.668C178.471 135.551 179.787 134.896 180.735 133.797L180.909 133.584C181.857 132.504 182.321 131.115 182.224 129.688C182.127 128.242 181.47 126.91 180.367 125.965L176.73 122.494C176.614 122.379 176.459 122.32 176.304 122.34C176.149 122.34 175.995 122.416 175.898 122.533L172.319 126.564C171.371 127.662 170.887 129.07 171.003 130.518C171.119 131.965 171.777 133.275 172.88 134.221L173.112 134.395C174.06 135.225 175.298 135.688 176.614 135.688ZM176.343 123.729L179.554 126.795L179.574 126.814C180.444 127.566 180.967 128.607 181.044 129.766C181.122 130.904 180.754 131.984 180.019 132.832C180.019 132.832 180.019 132.852 180 132.852L179.825 133.064C179.09 133.912 178.065 134.434 176.923 134.529C175.782 134.607 174.679 134.24 173.809 133.508L173.576 133.314C172.725 132.582 172.203 131.559 172.106 130.422C172.029 129.283 172.396 128.184 173.131 127.316L176.343 123.729Z" fill="#FE5244" fill-opacity="1.000000" fill-rule="nonzero"/>
  <path id="Vector" d="M169.204 133.566C171.913 133.566 174.408 131.773 175.182 129.053L176.827 123.133C176.904 122.824 176.73 122.516 176.42 122.418L170.481 120.779C168.895 120.336 167.231 120.547 165.799 121.338C164.368 122.148 163.323 123.459 162.878 125.041L162.723 125.602C162.278 127.182 162.491 128.842 163.284 130.268C164.097 131.695 165.412 132.738 166.999 133.182L167.56 133.336C168.121 133.51 168.663 133.566 169.204 133.566ZM174.06 128.744C173.306 131.387 170.539 132.969 167.889 132.236L167.328 132.082C166.031 131.715 164.967 130.885 164.31 129.729C163.652 128.57 163.497 127.221 163.845 125.93L164 125.369C164.368 124.076 165.199 123.016 166.36 122.361C167.521 121.705 168.875 121.551 170.172 121.898L175.55 123.383L174.06 128.744Z" fill="#FE5244" fill-opacity="1.000000" fill-rule="nonzero"/>
  <path id="Vector" d="M261.12 501.402C261.158 501.402 261.197 501.402 261.236 501.383C261.545 501.326 261.758 501.018 261.681 500.689L227.979 343.436C227.921 343.127 227.611 342.916 227.282 342.992C226.973 343.051 226.76 343.359 226.838 343.688L260.558 500.939C260.616 501.209 260.849 501.402 261.12 501.402Z" fill="#FFCF2D" fill-opacity="1.000000" fill-rule="nonzero"/>
  <path id="Vector" d="M107.47 501.402C107.741 501.402 107.973 501.209 108.031 500.939L141.733 343.688C141.791 343.379 141.597 343.07 141.288 342.992C140.978 342.936 140.669 343.127 140.591 343.436L106.89 500.689C106.832 500.998 107.025 501.307 107.335 501.383C107.393 501.402 107.431 501.402 107.47 501.402Z" fill="#FFCF2D" fill-opacity="1.000000" fill-rule="nonzero"/>
  <path id="Vector" d="M115.402 466.492L253.651 466.492C253.98 466.492 254.232 466.24 254.232 465.912C254.232 465.584 253.98 465.334 253.651 465.334L115.402 465.334C115.073 465.334 114.821 465.584 114.821 465.912C114.821 466.24 115.073 466.492 115.402 466.492Z" fill="#FFCF2D" fill-opacity="1.000000" fill-rule="nonzero"/>
  <path id="Vector" d="M114.648 343.57L253.962 343.57C255.722 343.57 257.154 342.143 257.154 340.389L257.154 331.92C257.154 330.166 255.722 328.738 253.962 328.738L114.648 328.738C112.887 328.738 111.456 330.166 111.456 331.92L111.456 340.389C111.456 342.143 112.887 343.57 114.648 343.57Z" fill="#FFFFFF" fill-opacity="1.000000" fill-rule="nonzero"/>
  <path id="Vector" d="M114.648 344.15L253.962 344.15C256.051 344.15 257.734 342.473 257.734 340.389L257.734 331.922C257.734 329.838 256.051 328.16 253.962 328.16L114.648 328.16C112.558 328.16 110.875 329.838 110.875 331.922L110.875 340.389C110.875 342.473 112.558 344.15 114.648 344.15ZM253.962 329.318C255.393 329.318 256.573 330.494 256.573 331.922L256.573 340.389C256.573 341.816 255.393 342.992 253.962 342.992L114.648 342.992C113.216 342.992 112.036 341.816 112.036 340.389L112.036 331.922C112.036 330.494 113.216 329.318 114.648 329.318L253.962 329.318Z" fill="#66B0F0" fill-opacity="1.000000" fill-rule="nonzero"/>
</svg>
