<svg width="21.000000" height="20.000000" viewBox="0 0 21 20" fill="none" xmlns="http://www.w3.org/2000/svg" xmlns:xlink="http://www.w3.org/1999/xlink">
	<desc>
			Created with Pixso.
	</desc>
	<defs/>
	<path id="Vector" d="M9 0C6.45 0 4.1 0.78 2.38 2.1C0.65 3.43 -0.5 5.32 -0.5 7.5C-0.5 8.52 -0.25 9.49 0.21 10.37C0.21 10.41 0.21 10.47 0.21 10.54C0.19 10.76 0.13 11.06 0.05 11.42C-0.11 12.13 -0.37 12.94 -0.58 13.59C-0.98 14.81 0.24 15.96 1.43 15.49C2.12 15.23 3.02 14.89 3.83 14.66C4.23 14.54 4.59 14.45 4.87 14.41C5.05 14.38 5.15 14.38 5.19 14.38C5.2 14.38 5.2 14.38 5.2 14.38C6.37 14.78 7.65 15 9 15C11.54 15 13.88 14.21 15.61 12.89C17.34 11.56 18.5 9.67 18.5 7.5C18.5 5.32 17.34 3.43 15.61 2.1C13.88 0.78 11.54 0 9 0ZM1.5 7.5C1.5 6.08 2.24 4.72 3.59 3.69C4.94 2.66 6.85 2 9 2C11.14 2 13.05 2.66 14.4 3.69C15.75 4.72 16.5 6.08 16.5 7.5C16.5 8.91 15.75 10.27 14.4 11.3C13.05 12.33 11.14 13 9 13C7.86 13 6.78 12.81 5.82 12.48C5.39 12.33 4.9 12.38 4.55 12.43C4.16 12.5 3.71 12.61 3.27 12.74C2.72 12.9 2.14 13.09 1.61 13.29C1.75 12.83 1.89 12.33 2 11.87C2.09 11.48 2.17 11.08 2.2 10.72C2.21 10.55 2.22 10.36 2.21 10.17C2.19 10.01 2.16 9.76 2.02 9.52C1.68 8.88 1.5 8.2 1.5 7.5ZM18.94 11.35C19.44 10.49 19.78 9.55 19.92 8.56C20.6 9.56 21 10.72 21 12C21 13.12 20.67 14.19 20.11 15.12C20.1 15.14 20.1 15.18 20.09 15.24C20.08 15.4 20.08 15.61 20.1 15.86C20.13 16.37 20.22 16.96 20.31 17.44C20.5 18.55 19.44 19.51 18.34 19.16C17.82 19 17.15 18.8 16.56 18.67C16.26 18.6 16 18.56 15.8 18.54C15.68 18.52 15.61 18.52 15.58 18.52L15.58 18.52L15.58 18.52C14.62 18.83 13.58 19 12.5 19C9.72 19 7.12 17.87 5.55 16.04C6.63 16.34 7.79 16.5 9 16.5C9.2 16.5 9.41 16.49 9.61 16.48C10.46 16.81 11.44 17 12.5 17C13.38 17 14.23 16.86 15 16.61C15.35 16.5 15.74 16.52 16.01 16.55C16.32 16.58 16.66 16.64 17 16.72C17.4 16.81 17.83 16.92 18.22 17.04C18.17 16.7 18.13 16.34 18.1 16C18.08 15.69 18.08 15.38 18.1 15.09C18.12 14.83 18.17 14.45 18.37 14.12C18.78 13.47 19 12.75 19 12C19 11.78 18.98 11.56 18.94 11.35Z" fill="#FF3F3A" fill-opacity="1.000000" fill-rule="evenodd"/>
</svg>
