<svg width="17.000000" height="21.000000" viewBox="0 0 17 21" fill="none"
  xmlns="http://www.w3.org/2000/svg"
  xmlns:xlink="http://www.w3.org/1999/xlink">
  <desc>
			Created with Pixso.
  </desc>
  <defs/>
  <path id="Vector" d="M7.38 20.53C7.38 20.53 7.38 20.53 8 19.75L8.61 20.53C8.25 20.82 7.74 20.82 7.38 20.53ZM7.38 20.53L8 19.75C8.61 20.53 8.62 20.53 8.62 20.53L8.62 20.53L8.62 20.52L8.64 20.51C8.66 20.5 8.68 20.48 8.71 20.45C8.77 20.4 8.86 20.33 8.96 20.24C9.18 20.06 9.48 19.79 9.85 19.46C10.57 18.78 11.54 17.81 12.52 16.64C14.43 14.33 16.5 11.04 16.5 7.51C16.5 2.92 12.66 -0.75 8 -0.75C3.33 -0.75 -0.5 2.92 -0.5 7.51C-0.5 11.04 1.56 14.33 3.47 16.64C4.45 17.81 5.42 18.78 6.14 19.46C6.51 19.79 6.81 20.06 7.03 20.24C7.13 20.33 7.22 20.4 7.28 20.45C7.31 20.48 7.33 20.5 7.35 20.51L7.37 20.52L7.37 20.53L7.38 20.53ZM1.5 7.51C1.5 4.08 4.38 1.25 8 1.25C11.61 1.25 14.5 4.08 14.5 7.51C14.5 10.31 12.81 13.14 10.97 15.36C10.07 16.45 9.17 17.36 8.49 17.99C8.3 18.16 8.14 18.31 8 18.44C7.85 18.31 7.69 18.16 7.5 17.99C6.82 17.36 5.92 16.45 5.02 15.36C3.18 13.14 1.5 10.31 1.5 7.51ZM8 3.75C5.79 3.75 4 5.54 4 7.75C4 9.95 5.79 11.75 8 11.75C10.2 11.75 12 9.95 12 7.75C12 5.54 10.2 3.75 8 3.75ZM6 7.75C6 6.64 6.89 5.75 8 5.75C9.1 5.75 10 6.64 10 7.75C10 8.85 9.1 9.75 8 9.75C6.89 9.75 6 8.85 6 7.75Z" fill="#FF3F3A" fill-opacity="1.000000" fill-rule="evenodd"/>
</svg>
