<svg width="14.000000" height="23.000000" viewBox="0 0 14 23" fill="none" xmlns="http://www.w3.org/2000/svg" xmlns:xlink="http://www.w3.org/1999/xlink">
	<desc>
			Created with Pixso.
	</desc>
	<defs/>
	<path id="Rectangle (Stroke)" d="M3.5 1.92C2.67 1.92 2 2.59 2 3.42L2 18.57C2 19.4 2.67 20.07 3.5 20.07L10.5 20.07C11.32 20.07 12 19.4 12 18.57L12 3.42C12 2.59 11.32 1.92 10.5 1.92L10.41 1.92L10.17 2.5C10.01 2.87 9.65 3.12 9.25 3.12L4.75 3.12C4.34 3.12 3.98 2.87 3.82 2.5L3.58 1.92L3.5 1.92ZM0 3.42C0 1.48 1.56 -0.08 3.5 -0.08L10.5 -0.08C12.43 -0.08 14 1.48 14 3.42L14 18.57C14 20.51 12.43 22.07 10.5 22.07L3.5 22.07C1.56 22.07 0 20.51 0 18.57L0 3.42Z" fill="#FF3F3A" fill-opacity="1.000000" fill-rule="evenodd"/>
</svg>
